<?xml version="1.0" encoding="utf-8" ?>
<svg baseProfile="full" height="300mm" version="1.1" viewBox="0,0,200,300" width="200mm" xmlns="http://www.w3.org/2000/svg" xmlns:ev="http://www.w3.org/2001/xml-events" xmlns:xlink="http://www.w3.org/1999/xlink"><defs /><rect fill="#222222" height="300" width="200" x="0" y="0" /><text fill="#FFFFFF" style="font-size:12px; font-family:Arial; font-weight:bold;" x="10" y="20">Over 10km Runs</text><text fill="#FFFFFF" style="font-size:4px; font-family:Arial" x="10" y="280">Runner</text><text fill="#FFFFFF" style="font-size:9px; font-family:Arial" x="10" y="290">baobaofred2026</text><text fill="#FFFFFF" style="font-size:4px; font-family:Arial" x="65" y="280">SPECIAL TRACKS</text><rect fill="yellow" height="2.6" width="2.6" x="65" y="283" /><text fill="#FFFFFF" style="font-size:3px; font-family:Arial" x="70" y="285.5">Over 20.0 km</text><rect fill="red" height="2.6" width="2.6" x="65" y="287" /><text fill="#FFFFFF" style="font-size:3px; font-family:Arial" x="70" y="289.5">Over 40.0 km</text><text fill="#FFFFFF" style="font-size:4px; font-family:Arial" x="120" y="280">STATISTICS</text><text fill="#FFFFFF" style="font-size:3px; font-family:Arial" x="120" y="285">Number: 5</text><text fill="#FFFFFF" style="font-size:3px; font-family:Arial" x="120" y="290">Weekly: 2.5</text><text fill="#FFFFFF" style="font-size:3px; font-family:Arial" x="141" y="285">Total: 60.7 km</text><text fill="#FFFFFF" style="font-size:3px; font-family:Arial" x="141" y="290">Avg: 12.1 km</text><text fill="#FFFFFF" style="font-size:3px; font-family:Arial" x="167" y="285">Min: 10.3 km</text><text fill="#FFFFFF" style="font-size:3px; font-family:Arial" x="167" y="290">Max: 15.5 km</text><polyline fill="none" points="66.16939777001971,57.499820877666934 65.81827078259084,57.68304149643518 65.34424934961135,57.56852863484528 64.78244616970187,57.522723466710886 64.2206429898506,57.47691828523239 63.729065207531676,57.36240527300106 63.18481837701984,57.522723466710886 62.62301519716857,57.637236361784744 62.06121201743372,57.7288466176542 61.49940883752424,57.820456819812534 60.937605657672975,57.88916443634662 60.35824612842407,57.98077454477607 59.79644294863101,58.07238459966902 59.23463976877974,58.16399460098182 58.67283658887027,58.25560454867082 58.093477059621364,58.32431197434198 57.514117530488875,58.39301936983247 56.952314350695815,58.5075316287257 56.40806752006756,58.57623894386052 55.84626434033271,58.667848650497035 55.30201750982087,58.805263110014494 54.77532702870667,59.011384573197574 54.2661928969319,59.2862127689732 53.77461511461297,59.60684505457175 53.35326272965176,59.95037891804532 52.91435399540933,60.31681420863606 52.5281143093016,60.660346515098354 52.0540928763221,60.614542251089006 51.6854095395538,60.31681420863606 51.316726202727295,59.95037891804532 50.93048651656136,59.58394277023035 50.56180317985127,59.194603423951776 50.17556349374354,58.828165508195525 49.80688015697524,58.484629183629295 49.4733095188858,58.07238459966902 49.19240792898927,57.61433378949005 49.06951348338043,57.0417683932028 49.06951348338043,56.446298160910374 49.06951348338043,55.87372849514941 49.034400784701575,55.301156736473786 48.99928808596451,54.70567988719267 48.92906268843217,54.064394594781334 48.87639364035567,53.44600986194564 48.806168242765125,52.850525960093364 48.75349919468863,52.255039794312324 48.71838649595156,51.659551364704384 48.66571744787507,51.04115713764622 48.613048399740364,50.39985684203566 48.54282300226623,49.758553920692066 48.49015395413153,49.1630559998157 48.43748490611324,48.52174801452202 48.40237220725976,47.90334139908373 48.33214680978563,47.28493234202324 48.27947776176734,46.666520843326 48.226808713632636,46.04810690290469 48.17413966549793,45.42969052080298 48.139026966819074,44.81127169696265 48.12147061742144,44.19285043129639 48.1039142680238,43.55152209519292 48.08635791862616,43.00181000265002 48.033688870607875,42.42919118789723 47.98101982247317,41.83366539979761 47.92835077433847,41.238137347230804 47.875681726203766,40.665512084335205 47.82301267812727,40.09288472781191 47.787899979390204,39.520255277631804 47.73523093119729,38.97052903567965 47.682561883179005,38.397895481888554 47.6298928350443,37.825259834338794 47.594780136307236,37.25262209304492 47.54211108817253,36.67998225790507 47.48944204003783,36.1073403290502 47.43677299201954,35.5346963062766 47.38410394388484,34.93914430150471 47.3138785463525,34.41230794778676 47.03297695645597,34.02290602562425 46.59406822221354,34.02290602562425 45.9971523436252,34.06871806674462 45.33001106756274,34.137436103235814 44.92621503205737,34.297778071209905 44.76820788771147,34.755897075126995 44.6804261408397,35.305638110934524 44.5750880446285,35.855377217012574 44.48730629781494,36.42802006719285 44.48730629781494,37.00066082354169 44.539975345891435,37.59620498903678 44.5750880446285,38.19174688994826 44.66286979144206,38.7872865262907 44.715538839576766,39.33701341136475 44.9437713813968,39.886738366956706 45.27734201942803,40.3448410226265 45.59335630806163,40.84875239626854 45.9444832954905,41.30685223812179 46.34827933093766,41.85657027964771 46.4711737766047,42.475000770165934 46.55895552347647,43.04761941732431 46.6291809209506,43.620235971102375 46.716962667764165,44.16994589311071 46.787188065296505,44.71965388573881 46.83985711331479,45.26935994908854 46.874969812110066,45.86487267391931 46.91008251084713,46.39167050458491 46.96275155892363,46.91846656346752 47.01542060705833,47.46816490974743 47.050533305853605,47.97205336585466 47.08564600459067,48.49884410937375 47.12075870326953,49.02563308113895 47.155871402064804,49.55242028126668 47.17342775140423,50.10210938367527 47.22609679953894,50.65179655700922 47.261209498217795,51.178578287988785 47.3138785463525,51.72826168357278 47.331434895750135,52.277943150285864 46.892526161449496,52.48407320288243 46.3131666322588,52.48407320288243 45.733807103009894,52.48407320288243 45.15444757376099,52.48407320288243 44.5750880446285,52.48407320288243 43.99572851532139,52.50697652537201 43.5217070824001,52.55278316017939 42.94234755326761,52.55278316017939 42.32787532528164,52.59858978164266 41.69584674789803,52.644396389616304 41.0989308693097,52.690202984333155 40.50201499077957,52.736009565604036 39.92265546153067,52.75891285116086 39.32573958294233,52.78181613338529 38.71126735495636,52.78181613338529 38.07923877768917,52.78181613338529 37.482322899100836,52.827622687866096 37.02585781546077,53.1482681940397 36.867850671114866,53.69794467740576 36.81518162298016,54.29342535766773 36.7273998761666,54.88890377417556 36.692287177429534,55.46147703989118 36.692287177429534,56.05695101592573 36.65717447863426,56.698228150897194 36.6220617799554,57.31660004465084 36.58694908116013,57.95787202271458 36.49916733428836,58.57623894386052 36.48161098494893,59.21750576526392 36.48161098494893,59.81296546304657 36.446498286153655,60.385520730153075 36.4113855874748,60.95807390460686 36.37627288873773,61.53062498634972 36.358716539340094,62.08027205595863 36.358716539340094,62.65281903605501 36.30604749120539,63.225363923585974 36.288491141807754,63.79790671849332 36.27093479252653,64.3704474207916 36.253378443128895,64.96588753139076 36.18315304565476,65.58422678931674 36.14804034685949,66.1796622864058 36.11292764818063,66.77509552023548 36.077814949385356,67.3476253416884 36.0427022507065,67.89725200171233 36.02514590136707,68.44687673334556 36.007589551911224,68.97359862508893 35.972476853232365,69.5232195804565 35.95492050383473,70.04993785335682 35.91980780509766,70.55375367458328 35.91980780509766,70.96596541415784 35.8846951064188,71.5155793796439 35.84958240756532,72.08809187673614 35.83202605822589,72.61480152625882 35.81446970888646,73.18731000632397 35.779357010207605,73.73691617888107 35.76180066075176,74.3094205584639 35.69157526321942,74.92772293851885 35.69157526321942,75.40862310261582 35.63890621520113,76.02692114459933 35.551124468271155,76.622316952853 35.445786372059956,77.2406102049863 35.358004625246394,77.85890101715631 35.270222878374625,78.47718938921753 35.18244113156106,79.07257588581706 35.12977208342636,79.69085946833366 35.11221573408693,80.30914061088697 35.077103035349865,80.92741931357887 35.05954668595223,81.56859465043817 35.02443398727337,82.16396939949482 35.006877637817524,82.8051396759256 34.989321288478095,83.44630732863152 34.95420858974103,84.06457365160168 34.91909589100396,84.72863476256316 34.883983192266896,85.36979454402172 34.84887049347162,85.9422564174456 34.84887049347162,86.53761454710911 34.813757794792764,87.1558686720673 34.813757794792764,87.72832401988853 34.77864509599749,88.3236753630772 34.76108874665806,88.9190244441852 34.7259760479792,89.53726917256427 34.70841969852336,90.13261364251957 34.69086334918393,90.72795585043787 34.65575065044686,91.32329579637735 34.62063795165159,91.96442859311355 34.60308160231216,92.60555876659055 34.58552525297273,93.22378894941357 34.55041255423566,93.86491397002828 34.5152998554986,94.5060363675293 34.40996175922919,95.12425905217242 34.28706731367856,95.74247929772537 34.11150381999323,96.3378001919773 33.86571492877556,96.91022199580038 33.60236968821846,97.4368482084974 33.286355399526656,97.94057597324718 32.97034111083485,98.42140551084594 32.67188317159889,98.90223357312789 32.40853793104179,99.38306015994749 32.110079991747625,99.86388527139206 31.916960148664657,100.25312356674112 32.07496729301056,100.7797385451704 32.58410142484354,101.14607835588686 33.110791905841324,101.48952115068096 33.63748238689732,101.85585930214438 34.16417286806973,102.1993005413533 34.65575065044686,102.56563703352003 35.18244113156106,102.90907671711466 35.6740189139382,103.36699512446648 36.0953712988412,103.84780801212764 36.46405463555129,104.35151516925544 36.76251257484546,104.85522070735169 37.00830146606313,105.3818202206021 37.21897765848553,105.95420898884186 37.13119591161376,105.74814927310217 36.95563241792843,105.22155099079828 36.65717447863426,104.67205524446035 36.288491141807754,104.09966179307958 35.902251455700025,103.57305797128356 35.445786372059956,103.13803608810122 34.971764939138666,102.77170093402674 34.462630807363894,102.42826094933844 33.93594032624969,102.06192413598183 33.40924984513549,101.71848259569379 32.900115713477135,101.35214412308414 32.39098158170236,101.00870102721092 32.02229824493406,100.57367202528985 32.285643485491164,100.02415998069046 32.70699587033596,99.45174955188122 33.05812285776483,98.85644048784161 33.461918893270195,98.28402579356043 33.79548953124322,97.6887122932676 34.11150381999323,97.07049972612003 34.37484906055033,96.45228472001327 34.58552525297273,95.78827329292835 34.70841969852336,95.12425905217242 34.813757794792764,94.43734480752028 34.86642684292747,93.77332484202634 34.901539541606326,93.13219944667071 34.91909589100396,92.49107142795401 34.95420858974103,91.84994078609452 34.989321288478095,91.18590985583432 35.02443398727337,90.52187611143745 35.077103035349865,89.83494169032201 35.11221573408693,89.14800425761496 35.12977208342636,88.48396187667095 35.164884782163426,87.88861114256724 35.164884782163426,87.24746166828845 35.18244113156106,86.56051289156312 35.21755383029813,85.8735611030861 35.25266652897699,85.23240338319738 35.25266652897699,84.5683444072638 35.28777922777226,83.90428261697525 35.30533557711169,83.28601566146244 35.34044827584876,82.6448473528144 35.37556097464403,81.95787839617697 35.4106736733811,81.29380554168893 35.42823002266232,80.60683066119964 35.445786372059956,79.91985276860942 35.516011769592296,79.23287186371454 35.60379351640586,78.54588794658775 35.7266879620729,77.88180062995525 35.867138757021166,77.1948107885546 35.972476853232365,76.4849181210302 36.06025860004593,75.91242169130419 36.11292764818063,75.3857231283182 36.11292764818063,74.74452248767193 36.13048399752006,74.0117185421841 36.16559669631533,73.3247117301944 36.2007093950524,72.59190114350349 36.23582209373126,71.88198761886451 36.288491141807754,71.21787205433066 36.32360384060303,70.5308529905742 36.358716539340094,69.88963247950596 36.37627288873773,69.22550846896775 36.4113855874748,68.56138164311415 36.446498286153655,67.8743509293563 36.48161098494893,67.21021837535955 36.48161098494893,66.50028046278749 36.55183638242306,65.85904345379095 36.58694908116013,65.21780381996359 36.60450543049956,64.57656156136363 36.639618129236624,63.93531667784555 36.65717447863426,63.294069169438444 36.692287177429534,62.62991719706042 36.76251257484546,61.965762408828596 36.83273797231959,61.30160480475752 36.85029432165902,60.614542251089006 36.867850671114866,59.92747668387892 37.21897765848553,59.492333599351696 37.324315754754934,59.263310437701875 36.938076068589,59.05718930598232 36.83273797231959,58.46172673521505 36.85029432165902,57.820456819812534 36.8854070205125,57.15628163992369 36.920519719133154,56.4921036438318 36.95563241792843,55.80501999463013 37.060970514139626,55.1408362689981 37.09608321287669,54.45374669255398 37.13119591161376,53.7437509639858 37.35942845343379,53.12536496533721 38.02656972955447,53.010848771751625 38.69371100561693,53.010848771751625 39.36085228162119,52.96504227082187 40.027993557741866,52.91923575660621 40.71269118314376,52.896332494477974 41.379832459264435,52.873429228915484 42.06453008466633,52.873429228915484 42.76678405946586,52.896332494477974 43.43392533558654,52.850525960093364 44.0483975635143,52.827622687866096 44.6804261408397,52.896332494477974 45.347567416902166,52.896332494477974 46.03226504230406,52.896332494477974 46.7345190171618,52.896332494477974 47.38410394388484,53.010848771751625 47.506998389493674,53.67504152908805 47.6298928350443,54.40794061362976 47.70011823246023,55.1179333315813 47.717674581857864,55.73631146394473 47.73523093119729,56.33178439520998 47.717674581857864,57.01886573382944 47.70011823246023,57.705944058689056 47.64744918438373,58.37011690803047 47.5772237869096,59.0342869412998 47.331434895750135,59.58394277023035 47.29632219701307,59.95037891804532 47.48944204003783,60.17940107516188 47.96346347301733,60.22520546632586 48.56037935160566,60.29391202809347 48.964175387169234,60.40842289729335 48.89394998975331,60.79775922675617 48.771055544086266,60.614542251089006 48.82372459222097,60.019085600288236 48.87639364035567,59.33201742132951 49.262633326405194,58.873970294502215 49.92977460252587,59.05718930598232 50.43890873424243,59.56104048258567 50.93048651656136,60.0648900383967 51.43962064839434,60.56873797370645 51.9487547801109,61.04968221834861 52.45788891176926,61.53062498634972 52.96702304354403,62.03446820714453 53.476157175318804,62.538309807438054 53.96773495763773,63.01924800511915 54.4768690894125,63.50018472629017 54.986003221187275,63.98111997092201 55.4775810035062,64.4849553101376 56.00427148467861,64.94298603055358 56.601187363266945,65.30940964265028 57.23321594053414,65.63002960017184 57.83013181912247,66.06515563580615 58.427047697710805,66.45447790631442 59.041519925696775,66.79799675331742 59.67354850296397,67.14151484704053 60.30557708040578,67.41632877962547 60.972718356351834,67.66824112769973 61.62230328307487,67.92015307067777 62.307000908534974,68.12626254089992 62.99169853399508,68.33237173994712 63.62372711126227,68.42397574138886 63.86951600253815,67.8743509293563 63.86951600253815,67.14151484704053 63.85195965314051,66.40867533652636 63.85195965314051,65.67583239766827 63.816846954403445,64.94298603055358 63.816846954403445,64.21013623508043 63.816846954403445,63.47728301108873 64.3786501341965,63.15665864753828 65.11601680779131,63.15665864753828 65.81827078259084,63.110855113453 66.5380811067298,63.01924800511915 67.25789143092697,62.99634621969017 67.48612397274701,62.58411350901588 67.36322952713817,61.89705658040475 67.20522238279227,61.187094588414766 66.99454619042808,60.52293368289247 67.13499698531814,59.97328114879201 67.41589857521467,59.629747335551656 67.62657476769527,59.904574446423794 67.64413111709291,60.17940107516188 67.57390571956057,60.454227221620386 67.59146206895821,60.72905288594484 67.78458191204118,61.0954863550578 67.97770175506594,61.32450683793286" stroke="#4DD2FF" stroke-linecap="round" stroke-linejoin="round" stroke-width="0.5"><title>2025-07-19 11.7km</title><desc>9223370283976387008</desc></polyline><polyline fill="none" points="179.82256343471818,105.52526424296957 179.61187095055357,105.17545810449519 179.1521782579366,105.12548574058746 179.05640894698445,104.62576129745867 178.84571646281984,104.07606272226258 178.76910101401154,103.4514031042927 178.71163942746352,102.85172772288206 178.17533128603827,102.55188924315735 177.524099971517,102.52690267944126 176.85371479485184,102.47692954096419 176.18332961807027,102.42695638792065 175.8002523741452,102.00218399720325 175.78109851188492,101.37751679871872 175.76194464962464,100.72786049015122 175.7427907875972,100.05321478645783 175.7427907875972,99.37856641941471 175.7236369253369,98.72890251160425 175.7427907875972,98.05424891639268 175.70448306319304,97.37959265767131 175.83856009854935,96.72992115041416 175.83856009854935,96.03027214969916 175.7427907875972,95.35560790037562 175.68532920104917,94.6809409873822 175.57040602783673,94.0562470263394 175.47463671688456,93.45653867530928 175.41717513033655,92.83184023817012 175.34055968152825,92.20713951735524 175.26394423260354,91.55744834516372 175.18732878391165,90.90775470271183 175.12986719736364,90.23307022878726 175.05325174855534,89.58337155102345 174.95748243760318,88.90868184792635 174.88086698879488,88.23398948085378 174.84255926450714,87.5592944498203 174.88086698879488,86.8845967547677 174.84255926450714,86.20989639560867 174.88086698879488,85.58517146552913 174.70848222915083,84.93545511523553 174.61271291808225,84.28573629452148 174.53609746939037,83.66100432940584 174.47863588284235,83.03627008007606 174.42117429617792,82.41153354659036 174.3637127096299,81.76180512869905 174.32540498534217,81.16205362699111 174.2870972608216,80.51232045787037 174.24878953641746,79.8625848180236 174.19132794998586,79.21284670745081 174.1530202255817,78.56310612609377 174.09555863891728,77.88837290722586 174.03809705236927,77.23862728930544 173.98063546582125,76.58887920044072 173.9423277414171,75.9391286407481 173.8848661548691,75.28937561009661 173.8657122926088,74.61462946292886 173.82740456820466,73.96487139530655 173.71248139510863,73.31511085668171 173.21448097808752,72.9902296608052 172.56324966344982,73.04021142338752 171.95032607321627,73.09019317144703 171.27994089655112,73.16516576606955 170.6478634441737,73.2151474776183 170.0157859917963,73.26512917442597 169.40286240167916,73.2901200173801 168.7899388114456,73.39008335267135 168.19616908347234,73.44006499832904 167.5832454932388,73.4900466294639 166.9511680409778,73.4650558156427 166.31909058848396,73.4650558156427 165.70616699836683,73.44006499832904 165.05493568384554,73.39008335267135 164.40370436932426,73.36509252432734 163.77162691683043,73.34010169237445 163.12039560230915,73.2901200173801 162.46916428767145,73.31511085668171 161.81793297303375,73.2401383278775 161.16670165862888,73.14017490486731 160.97516303660814,72.56538408776396 160.89854758791625,71.9406092670979 160.89854758791625,71.3158321618248 160.89854758791625,70.64107032200263 160.89854758791625,69.91632315517927 160.87939372565597,69.19157291400188 160.8602398633957,68.49181114324892 160.87939372565597,67.79204650630709 160.87939372565597,67.11727074916416 160.8027782769641,66.4175004823046 160.51547034399118,65.81769511512539 160.2281624111347,65.21788764213852 159.8642390294699,64.66806227523193 159.53862337220926,64.16821949712175 159.1555461282842,63.693367503394256 158.81077660876326,63.06856023748696 158.40854550269432,62.59370518718788 157.75731418817304,62.74365955623216 157.18269832234364,63.11854490287078 156.5889285944868,63.41845258792455 155.9951588663971,63.6683752566023 155.3630814140197,63.89330534580222 154.7310039617587,64.0182663785381 154.079772647121,64.09324295434635 153.44769519474357,64.16821949712175 152.777310017962,64.16821949712175 152.12607870344073,64.19321167074668 151.45569352665916,64.21820384079183 150.80446221202146,64.24319600709714 150.1340770353563,64.24319600709714 149.48284572083503,64.24319600709714 148.8507682683412,64.29318032877927 148.19953695381992,64.31817248411244 147.56745950132608,64.34316463583673 146.93538204906508,64.39314892828406 146.26499687228352,64.34316463583673 145.61376555776224,64.36815678392304 144.9816881052684,64.44313320610672 144.3496106530074,64.51810959538852 143.71753320051357,64.54310171787802 143.08545574825257,64.56809383665677 142.45337829587515,64.56809383665677 141.82130084349774,64.5930859518412 141.18922339112032,64.54310171787802 140.5571459387429,64.44313320610672 139.96337621076964,64.24319600709714 139.4079142070841,63.91829755969229 138.909913790063,63.46843715086288 138.4885288218502,62.91860615370388 138.1437593024457,62.36877338687191 137.77983592066448,61.81893885041063 137.4159125391161,61.244109943072544 137.05198915745132,60.694271786967875 136.6880657756701,60.14443186119024 136.32414239412174,59.56959731937968 135.96021901245695,59.01975377376948 135.59629563067574,58.44491544754419 135.23237224912737,57.89506828204321 134.86844886734616,57.320226171272225 134.50452548568137,56.77037538586592 134.1214482418727,56.19552949050558 133.75752486020792,55.64567508500477 133.412755340687,55.095818909598165 133.06798582116608,54.52096737929969 132.72321630176157,53.92112024189555 132.37844678224064,53.32127099802892 132.01452340069227,52.746413496206515 131.6889077433152,52.19654798861302 131.3441382237943,51.64668071109918 130.99936870438978,51.09681166349037 130.635445322725,50.54694084599032 130.27152194094379,49.99706825843896 129.907598559279,49.44719390079263 129.52452131547034,48.92231218099187 129.17975179606583,48.3724343636859 128.8349822765449,47.79756020756031 128.47105889488012,47.2726734187745 128.1071355130989,46.67280082816433 127.72405826940667,46.09792095195735 127.3409810254816,45.49804423574824 126.95790378167294,44.898165412960225 126.57482653774787,44.323279564181576 126.21090315608308,43.77338694181526 125.84697977441829,43.198497307515936 125.48305639263708,42.67359638627386 125.13828687323257,42.12369845311332 124.79351735382807,41.573798749552225 124.42959397216327,41.048892835679 124.08482445264235,40.52398530874052 123.72090107097756,39.94908473780379 123.31866996490862,39.374182231971645 122.95474658324383,38.79927779108402 122.57166933943518,38.22437141514092 122.16943823336624,37.64946310414234 121.8246687137289,37.07455285800097 121.47989919432439,36.549633117218036 121.13512967491988,35.9997154679877 120.79036015539896,35.44979604819673 120.44559063599445,34.874878398142755 120.06251339206938,34.32495535668568 119.43043593969196,34.099986329470994 119.60282069945242,34.824885467474815 120.04335952992551,35.474792423905456 120.63712925789878,36.37465951178456 121.02020650170743,36.97456826984126 121.46074533218052,37.64946310414234 121.86297643824946,38.27436335067614 122.24605368217453,38.8492695583991 122.62913092598319,39.42417383102293 122.99305430764798,39.999076168678585 123.37613155145664,40.57397657127876 123.75920879538171,41.148875038910774 124.14228603919037,41.74876702915935 124.52536328311544,42.32366154275951 124.88928666478023,42.87355883221608 125.27236390858889,43.4734447652736 125.67459501465783,44.07332859162125 126.0576722585829,44.62322024839523 126.44074950239155,45.22310003679013 126.80467288405634,45.772987992240814 127.16859626572113,46.347868961980566 127.53251964738593,46.92274799695588 127.89644302905072,47.49762509716675 128.27952027285937,48.122489316156134 128.66259751678444,48.697362378792604 129.02652089844923,49.2472391500778 129.332982693566,49.72213130084856 129.67775221297052,50.24701056306367 129.92675242153928,50.64691748992482 130.30982966546435,51.22178205703676 130.71206077141687,51.821638673209236 131.09513801534194,52.42149318290467 131.45906139700674,53.046339390668436 131.82298477867153,53.64618959992367 132.16775429819245,54.27103132804041 132.53167767985724,54.820890158225666 132.85729333700147,55.445727589627495 133.22121671878267,55.99558263874496 133.60429396259133,56.5704292068549 133.9873712065164,57.145273840636946 134.37044845032506,57.74510965702939 134.75352569425013,58.34494336726493 135.15575680020265,58.94477497135813 135.57714176841546,59.56959731937968 135.9793728746008,60.169424623440136 136.38160398066975,60.81923515962262 136.7838350867387,61.41905807609146 137.16691233054735,61.99388639492099 137.549989574356,62.59370518718788 137.93306681828108,63.16852955360082 138.33529792435002,63.693367503394256 138.83329834137112,64.19321167074668 139.4079142070841,64.5930859518412 140.0591455217218,64.89299104835663 140.74868456076365,65.06793544483662 141.4956851862371,65.117919525248 142.30014739825856,65.09292748683947 143.08545574825257,65.09292748683947 143.87076409813017,65.06793544483662 144.67522631026804,65.06793544483662 145.46053466014564,65.14291155993124 146.24584301013965,65.117919525248 147.01199749787338,65.117919525248 147.7781519856071,65.04294339921034 148.52515261108056,65.06793544483662 149.25299937441014,65.06793544483662 149.98084613785613,65.04294339921034 150.7086929010693,65.04294339921034 151.45569352665916,65.04294339921034 152.2218480143929,64.99295929679647 152.98800250212662,64.99295929679647 153.73500312760007,64.96796724019805 154.5011576153338,64.942975179918 155.26731210306752,65.09292748683947 155.91854341770522,65.41782370045257 156.37823611032218,66.01763047152781 156.5697747322265,66.71740237620543 156.53146700782236,67.41717141473782 156.41654383472633,68.14192918306799 156.26331293710973,68.841692386879 156.14838976389728,69.56644411232264 156.03346659080125,70.31618404114852 155.97600500425324,71.04092951169878 155.95685114199296,71.76567190795322 155.95685114199296,72.49041122988274 156.3590822480619,72.96523877393338 157.1443905980559,73.06520229927264 157.89139122352935,73.11518403996888 158.6383918490028,73.26512917442597 159.40454633673653,73.34010169237445 160.1515469623264,73.39008335267135 160.89854758791625,73.41507417733374 161.62639435112942,73.4650558156427 162.39254883897956,73.4900466294639 163.139549464453,73.54002824585768 163.90570395218674,73.590009847685 164.6527045777766,73.66498222298105 165.41885906551033,73.63999143490219 166.1467058288399,73.73995456540433 166.5106292105047,74.31474143110972 166.58724465919659,75.06446052379033 166.66386010800488,75.78918585300562 166.75962941895705,76.48891773671494 166.7979371433612,77.16365648209467 166.83624486776534,77.93835323712847 166.89370645431336,78.71304647956276 166.9511680409778,79.48773620961583 167.0086296275258,80.26242242722947 167.06609121407382,81.01211542262172 167.10439893847797,81.76180512869905 167.18101438728627,82.53648103598971 167.25762983597815,83.28616405390494 167.33424528478645,84.06083305021457 167.33424528478645,84.81050938009867 167.37255300907418,85.63514954407583 167.46832232002635,86.45978572820604 167.54493776883464,87.28441793267848 167.6407070797868,88.10904615758045 167.71732252871152,88.90868184792635 167.793937977287,89.6583369091095 167.83224570180755,90.40798868151614 167.94716887490358,91.13264893539599 168.02378432371188,91.88229424000019 168.0812459102599,92.63193625601707 168.1387074968079,93.35658707881521 168.21532294573262,94.13121042223065 168.2919383944245,94.9308179323998 168.33024611882865,95.68044657509017 168.40686156752054,96.43007192945515 168.52178474073298,97.05475721275434 168.56009246513713,97.80437653847912 168.63670791394543,98.57897972062347 168.69416950049344,99.35357939166715 168.75163108704146,100.10318863356952 168.8090926737059,100.85279458739387 168.8665542602539,101.60239725321298 168.9431697089458,102.37698322033975 169.0197851577541,103.12657920054335 169.5177855747752,103.5013759577414 170.26478620024864,103.42641667203861 170.99263296369463,103.30148445619852 171.75878745142836,103.17655214901606 172.5249419391621,103.07660623750417 173.2910964267794,102.92668726063857 174.076404776657,102.8017546794581 174.861713126651,102.67682200697891 175.49379057902843,102.72679508701549 176.12586803140584,102.60186235957372 176.70048389711883,102.5768758031918 177.42833066056482,102.5768758031918 178.19448514829855,102.60186235957372 178.74994715186767,102.8767142391589 178.74994715186767,103.55134879659454 178.99894736032002,104.2509670061554 179.17133212008048,105.000554766797 179.63102481269743,104.97556856105803 179.84171729697846,104.50082995835692 179.97579433221836,104.40088482132705 179.99494819447864,104.8006650187599 180.05240978102665,105.225430453851 180.10987136757467,105.55025036836741 180.3780254382873,105.40033356142521 180.62702564685605,105.72515314351767 180.2247945406707,106.0" stroke="#4DD2FF" stroke-linecap="round" stroke-linejoin="round" stroke-width="0.5"><title>2025-07-17 10.3km</title><desc>9223370284149596391</desc></polyline><polyline fill="none" points="84.6025492468616,175.8656802190526 84.76940903824288,176.13776439292997 84.95712630369235,176.46426487639837 85.35341830831021,176.40984816891432 85.64542294328567,176.79076478708885 85.81228273466695,177.552595684494 86.0,178.28721538197715 85.45770567795262,178.88579225070134 84.89455388183706,178.91300024450175 84.20625724224374,178.99462420190684 83.41367323300801,178.99462420190684 82.74623406725004,178.99462420190684 82.05793742765673,178.99462420190684 81.43221320980228,178.6681281575875 81.30706836620811,177.9063018267625 81.26535341830458,177.1716806256445 81.24449594446924,176.491473224145 81.22363847051747,175.75684643811837 81.22363847051747,175.0494253107463 81.2027809965657,174.36921015231928 81.18192352261394,173.66178375008167 81.1610660487786,172.92714579377207 81.24449594446924,172.21971390975523 81.2027809965657,171.51227933641348 81.2027809965657,170.8320512490027 81.18192352261394,170.15182067522255 81.1610660487786,169.44437824076158 81.14020857471041,168.76414259440207 81.14020857471041,168.05669488459534 81.14020857471041,167.34924448524544 81.11935110087506,166.66900118035846 81.18192352261394,165.96154550547362 81.18192352261394,165.2540871409292 81.14020857471041,164.51941599258862 81.07763615297154,163.83916234309436 80.9942062572809,163.1589062067942 80.88991888763849,162.47864758377546 80.8273464657832,161.82559696608223 80.76477404404432,161.1725440564478 80.63962920045014,160.4650674846489 80.59791425254662,159.75758822308853 80.53534183080774,159.02289537357865 80.4519119351171,158.34262163013045 80.34762456547469,157.60792319384927 80.26419466978405,156.90043306909502 80.22247972188052,156.1929402543028 80.24333719583228,155.51265616464661 80.22247972188052,154.7779465543572 80.1807647740934,154.07044566930563 80.09733487840276,153.3629420940124 79.97219003480859,152.68264765774074 79.93047508690506,151.97513880550105 79.84704519121442,151.29483929516573 79.74275782157201,150.61453729747154 79.72190034762025,149.9070205813332 79.65932792588137,149.22671350932796 79.59675550402608,148.51919151590846 79.57589803019073,147.7844542903913 79.51332560833544,147.10413945751498 79.45075318659656,146.36939664412057 79.40903823880944,145.66186378514976 79.36732329090592,144.9543282356899 79.30475086905062,144.24678999561002 79.24217844731174,143.5392490648228 79.17960602545645,142.83170544335735 79.13789107766934,142.12415913121367 79.09617612988222,141.4438236012502 79.09617612988222,140.76348558350583 78.97103128617164,140.16478606993041 78.34530706843361,140.08314507786417 77.63615295488853,140.1919997259538 76.96871378913056,140.273640670217 76.25955967558548,140.32806794646604 75.57126303599216,140.3824952068826 74.86210892244708,140.40970883108093 74.17381228285376,140.46413606748683 73.50637311709579,140.60020408903074 72.81807647738606,140.65463126968825 72.10892236384097,140.65463126968825 71.42062572424766,140.65463126968825 70.73232908453792,140.65463126968825 70.04403244506102,140.65463126968825 69.33487833151594,140.60020408903074 68.66743916575797,140.57299049269932 67.97914252616465,140.60020408903074 67.31170336040668,140.54577689236612 66.76940903824288,140.4913496797526 66.10196987260133,140.46413606748683 65.4136732328916,140.3824952068826 65.07995365001261,139.8654355907056 65.01738122839015,139.21230560047843 64.95480880641844,138.5863872083719 64.89223638479598,138.0148946633999 64.89223638479598,137.388972242843 64.89223638479598,136.73583355879236 64.87137891084421,136.05547832477896 64.85052143689245,135.34790624200832 64.91309385863133,134.66754593227233 64.91309385863133,133.98718313446443 64.89223638479598,133.3068178485555 64.70451911934651,132.65366483319667 64.37079953646753,132.05493922141613 64.05793742765673,131.42899674874207 63.76593279268127,130.88469723456365 63.453070683637634,130.5309016963729 63.11935110075865,130.09546011038765 62.74391657009255,129.46951104485197 62.32676709163934,128.897990493424 61.721900347736664,128.84355987311574 61.11703360371757,129.22457388060866 60.49130938586313,129.57837190311693 59.86558516800869,129.9049540959968 59.19814600236714,130.14989036429324 58.50984936277382,130.34039612786728 57.96755504061002,130.42204139543173 57.36268829670735,130.5309016963729 56.653534183162265,130.5581167616474 55.923522595549,130.5581167616474 55.19351100816857,130.585331823022 54.463499420671724,130.585331823022 53.73348783317488,130.61254688032204 53.00347624567803,130.61254688032204 52.2734646582976,130.61254688032204 51.585168018587865,130.63976193369308 50.87601390504278,130.63976193369308 50.1668597914977,130.66697698301869 49.49942062573973,130.66697698301869 48.81112398614641,130.69419202837162 48.143684820388444,130.74862210726133 47.497103128698654,130.80305217015848 46.85052143689245,130.88469723456365 46.18308227113448,130.93912725771952 45.51564310537651,130.9663422632584 44.84820393973496,130.9663422632584 44.180764774093404,130.9663422632584 43.513325608335435,130.91191224812064 42.84588644269388,130.80305217015848 42.19930475088768,130.585331823022 41.615295480936766,130.25875082459243 41.07300115877297,129.79609342868207 40.63499420625158,129.27900438942015 40.28041714953724,128.70748325271416 39.904982618871145,128.1631757759751 39.52954808808863,127.59165121130354 39.154113557422534,127.04734046976955 38.7995365007082,126.47581247707421 38.42410196992569,125.87706698229886 38.04866743925959,125.30553539427638 37.673232908477075,124.73400205033249 37.29779837781098,124.16246695039445 36.92236384714488,123.59093009457865 36.546929316362366,123.01939148281235 36.19235225953162,122.47506736284413 35.837775202817284,121.93074165013968 35.46234067203477,121.35919793763605 34.92004634998739,120.97816782031441 34.19003476249054,121.05981719690317 33.52259559673257,121.11425009461527 32.834298957139254,121.19589941149752 32.29200463509187,121.60414545801177 31.874855156522244,122.12125583074521 31.666280417121015,122.77444582594035 31.37427578214556,123.40041741909226 31.061413673334755,123.99917088499933 30.748551564407535,124.59792242391268 30.47740440326743,125.22388788122043 30.14368482050486,125.84985123224033 29.872537659364752,126.5030281355721 29.580533024389297,127.15620274550747 29.288528389297426,127.80937506201735 28.99652375432197,128.43532971348031 28.41251448437106,128.84355987311574 27.68250289687421,128.95242109776882 26.994206257280894,129.0068516862084 26.326767091522925,129.0068516862084 25.638470451929606,129.08849753896357 24.95017381233629,129.08849753896357 24.22016222483944,129.08849753896357 23.531865585246123,129.14292808757455 22.843568945652805,129.19735862026573 22.134414832107723,129.17014335596468 21.487833140301518,129.3062196378014 21.008111239876598,129.71444788653753 20.6326767092105,130.28596592969552 20.257242178427987,130.88469723456365 19.881807647645473,131.4562116827001 19.548088064882904,132.05493922141613 19.17265353410039,132.59923531181994 18.818076477386057,133.19795917189913 18.46349942055531,133.76946651370963 18.12977983779274,134.39540111180395 17.754345307010226,134.9941191914695 17.399768250412308,135.59283534441784 17.00347624567803,136.19154957063438 16.607184241060168,136.81747601968527 16.23174971039407,137.41618630492303 15.87717265356332,138.06932260045141 15.522595596848987,138.69524273219577 15.126303592231125,139.34837453748332 14.688296639709733,139.9470766782324 14.31286210892722,140.54577689236612 14.0,141.00840755642275 14.250289687188342,140.65463126968825 14.604866743902676,140.055931405921 14.98030127468519,139.45722961546562 15.314020857564174,138.83131204736128 15.689455388230272,138.23260631613084 16.023174971109256,137.66111268449458 16.41946697572712,137.08961729727162 16.69061413675081,136.49090596115275 17.066048667533323,135.9466212563566 17.44148319819942,135.40233495931898 17.81691772886552,134.83083263352455 18.192352259648032,134.25932855221618 18.546929316362366,133.71503731870325 18.859791425406,133.17074449280335 19.17265353410039,132.59923531181994 19.464658169192262,131.9732946704462 19.777520278119482,131.34735192314838 20.236384704592638,130.74862210726133 20.611819235258736,130.231535715473 21.07068366173189,129.55115669454972 21.821552723064087,129.22457388060866 22.5724217845127,129.1157128153136 23.34414831979666,129.08849753896357 24.095017381361686,129.08849753896357 24.825028968742117,129.06128225864086 25.5341830822872,129.0068516862084 26.222479721996933,128.95242109776882 26.931633835542016,128.95242109776882 27.6407879490871,128.897990493424 28.34994206263218,128.87077518523438 28.871378910844214,128.46254508530546 29.184241019771434,127.86380598490359 29.51796060265042,127.21063385948946 29.830822711461224,126.5846750872006 30.164542294340208,125.90428272844292 30.498261877219193,125.27831956054433 30.811123986146413,124.65235428641608 31.144843569025397,123.99917088499933 31.457705677952617,123.34598519022984 31.791425260715187,122.7200134138402 32.10428736964241,122.09403953119181 32.58400927006733,121.71301091904752 33.25144843570888,121.65857819649682 33.91888760146685,121.63136182923336 34.5863267671084,121.63136182923336 35.08690614136867,121.95795797363098 35.483198145986535,122.50228360663459 35.79606025503017,123.10103996339603 36.2132097335998,123.64536225168558 36.56778679031413,124.21689894031442 36.98493626888376,124.84286567980598 37.381228273618035,125.46883031292236 37.77752027811948,126.09479283980909 38.19466975668911,126.72075326032063 38.59096176142339,127.34671157473349 39.0081112398766,127.97266778280027 39.425260718446225,128.5714065328939 39.82155272306409,129.19735862026573 40.217844727798365,129.74166307125415 40.676709154155105,130.25875082459243 41.23986095015425,130.74862210726133 41.86558516812511,131.1568471907376 42.57473928167019,131.37456686905352 43.325608343002386,131.53785646049073 44.15990730014164,131.53785646049073 45.01506373123266,131.53785646049073 45.80764774046838,131.53785646049073 46.60023174970411,131.51064153856714 47.39281575893983,131.53785646049073 48.18539976829197,131.59228629249264 48.95712630369235,131.59228629249264 49.72885283885989,131.56507137852896 50.479721900308505,131.53785646049073 51.230590961757116,131.53785646049073 51.98146002332214,131.48342661267088 52.711471610702574,131.48342661267088 53.46234067203477,131.4562116827001 54.19235225964803,131.48342661267088 54.943221321096644,131.4562116827001 55.69409038242884,131.4562116827001 56.44495944387745,131.42899674874207 57.21668597927783,131.40178181089868 57.98841251456179,131.40178181089868 58.76013904984575,131.53785646049073 59.42757821560372,131.78279057901818 59.949015063699335,132.29987265916134 60.241019698791206,132.98024162753427 60.26187717274297,133.68782271526288 60.17844727693591,134.4226156117511 60.03244495950639,135.13019121365505 59.86558516800869,135.8649784134177 59.7612977984827,136.62697688852495 59.69872537662741,137.388972242843 59.65701042872388,138.1509644762118 59.615295480936766,138.91295358871866 59.677867902675644,139.67493958040723 60.09501738124527,140.16478606993041 60.78331402083859,140.30085431034968 61.680185399833135,140.3824952068826 62.451911935117096,140.46413606748683 63.22363847051747,140.51856328808935 63.99536500580143,140.60020408903074 64.74623406725004,140.62741768136038 65.43453070684336,140.65463126968825 66.14368482050486,140.68184485420352 66.89455388183706,140.7362720109959 67.66628041723743,140.79069915192667 68.41714947856963,140.84512627696677 69.18887601397,140.9267669346591 69.9397450753022,140.8995533860725 70.69061413675081,140.9539804791566 71.1286210892722,141.4710370702087 71.19119351101108,142.17858586614602 71.25376593286637,142.9133452293463 71.31633835460525,143.6753148373973 71.35805330250878,144.4100682897988 71.39976825029589,145.14481884062116 71.48319814610295,145.85235366575944 71.52491309389006,146.58709852096217 71.54577056784183,147.3218404747313 71.6083429895807,148.08379202880315 71.670915411436,148.81852807226824 71.71263035933953,149.55326121434337 71.77520278096199,150.28799145511584 71.81691772886552,151.04993086251488 71.87949015072081,151.78465519328893 71.92120509850793,152.51937662290584 72.00463499431498,153.22688340574678 71.9837775202468,153.96159914051532 72.08806489000563,154.69631197417038 72.15063731162809,155.43102190674108 72.25492468138691,156.16572893834382 72.33835457707755,156.87322185668745 72.40092699893285,157.6351342988055 72.46349942067172,158.34262163013045 72.54692931647878,159.05010627156298 72.60950173821766,159.78479901362152 72.69293163379189,160.49227817181963 72.75550405564718,161.25417579548957 72.79721900355071,161.96164936707646 72.88064889924135,162.6963306137186 72.94322132098023,163.43100895975658 72.98493626888376,164.1928945511463 73.04750869062264,164.9275669886556 73.0683661645744,165.66223652564804 73.19351100816857,166.36969333840534 73.31865585176274,167.04993773750903 73.36037079954986,167.75738927465864 73.44380069535691,168.46483812236693 73.52723059093114,169.1994936944393 73.52723059093114,169.90693705988815 73.58980301278643,170.6143777359248 73.65237543452531,171.32181572254922 73.7149478563806,172.05646001617424 73.77752027811948,172.76389252081572 74.0903823870467,173.28086072736187 74.77867902664002,173.33527834984125 75.50869061425328,173.2264430890791 76.23870220163371,173.09039892358123 76.98957126308233,172.98156351968646 77.74044032441452,172.87272805206885 78.47045191191137,172.76389252081572 79.2213209734764,172.62784801724774 79.97219003480859,172.51901234284742 80.66048667440191,172.46459448165842 81.14020857471041,172.49180341423198 81.82850521442015,172.3829676601017 82.57937427586876,172.3829676601017 83.35110081115272,172.4101766046224 84.10196987260133,172.43738554515585 84.45654692931566,172.87272805206885 84.47740440326743,173.58015745380544 84.64426419464871,174.28758416626079 84.85283893404994,175.02221675217152 85.37427578214556,175.02221675217152" stroke="#4DD2FF" stroke-linecap="round" stroke-linejoin="round" stroke-width="0.5"><title>2025-07-16 10.8km</title><desc>9223370284236551571</desc></polyline><polyline fill="none" points="147.61760775995208,134.2096590799847 147.53981536021456,133.7529956123035 147.6078837099485,133.34707051208534 148.08436215802794,133.30901493654528 148.56084060599096,133.33438532207947 149.05676715396112,133.34707051208534 149.55269370193128,133.3851260708543 150.05834429973038,133.42318161301228 150.57371894764947,133.42318161301228 151.08909359545214,133.42318161301228 151.59474419342587,133.3851260708543 152.0712226414471,133.42318161301228 152.54770108946832,133.41049643418228 153.0339035874349,133.42318161301228 153.5201060853433,133.42318161301228 153.9965845333645,133.42318161301228 154.47306298144395,133.42318161301228 154.9398173794616,133.41049643418228 155.43574392743176,133.3978112534387 155.7760856760433,133.62614422247862 155.75663757609436,134.0828083578308 155.73718947620364,134.55215510338166 155.70801732636755,135.0088143647954 155.70801732636755,135.5035258523567 155.746913526149,135.9728649126264 155.75663757609436,136.4675709034418 155.7760856760433,136.97495873321895 155.78580972598866,137.49502817941539 155.76636162603972,138.02777901414083 155.7760856760433,138.53515772035462 155.76636162603972,139.04253345963662 155.7760856760433,139.5625905134657 155.76636162603972,140.08264445032546 155.76636162603972,140.5900111410083 155.81498187582474,141.08469080810028 155.83442997577367,141.63010358245083 155.83442997577367,142.17551292867574 155.83442997577367,142.72091884676047 155.84415402577724,143.2536375969139 155.84415402577724,143.7863530766772 155.8538780756644,144.34443245259172 155.87332617567154,144.8898247387042 155.94139452534728,145.37179646399454 155.99973882507766,145.86644887230068 156.04835907486267,146.34841517341556 156.11642742459662,146.84306201493018 156.14559957449092,147.3377060369603 156.19421982427593,147.84503031023633 156.24284007406095,148.37771760522446 156.29146032390418,148.91040163052094 156.33035652368562,149.43039954902633 156.3692527235835,149.84893219588412 156.4178729733685,150.33087637981225 156.45676917320816,150.7367220377855 156.50538942299318,151.2186612916048 156.54428562283283,151.70059786915954 156.59290587261785,152.1825317704861 156.64152612246107,152.67714536013955 156.69014637218788,153.171756131007 156.7387666220311,153.67904630117846 156.78738687187433,154.19901564841712 156.8457311716047,154.71898188046907 156.88462737138616,155.25162698575878 156.92352357128402,155.75890499936213 156.96241977106547,156.2661800480564 156.97214382106904,156.78613389612292 157.00131597096333,157.2934029411772 157.03048812079942,157.78798740564525 157.040212170803,158.29525059548905 157.04993622069014,158.81519228839898 157.10828052047873,159.3351308667552 157.1180045704823,159.96919808864186 157.12772862042766,160.62862308595504 157.14717672031838,161.28804307359678 157.14717672031838,161.8333288947615 157.24441721988842,162.37861129047815 157.26386531983735,162.8731667801403 157.2735893697827,163.36771945210057 157.21524507005233,163.83690784400824 157.23469316994306,164.31877436350624 157.24441721988842,164.77527701978397 157.28331341978628,165.23177727543225 157.302761519677,165.70095559208858 157.3319336695713,166.20817254133 157.3611058194656,166.71538652692834 157.38055391935632,167.24795802227163 157.40000201924704,167.80588656058535 157.44862226909027,168.38917165307066 157.468070368981,168.8963728956369 157.4875184688717,169.3401715520522 157.50696656882064,169.7712880743784 157.47779441898456,170.16436303765659 157.468070368981,170.58279572029278 157.42917416919954,171.11534349045542 157.4388982190867,171.68592676189292 157.468070368981,172.1170316354619 157.45834631903563,172.82708205470408 157.44862226909027,173.3342573701375 157.4388982190867,173.76535405874165 157.4388982190867,174.22180704290076 157.42917416919954,174.7416533519645 157.42917416919954,175.28685467346804 157.42917416919954,175.83205257138616 157.40000201924704,176.3645681433336 157.32220961956773,176.87172279436345 157.23469316994306,177.35351696890575 157.09855647059157,177.8226297805013 156.97214382106904,178.26638280999032 156.82628307165578,178.7228121314256 156.61235397256678,179.21727452197956 156.40814892336493,179.7370909220408 156.21366792416666,180.23154753653944 156.0678071748116,180.6499317033231 155.98029072518693,181.08099206970655 155.92194642545655,181.52472844678414 155.90249832544941,181.99381872257072 155.90249832544941,182.4248724173376 155.91222237545298,182.88127987942426 155.91222237545298,183.33768494254036 155.92194642545655,183.8574766758902 155.93167047540192,184.37726529772772 155.92194642545655,184.8970508081402 155.98029072518693,185.35344527630514 156.07753122481517,185.7591272342397 156.2039438742795,185.87322494341788 156.22339197417023,185.37880045422207 156.23311602405738,184.88437314978364 156.27201222401345,184.4152984893808 156.27201222401345,183.95889909031393 156.27201222401345,183.50249729245115 156.2817362739588,183.00805930428032 156.27201222401345,182.43755043476995 156.2817362739588,181.81632540275314 156.3400805736892,181.15706132394553 156.51511347293854,180.5865402924901 156.68042232224252,180.09208569956536 156.86517927149544,179.6483420008808 157.0596602706937,179.19191754482017 157.254141269892,178.74816924556944 157.4388982190867,178.2917400574879 157.6236551683396,177.89870188946952 157.79868806758896,177.4803044652508 158.0028931167908,177.08726262399432 158.25571841571946,176.68154014738684 158.46964751480846,176.25045793857862 158.58633611432742,175.705262668067 158.63495636417065,175.08398946542002 158.65440446406137,174.45003263506078 158.65440446406137,173.7780333406845 158.66412851400673,173.09334946472518 158.63495636417065,172.54813436831319 158.62523231416708,172.20578825545817 158.65440446406137,171.60984920903138 158.65440446406137,171.15338249186607 158.644680414116,170.73495255941089 158.65440446406137,170.3418801796215 158.66412851400673,169.79664780317398 158.69330066390103,169.11193252644443 158.6738525639521,168.42721184908442 158.66412851400673,167.86928730398358 158.63495636417065,167.37476027766388 158.62523231416708,166.89291072174092 158.59606016427279,166.39837813324266 158.57661206438206,165.89116229536012 158.5668880144367,165.3966239999936 158.57661206438206,164.88940230878507 158.58633611432742,164.36949699940305 158.5668880144367,163.93835364934057 158.54743991448777,163.46916580579273 158.5377158646006,162.97461371179816 158.57661206438206,162.37861129047815 158.4307513149688,161.87137196377444 158.5377158646006,161.0217394508727 158.4599234648631,160.60326067869755 158.40157916513272,160.1340548076405 158.41130321507808,159.4492633085174 158.37240701523842,158.78982935124077 158.36268296529306,158.28256905188755 158.3237867653952,157.78798740564525 158.30433866550447,157.2807212511616 158.2751665156684,156.7480885982368 158.26544246566482,156.21545267663896 158.2459943657741,155.65744963382895 158.22654626588337,155.09944300349161 158.19737411598908,154.5287506934983 158.16820196603658,153.9453724535706 158.1098576663062,153.37467255489173 158.06123741652118,152.84201593029138 158.01261716679437,152.30935603654507 157.96399691689294,151.80205786027364 157.90565261716256,151.28207415211364 157.84730831743218,150.74940468400746 157.77923996769823,150.2040492224478 157.74034376785858,149.64600752826664 157.7306197179132,149.10064513287944 157.69172351807356,148.54259634340997 157.58475896849995,148.02259310521185 157.5458627686603,147.47722050776065 157.49724251887528,146.94452768522024 157.45834631903563,146.41183159274078 157.4097260692506,145.91718229319667 157.3611058194656,145.42253017410258 157.28331341978628,144.94055873055913 157.2735893697827,144.56005306843144 157.20552102010697,144.19222934239224 157.0596602706937,143.621465301454 157.0110400209087,143.0253299616088 157.0110400209087,142.594080567098 157.0110400209087,141.99793816910096 157.06938432063907,141.4905797106985 157.23469316994306,141.05932268864854 157.23469316994306,140.62806352318876 157.14717672031838,140.14606544889102 157.12772862042766,139.6386961623357 157.1180045704823,139.10595521848882 157.10828052047873,138.585895427801 157.10828052047873,138.06583252004202 157.1180045704823,137.5330819189694 157.12772862042766,136.97495873321895 157.12772862042766,136.4041472160825 157.17634887021268,135.82064711718704 157.18607292015804,135.2878827302411 157.23469316994306,134.79317001310847 157.254141269892,134.29845447512344 157.28331341978628,133.79105099307344 157.32220961956773,133.27095934435056 157.40000201924704,132.76354985318903 157.45834631903563,132.26882274206582 157.4875184688717,131.7867782279427 157.44862226909027,131.279360056491 157.3319336695713,130.75925335077773 157.1957969701616,130.213772236355 157.0596602706937,129.68097341817338 156.8749033214408,129.09742810102034 156.69987042219145,128.6153659654301 156.4178729733685,128.0571854093214 156.2039438742795,127.57511749336118 155.98029072518693,127.10573300122633 155.76636162603972,126.63634596942575 155.5038122771657,126.14158391623641 155.24126292823348,125.60876008787454 154.97871357935946,125.11399217401049 154.70644018048188,124.63190790263616 154.4827870313893,124.14982095218147 154.24940983235138,123.65504471721215 154.04520478320774,123.1602656601608 153.82155163417337,122.74160425382433 153.61734658497153,122.27219360751042 153.39369343593717,121.79009354289883 153.17976433684817,121.33336469432834 152.96583523770096,120.87663344094472 152.7130099387141,120.41989978271158 152.45046058984008,119.975850864932 152.1976352908532,119.56986129364668 151.92536189203383,119.13849529209983 151.64336444315268,118.71981447438884 151.3710910443333,118.28844424545969 151.10854169545928,117.81900949991541 150.83626829652349,117.3749472671916 150.5639948976459,116.91819517027761 150.31116959871724,116.46144066811394 150.11668859951897,115.97930830647965 149.9222076003207,115.4844854643452 149.7568987510749,114.95159616963792 149.58186585170915,114.43139155722747 149.52352155203698,114.0 149.6499342014431,114.21569604681281 149.74717470107134,114.52020719971915 149.64021015149774,114.3298878544374 149.34848865272943,114.3679517569035 148.94007855444215,114.48214336410456 148.444152006472,114.63439860642393 148.39553175668698,114.96428404802282 148.26911910722265,114.41870360088797 148.39553175668698,114.63439860642393 148.54139250610024,115.141914150714 148.71642540534958,115.63673894721433 148.94007855444215,116.10618550361687 149.18317980342545,116.5756295191677 149.4651772522484,117.03238342000259 149.77634685096564,117.47644740650139 149.79579495085636,117.88244677618059 149.3290405528387,117.9458840060106 148.8233899549232,117.9585714464265 148.27884315722622,117.97125888495793 147.72457230946748,118.00932118945639 147.17030146182515,118.04738347727834 146.62575466401177,118.08544574835105 146.09093191626016,118.13619541719527 145.55610916850856,118.17425764929794 145.01156237075338,118.21231986473867 144.45729152311105,118.25038206345198 143.92246877530124,118.31381902419525 143.38764602749143,118.37725593856885 142.86254732968519,118.3899433158731 142.32772458187537,118.44069280652911 141.80262588406913,118.47875490503066 141.37476768589113,118.7705637720428 141.30669933615718,119.26536786816723 141.34559553599684,119.81091783077136 141.39421578578185,120.35646436220122 141.4331119856215,120.90200746255141 141.47200818546116,121.4602340601632 141.50118033529725,121.92964910029696 141.5400765351951,122.3736880165452 141.58869678498013,122.91921843055752 141.61786893487442,123.4774320470533 141.5400765351951,123.90877647227899 141.62759298481978,123.79459727434732 141.57897273497656,123.8834033301755 141.71510943444446,124.18788054568722 141.71510943444446,124.72071310129104 141.76372968428768,125.24085601069237 141.85124613385415,125.76099580134905 141.88041828374844,126.29381869469216 141.93876258347882,126.80126602677046 141.98738283332204,127.34676859821047 142.03600308310706,127.87958175194217 142.0748992828885,128.3997057217639 142.1332435827353,128.94519824234885 142.17213978257496,129.4780015791548 142.20131193241104,129.9854302863896 142.19158788246568,130.49285602568125 142.32772458187537,131.03833538540493 142.38606888166396,131.57112586769654 142.42496508150361,132.0785423327543 142.46386128134327,132.6240117228299 142.50275748118293,133.14410724976187 142.63889418059262,133.63882936979644 142.99868402909487,133.7529956123035 143.5335067769047,133.68956994059408 144.08777762460522,133.57540361465362 144.6323244223022,133.46123713845736 145.1963193199481,133.37244088647276 145.75059016770683,133.2963297409733 146.28541291540023,133.27095934435056 146.83968376321718,133.27095934435056 147.37450651091058,133.28364454358962 147.49119511042954,133.71494021482795 147.67595205962425,134.14623374208168 147.86070900893537,134.56484011530847 147.9871216583997,134.42530488200282 148.14270645770011,134.6028951400076 148.11353430786403,134.8565948780597 147.9579495085054,134.98344446888223 147.8023647091468,135.12297880461847" stroke="#4DD2FF" stroke-linecap="round" stroke-linejoin="round" stroke-width="0.5"><title>2025-07-13 15.5km</title><desc>9223370284494814760</desc></polyline><polyline fill="none" points="62.39816186594544,253.44505262601888 62.25866074790247,252.3987612866913 61.49140459863702,252.37601574468135 60.75902372895507,252.1713057167799 60.026642859273124,251.94384981432813 59.31169962923741,251.69364793773275 58.57931875961367,251.5116826838057 57.916688448924106,251.30697151877393 57.25405813823454,251.10226008448808 56.59142782748677,250.8748026193498 55.94623515655985,250.6473448217439 55.266167206165846,250.48812416561123 54.603536895418074,250.28341165395977 53.95834422449116,250.07869887303968 53.295713913743384,249.87398582285095 52.63308360311203,249.6465265621955 51.9878909321269,249.44181294337614 51.32526062143734,249.23709905522992 50.645192670985125,249.0323848977423 49.98256236029556,248.82767047092784 49.30249440984335,248.62295577477198 48.622426459391136,248.41824080928927 47.94235850893892,248.19077942067815 47.244852918724064,247.9860638865357 46.52990968868835,247.78134808316827 45.81496645882726,247.531139513143 45.10002322879154,247.25818425072066 44.40251763857668,246.91698949928104 43.75732496770797,246.5530476064596 43.11213229672285,246.18910486233654 42.50181490537943,245.80241476403899 41.92637279338669,245.37023057563056 41.4032436007401,244.9152985542314 40.96730260679033,244.43761850004375 40.47904869366903,243.98268375177577 39.97335714084329,243.48225399224611 39.4153526686714,242.98182262320188 38.8922234759666,242.45864265289856 38.35165664361557,241.93546092318138 37.81108981120633,241.41227743441414 37.30539825826418,240.88909218623303 36.782269065617584,240.4113997710956 36.29401515243808,239.95645325024088 35.78832359955413,239.4787579716358 35.282632046728395,238.97831372571818 34.77694049378624,238.5233630143921 34.35843713959912,238.02291569537192 34.04455962404609,237.4542236062116 33.95737142529106,236.74904252878332 33.95737142529106,236.02111032197718 33.90505850611953,235.29317470929527 33.87018322647782,234.58798383671092 33.800432667543646,233.83729326631874 33.78299502772279,233.10934743582038 33.7132444686722,232.4268951262784 33.62605626991717,231.7216912614822 33.55630571086658,230.99373553186888 33.50399279163685,230.26577639611787 33.434242232644465,229.5378138540691 33.38192931335652,228.78709891486506 33.31217875430593,228.05912945362797 33.24242819531355,227.3084073788923 33.190115276083816,226.55768168141367 33.10292707727058,225.80695236114843 33.068051797745284,225.05621941808204 33.01573887851555,224.32823249818466 32.9983012387529,223.55474266303645 33.05061415809905,222.82674871664494 33.7132444686722,222.59924990973377 34.53281353722559,222.50825029387488 35.38725788524607,222.46275046592928 36.17195167421596,222.41725062475598 36.9392078234232,222.3945006991271 37.67158869316336,222.34900083790126 38.38653192308266,222.34900083790126 39.101475153060164,222.32625090228976 39.798980743275024,222.32625090228976 40.496486333489884,222.32625090228976 41.054490805603564,222.12150133238174 40.96730260679033,221.41625075075717 40.89755204785615,220.71099697177124 40.84523912862642,220.0057399954385 40.79292620928027,219.323230199705 40.74061329005053,218.61796693158976 40.68830037076259,217.91270046593854 40.653425091237295,217.41218684075284 40.653425091237295,216.88892087433487 40.68830037076259,216.45665635702608 40.548799252777826,215.8196327736223 40.496486333489884,215.11435362049087 40.44417341420194,214.4090712695761 40.39186049497221,213.70378572071786 40.339547575684264,212.9529943644302 40.30467229621718,212.22495080054796 40.28723465639632,211.4741523062694 39.90360658185091,211.01912115201412 39.171225712110754,210.97361796344921 38.45628248213325,210.92811476149654 37.6890263328678,210.88261154621432 36.9740831029485,210.8143566984072 36.276577512791846,210.8143566984072 35.56163428275613,210.76885344984476 35.03850509010954,210.42757866151806 35.00362981064245,209.76777861418668 34.96875453105895,209.1079757681291 34.986192170879804,208.47092208851245 34.986192170879804,207.7656096140272 34.9513168912963,207.06029394124926 34.9513168912963,206.33222279525944 34.96875453105895,205.60414824109466 34.96875453105895,204.92157525135553 34.829253413074184,204.23899926617742 34.497938257758506,203.6474309892801 34.218936021614354,203.12411871486984 34.32356186013203,202.46428768539045 34.77694049378624,201.84995972781326 35.26519440690754,201.30388839512307 35.753448320087045,200.80332132261537 36.276577512791846,200.3027526390215 36.86945726443082,199.84768880133925 37.549525214824826,199.43813020903326 38.19471788575174,199.02857053822663 38.857348196499515,198.64176319213584 39.51997850718908,198.23220142420905 40.165171178116,197.8453920975444 40.75805092987139,197.48133538188995 41.3683683212148,197.11727781394438 41.97868571267463,196.75321939391142 42.606440743780695,196.4574213000742 43.23419577506138,196.1843764064979 43.82707552675856,195.82031580264447 44.47226819768548,195.41074660464074 45.16977378790034,194.95566845295252 45.849841738294344,194.47783496054763 46.44272148999153,194.09101629609358 47.0704765211558,194.04550815474067 47.62848099338589,194.43232693233585 48.0469843474566,195.06943811569363 48.465487701585516,195.7065466891945 49.0583674532827,196.1616226437036 49.703560124209616,196.4574213000742 50.2964398759068,196.82148041256005 50.73238086979836,197.39032106976083 51.04625838535139,198.09568059530284 51.272947702149395,198.75553015847981 51.48219937924296,199.41537692224665 51.67401341657387,200.0524676930072 51.84838981402572,200.68955585412914 52.040203851414844,201.39490041705722 52.30176844767993,202.1229946752428 52.511020124773495,202.8283327374811 52.72027180186706,203.53366760110657 52.91208583913976,204.23899926617742 53.103899876528885,204.94432773257722 53.31315155350603,205.60414824109466 53.574716149887536,206.2412136624189 53.88859366544057,206.85552427596122 54.21990882081445,207.5380887786887 54.58609925565543,208.2206502862391 55.056915529072285,208.81220116987242 55.510294162726495,209.4720052706689 55.94623515655985,210.13180657260818 56.36473851068877,210.8143566984072 56.80067950458033,211.4514007801772 57.16686993947951,212.0884422530071 57.56793565378757,212.6799784273171 57.9515637284494,213.29426361199876 58.24800360429799,213.79479048743087 58.631631678843405,214.36356907256413 59.015259753505234,215.00059861892078 59.38145018834621,215.6376255563664 59.73020298342453,216.32015152309032 60.07895577856107,216.97992377755872 60.37539565440966,217.68519447234576 60.6892731700209,218.39046196942218 61.020588325336576,219.1184766770457 61.33446584088961,219.86923827583087 61.68321863602614,220.59724606284 62.01453379134182,221.3480005247984 62.31097366719041,222.0532514157967 62.62485118285986,222.7812489818898 62.92129105865024,223.4864933752542 63.23516857426148,224.1689849053655 63.531608449993655,224.8514734411583 63.828048325900454,225.511209512988 63.93267416435992,226.26194026044686 64.22911404020851,226.89892108392087 64.50811627629446,227.5131501221622 64.76968087267596,228.12737673529773 65.0486831087619,228.6961029184895 65.606687580992,229.9017955508898 65.78106397844385,230.56151020585094 65.97287801583298,231.31221658273716 66.0600662145298,232.0174223036738 66.11237913381774,232.54063738581317 66.16469205304747,233.01835396751994 66.21700497239362,233.4733207768295 66.25188025191892,233.9965309627587 66.3216308108531,234.7699688840512 66.286755531386,235.634394951805 66.23444261209806,236.47606835029728 66.16469205304747,237.2267461885349 65.95544037601212,237.63620530093613 65.25793478579726,237.63620530093613 64.56042919564061,237.63620530093613 63.828048325900454,237.63620530093613 63.0956674561603,237.63620530093613 62.3458489466575,237.63620530093613 61.561155157745816,237.65895299785188 60.811336648243014,237.65895299785188 60.04408049903577,237.65895299785188 59.27682434977032,237.61345760071708 58.52700584032573,237.61345760071708 57.81206261034822,237.68170069131884 57.09711938042892,237.65895299785188 56.34730087092612,237.68170069131884 55.64979528071126,237.65895299785188 55.28360484581208,237.27224169867986 55.266167206165846,236.771790355313 55.266167206165846,236.08935411101265 55.23129192664055,235.31592274877767 55.23129192664055,234.58798383671092 55.23129192664055,233.83729326631874 55.213854286877904,233.08659907376568 55.23129192664055,232.31315278366674 55.58004472166067,231.7216912614822 56.27755031193374,231.63069698156323 56.97505590209039,231.5624512367067 57.65512385260081,231.4259596571501 58.317754163232166,231.28946795786032 58.928071554691996,231.15297613885195 59.39888782799244,231.061981526218 59.88714174128836,230.94823818575242 60.34052037494257,230.97098686048412 60.846211927826516,230.92548950764467 61.50884223845787,230.8117460673093 62.188910188910086,230.69800254379516 62.88641577906674,230.53876147125266 63.566483729635365,230.40226899355184 64.24655168002937,230.22027883703413 64.97893254971132,230.1065348811244 65.57181230135029,230.22027883703413 65.78106397844385,230.97098686048412 65.97287801583298,231.69894269648648 66.0949414941133,232.3813981992571 66.19956733257277,233.1320957946009 66.286755531386,233.9510344946466 66.30419317120686,234.81546511256602 66.26931789156515,235.70263891054492 66.21700497239362,236.56705979625985 66.14725441334303,237.34048493894807 66.14725441334303,238.0911586063885 66.11237913381774,238.84182865197363 66.07750385435065,239.59249507577624 66.04262857482536,240.45689435003442 66.07750385435065,241.34403598001518 66.07750385435065,242.20842552337854 66.0949414941133,243.05006335924554 66.11237913381774,243.8689498568565 66.12981677358039,244.6878320446267 66.12981677358039,245.52945646889566 66.0949414941133,246.34832991764415 66.11237913381774,247.1444527500571 66.11237913381774,247.91782531532226 66.0949414941133,248.7139401174354 66.0600662145298,249.3053370478592 66.14725441334303,250.07869887303968 66.16469205304747,250.82931108641787 66.21700497239362,251.57991967891576 66.23444261209806,252.3987612866913 66.25188025191892,253.28583483250986 66.23444261209806,254.150158038683 66.25188025191892,254.92349578531866 66.26931789156515,255.6740846287139 66.286755531386,256.4246698516072 66.286755531386,257.2207411318668 66.286755531386,257.99406361870933 66.35650609032018,258.67640379803197 66.44369428919163,259.3359964607371 66.51344484818401,260.0410751808813 66.53088248794666,260.6551733988308 66.70525888557313,261.360246142096 66.74013416504022,262.1335480582202 66.82732236379525,262.8841021255648 66.89707292284584,263.6801403624995 66.94938584195916,264.4534307507565 67.03657404088881,265.2267172966385 67.01913640112616,265.8862821963703 66.60063304699725,265.8180514742562 65.81593925796915,265.7498207222816 64.96149490994867,265.7725643096055 64.08961292222375,265.7725643096055 63.21773093449883,265.7725643096055 62.433037145470735,265.8180514742562 61.735531555255875,265.7725643096055 60.98571304581128,265.7725643096055 60.20101925684139,265.7498207222816 59.416325467813294,265.7725643096055 58.631631678843405,265.7725643096055 57.864375529577956,265.7725643096055 57.27149577788077,265.8180514742562 56.60886546730762,265.8180514742562 55.841609317983966,265.840795051583 55.074353168776724,265.840795051583 54.93485205073375,265.13574260829773 54.93485205073375,264.3624556104478 54.9522896904964,263.5664208636881 54.93485205073375,262.7703820449824 54.93485205073375,261.9515950119385 54.93485205073375,261.1100594052841 54.899976771266665,260.3140080214216 54.899976771266665,259.51795256535115 54.93485205073375,258.67640379803197 54.91741441102931,257.81210573224234 54.969727330317255,256.9932926101901 55.022040249430574,256.08349519915646 54.98716496996349,255.40114365002955 54.93485205073375,254.67329869967944 54.93485205073375,253.85446906104335 54.91741441102931,252.9901442124974 54.899976771266665,252.12581456291082 54.899976771266665,251.28422581714403 55.10922844836023,250.53361579822376 55.28360484581208,249.80574807952507 55.213854286877904,249.05513092852198 55.1789790072944,248.259017872173 55.16154136758996,247.44015447891434 55.23129192664055,246.6212867761642 55.16154136758996,245.80241476403899 55.074353168776724,245.02903168425837 54.98716496996349,244.23289802792715 54.969727330317255,243.48225399224611 54.812788572511636,242.95907570458075 54.16759590158472,242.91358185726858 53.365464472793974,242.91358185726858 52.58077068376588,242.91358185726858 52.266893168212846,242.61787152575562 52.197142609162256,241.9582079915126 51.9878909321269,241.20755298154836 51.77863925509155,240.45689435003442 51.91814037313452,239.8654637864529 52.07507913094014,239.43326310670818 52.40639428625582,239.6834846991842 52.56333304406144,240.1384320181969 52.63308360311203,240.47964163453435 52.040203851414844,240.61612527146644" stroke="#4DD2FF" stroke-linecap="round" stroke-linejoin="round" stroke-width="0.5"><title>2025-07-11 12.3km</title><desc>9223370284668536136</desc></polyline></svg>