<?xml version="1.0" encoding="utf-8" ?>
<svg baseProfile="full" height="200mm" version="1.1" viewBox="0,0,200,200" width="200mm" xmlns="http://www.w3.org/2000/svg" xmlns:ev="http://www.w3.org/2001/xml-events" xmlns:xlink="http://www.w3.org/1999/xlink"><defs /><rect fill="#1a1a1a" height="200" width="200" x="0" y="0" /><rect fill="#1a1a1a" height="200" width="180" x="10" y="0" /><text alignment-baseline="middle" fill="#e1ed5e" style="dominant-baseline: central; font-size:9.0px; font-family:Arial;" text-anchor="middle" x="100.0" y="100.0">2026</text><line stroke="#e1ed5e" stroke-width="0.3" x1="100.0" x2="100.0" y1="15.0" y2="10.0" /><path d="M 100.0 14.0 a86.0,86.0 0 0,1 42.46469731375804,11.215312516191453" fill="none" id="id13" stroke="none" /><text fill="#e1ed5e" style="font-size:6.75px; font-family:Arial;" text-anchor="middle"><textPath startOffset="22.20632615414155" xlink:href="#id13">January</textPath></text><path d="M 100.0 79.0 l 0.0 -63.0 a84.0,84.0 0 0,0 1.4459219170901134,0.012445506434235476 l -1.084441437817585 62.990665870174325" fill="red" stroke="none" /><path d="M 100.36148047927253 79.00311137660856 l 0.5815258015895173 -33.77840073736859 a54.78340611353712,54.78340611353712 0 0,0 0.9427268477492837,0.02434785316224607 l -1.1628792845336688 33.76338609206398" fill="red" stroke="none" /><path d="M 100.72285384407766 79.0124445844662 l 1.274621756500259 -37.00775055367925 a58.029694323144106,58.029694323144106 0 0,0 0.9979979094499171,0.04297588932528189 l -1.9114604983395078 36.98032693782978" fill="red" stroke="none" /><path d="M 101.08401301168833 79.027996857942 l 2.417017658375811 -46.76115635080704 a67.8235807860262,67.8235807860262 0 0,0 1.1653962824376551,0.07029988631583886 l -3.2215759896530782 46.71262319511089" fill="red" stroke="none" /><path d="M 101.44485096284872 79.0497635885617 l 2.392521769049055 -34.69139583937731 a55.773799126637556,55.773799126637556 0 0,0 0.9572106848463935,0.07429797177718724 l -2.9893226432577893 34.645072605411656" fill="red" stroke="none" /><path d="M 101.80526077348638 79.07773832637324 l 2.984592702366559 -34.590254452554994 a55.71877729257642,55.71877729257642 0 0,0 0.9548470427072822,0.09067423210732628 l -3.579564872164085 34.533754675932485" fill="red" stroke="none" /><path d="M 102.16513564639614 79.11191278185805 l 3.6362933170478264 -35.08104080391874 a56.26899563318777,56.26899563318777 0 0,0 0.962556990071758,0.10815449323335954 l -4.23961701062931 35.01325035721477" fill="red" stroke="none" /><path d="M 102.52436894288641 79.15227682838746 l 4.199932608033715 -34.68551322438593 a55.93886462882096,55.93886462882096 0 0,0 0.9549170987345583,0.1239756457199852 l -4.79636443527612 34.60807925550181" fill="red" stroke="none" /><path d="M 102.88285421437855 79.19881850522331 l 5.083390968410754 -36.679113919610586 a58.029694323144106,58.029694323144106 0 0,0 0.9882485117237844,0.1456421415848858 l -5.7140084605631944 36.58617729386473" fill="red" stroke="none" /><path d="M 103.2404852339499 79.25152402106235 l 2.572577360402151 -16.471934205112944 a37.67161572052402,37.67161572052402 0 0,0 0.6398269088128824,0.10557692220262964 l -2.855733475353909 16.42521101997069" fill="red" stroke="none" /><path d="M 103.59715602781102 79.31037775812273 l 5.702042087752854 -32.796213422713755 a54.2882096069869,54.2882096069869 0 0,0 0.9192929620396624,0.16799491284001217 l -6.265730170895417 32.693203028523" fill="red" stroke="none" /><path d="M 103.95276090670814 79.375362276772 l 6.265730170895417 -32.693203028523 a54.2882096069869,54.2882096069869 0 0,0 0.9162650026002698,0.18379413974800293 l -6.8275615829628125 32.58050493269779" fill="red" stroke="none" /><path d="M 104.307194497241 79.44645832069477 l 7.132262678400823 -34.034510937958686 a55.773799126637556,55.773799126637556 0 0,0 0.9379487125319839,0.20499925964232113 l -7.717054115086335 33.906698180220495" fill="red" stroke="none" /><path d="M 104.66035177308747 79.52364482259891 l 7.399580369845441 -32.51180236900889 a54.34323144104803,54.34323144104803 0 0,0 0.9103172188035308,0.21544267452105345 l -7.958121275611495 32.37961378234697" fill="red" stroke="none" /><path d="M 105.01212808612495 79.60689891045804 l 4.399291464240677 -17.89962148034032 a39.432314410480345,39.432314410480345 0 0,0 0.6577518684080315,0.16767559671347956 l -4.706752221333733 17.82124288745797" fill="red" stroke="none" /><path d="M 105.36241919743992 79.69619591428918 l 9.497804482452551 -35.96167221469131 a58.19475982532751,58.19475982532751 0 0,0 0.966315980343376,0.26413066022547627 l -10.115418352019638 35.792855013639546" fill="red" stroke="none" /><path d="M 105.71112130821622 79.79150937346287 l 9.112854698786924 -32.24533831850072 a54.50829694323144,54.50829694323144 0 0,0 0.9007101073589298,0.26294197943547004 l -9.66655502386928 32.08369801014654" fill="red" stroke="none" /><path d="M 106.0581310904928 79.89281104454417 l 4.936450923519452 -16.384285847546103 a38.1117903930131,38.1117903930131 0 0,0 0.626511786469107,0.19466026175905873 l -5.217748082699277 16.296885450904522" fill="red" stroke="none" /><path d="M 106.40334571778207 80.00007090966166 l 10.267722915150987 -32.0697552924552 a54.673362445414845,54.673362445414845 0 0,0 0.8938240234893917,0.29467972749625926 l -10.818229760882797 31.888261840699702" fill="red" stroke="none" /><path d="M 106.74666289553966 80.11325718540242 l 5.568206494572028 -16.413075947418964 a38.33187772925764,38.33187772925764 0 0,0 0.6230171279543738,0.21735844268129814 l -5.849905626589675 16.31479665156546" fill="red" stroke="none" /><path d="M 107.08798089147638 80.2323363322302 l 11.346959802686639 -31.64552620351268 a54.61834061135371,54.61834061135371 0 0,0 0.8822622129687924,0.32494461875350655 l -11.890004341428009 31.44551831695285" fill="red" stroke="none" /><path d="M 107.4271985657038 80.35727306442388 l 11.559185890029848 -30.570602095368237 a53.68296943231441,53.68296943231441 0 0,0 0.8615268786427726,0.33425904429027903 l -12.083695933672287 30.36710034718741" fill="red" stroke="none" /><path d="M 107.76421540070413 80.48803036053334 l 11.81923794185791 -29.702500507939202 a52.96768558951965,52.96768558951965 0 0,0 0.8442447027325213,0.3443886119666576 l -12.328766514178819 29.494651009788964" fill="red" stroke="none" /><path d="M 108.09893153111575 80.62456947434976 l 12.75316467301458 -30.50995741287981 a54.06812227074236,54.06812227074236 0 0,0 0.855605486492708,0.36632561708794115 l -13.276453917297603 30.285912267829076" fill="red" stroke="none" /><path d="M 108.43124777332544 80.76684994638697 l 6.737634683487137 -15.369722531926572 a37.78165938864629,37.78165938864629 0 0,0 0.5933841362082383,0.266234165184232 l -7.001200938162156 15.251468036225809" fill="red" stroke="none" /><path d="M 108.76106565485865 80.91482961587045 l 14.163085176544424 -30.852969765086304 a54.94847161572052,54.94847161572052 0 0,0 0.8562065318309209,0.4020004471707871 l -14.692069919674942 30.60460433527551" fill="red" stroke="none" /><path d="M 109.08828744355905 81.06846463323043 l 14.52538517180181 -30.257388402784546 a54.56331877729258,54.56331877729258 0 0,0 0.843207843357175,0.4137584267239082 l -15.044064282169417 30.002874815925807" fill="red" stroke="none" /><line stroke="#e1ed5e" stroke-width="0.3" x1="143.23703022742887" x2="145.7803849466894" y1="26.81831364943548" y2="22.513508569990506" /><path d="M 143.74570117128098 25.957352633546492 a86.0,86.0 0 0,1 28.547481713284135,27.462654790039103" fill="none" id="id14" stroke="none" /><text fill="#e1ed5e" style="font-size:6.75px; font-family:Arial;" text-anchor="middle"><textPath startOffset="19.985693538727396" xlink:href="#id14">February</textPath></text><path d="M 110.68208982089419 81.91981866633111 l 8.312438454512424 -14.069381282357181 a37.341484716157204,37.341484716157204 0 0,0 0.5505876272322183,0.33172288484040235 l -8.553388147962279 13.924211788058164" fill="red" stroke="none" /><path d="M 110.99172775467656 82.1063720568725 l 8.524588861268807 -13.877328920084908 a37.286462882096075,37.286462882096075 0 0,0 0.5439932429931781,0.3406485188562921 l -8.762201256634249 13.728536059905672" fill="red" stroke="none" /><path d="M 111.2981086023043 82.29822771554956 l 17.968432982354685 -28.152774960684933 a54.39825327510917,54.39825327510917 0 0,0 0.7849744991474454,0.5105692497317379 l -18.450374507286412 27.839306786793667" fill="red" stroke="none" /><path d="M 111.60114157652 82.49532879139004 l 9.392365276361616 -14.171904113870253 a38.00174672489083,38.00174672489083 0 0,0 0.5421497582442317,0.3660619368708782 l -9.63491972901239 14.008130264700704" fill="red" stroke="none" /><path d="M 111.90073688211348 82.69761687909136 l 13.781988738587302 -20.037519666659257 a45.31965065502183,45.31965065502183 0 0,0 0.6389398725666362,0.44761821269023155 l -14.124859750737588 19.79731661120509" fill="red" stroke="none" /><path d="M 112.19680574252982 82.90503203632743 l 20.036848560435452 -28.083523790103154 a55.49868995633188,55.49868995633188 0 0,0 0.7728977054265812,0.5615430527901676 l -20.517291582215822 27.734461502496313" fill="red" stroke="none" /><path d="M 112.77801427241765 83.33499621200491 l 15.735371287431342 -20.521969730194837 a46.86026200873363,46.86026200873363 0 0,0 0.6358880537708782,0.49632071225734714 l -16.08629189636165 20.248070628714267" fill="red" stroke="none" /><path d="M 113.06298171725822 83.55741782278167 l 14.717245777522356 -18.524830575206664 a44.65938864628821,44.65938864628821 0 0,0 0.5977905890790078,0.4833717494863269 l -15.033939765165856 18.268752728456207" fill="red" stroke="none" /><path d="M 113.34407831869373 83.78471172551755 l 15.55837952441583 -18.9060348003791 a45.48471615720524,45.48471615720524 0 0,0 0.6002736317392043,0.5027119036360943 l -15.881510693114151 18.635421739349187" fill="red" stroke="none" /><path d="M 113.6212207817346 84.01681056812373 l 12.1341879453007 -14.238299755907244 a39.70742358078603,39.70742358078603 0 0,0 0.516397315222494,0.44781466309730283 l -12.377479059169959 14.02732009939027" fill="red" stroke="none" /><line stroke="#e1ed5e" stroke-width="0.3" x1="172.23445277983987" x2="176.4835382374775" y1="55.19839476539836" y2="52.563006222186495" /><path d="M 173.08426987136738 54.67131705675599 a86.0,86.0 0 0,1 12.851231095245387,41.99856678651699" fill="none" id="id15" stroke="none" /><text fill="#e1ed5e" style="font-size:6.75px; font-family:Arial;" text-anchor="middle"><textPath startOffset="22.20632615414155" xlink:href="#id15">March</textPath></text><path d="M 118.21658344932153 89.55222093294921 l 13.602776287484637 -7.801616683256269 a36.68122270742358,36.68122270742358 0 0,0 0.3094189671747895,0.5504218167077836 l -13.73505289595186 7.566311356613691" fill="red" stroke="none" /><path d="M 118.73160827565052 90.50648371742162 l 31.21389396501414 -15.81976337743194 a55.993886462882095,55.993886462882095 0 0,0 0.42832653314693886,0.8634801539848961 l -31.481580511114487 15.280123634948094" fill="red" stroke="none" /><path d="M 118.89224826269711 90.83032412892265 l 35.39202840479066 -17.17812641350297 a60.34061135371179,60.34061135371179 0 0,0 0.4454913032843862,0.9383182991638622 l -35.682477901916805 16.566365698698565" fill="red" stroke="none" /><path d="M 119.04729006885535 91.15688171328212 l 14.672235668760196 -6.811904217366963 a37.1764192139738,37.1764192139738 0 0,0 0.2644795663889045,0.5827456664429159 l -14.787317552112448 6.558336542081984" fill="red" stroke="none" /><path d="M 119.196687751892 91.48605970444005 l 13.630486587151271 -6.045269397633394 a35.91091703056769,35.91091703056769 0 0,0 0.24574916168386998,0.5672229475104208 l -13.732526458677821 5.80974730553637" fill="red" stroke="none" /><path d="M 119.85752413597 93.16781622104841 l 15.296363570240644 -5.262869950249168 a37.1764192139738,37.1764192139738 0 0,0 0.20298803975949528,0.6069084020755192 l -15.38468890377191 4.998788445251334" fill="red" stroke="none" /><path d="M 120.08093135843002 93.85539295169968 l 31.77873154713991 -9.724041896524168 a54.23318777292577,54.23318777292577 0 0,0 0.2654691373281191,0.8950299592930229 l -31.94140658157973 9.175582550484616" fill="red" stroke="none" /><path d="M 120.18372546131832 94.20196356495316 l 15.864937043830986 -4.557408551565205 a37.50655021834061,37.50655021834061 0 0,0 0.17291096435963968,0.6220527375617846 l -15.94103477875699 4.283644510584469" fill="red" stroke="none" /><path d="M 120.28053869075195 94.5502522615342 l 32.8385316442394 -8.824307691804007 a55.00349344978166,55.00349344978166 0 0,0 0.2378342364375216,0.9164723316847141 l -32.98556221254723 8.257738934570442" fill="red" stroke="none" /><path d="M 120.45610955862082 95.25157060432595 l 15.97184449380526 -3.707507318543759 a37.39650655021834,37.39650655021834 0 0,0 0.1401578558103453,0.6283001854040381 l -16.033296736617643 3.432028963589757" fill="red" stroke="none" /><path d="M 120.6074358757038 95.95851677861258 l 34.55570033305789 -6.776984965121279 a56.213973799126634,56.213973799126634 0 0,0 0.1780491320666212,0.9511455830368952 l -34.66723518903437 6.181161304621821" fill="red" stroke="none" /><path d="M 120.67395015179393 96.31383870115 l 18.25446602922591 -3.254767749464927 a39.54235807860262,39.54235807860262 0 0,0 0.11370901883178966,0.6711170658437149 l -18.307786909577924 2.9400648953053747" fill="red" stroke="none" /><path d="M 120.96714384426684 98.82574320788733 l 19.337383318380606 -1.0829826833807668 a40.36768558951965,40.36768558951965 0 0,0 0.03288311640006486,0.6941106151290634 l -19.353160043014167 0.7499609616287037" fill="red" stroke="none" /><path d="M 120.98425023603335 99.18683210126433 l 17.86868469880569 -0.69243554695832 a38.88209606986899,38.88209606986899 0 0,0 0.020160006772080755,0.6690124781301326 l -17.877956400033415 0.3847529214031883" fill="red" stroke="none" /><line stroke="#e1ed5e" stroke-width="0.3" x1="184.98032266829074" x2="189.97916517819016" y1="98.17113171792111" y2="98.06355123074" /><path d="M 185.9800911702706 98.14961562048488 a86.0,86.0 0 0,1 -9.607161424134198,41.387399972396054" fill="none" id="id16" stroke="none" /><text fill="#e1ed5e" style="font-size:6.75px; font-family:Arial;" text-anchor="middle"><textPath startOffset="21.466115282336823" xlink:href="#id16">April</textPath></text><path d="M 120.95626037817324 101.35467743843564 l 33.93266964291107 2.193512638305396 a55.00349344978166,55.00349344978166 0 0,0 -0.06920864678222821,0.9442969988176296 l -33.8898844374645 -2.777282773619796" fill="red" stroke="none" /><path d="M 120.92983693683757 101.71520430193887 l 27.52867635535143 2.255980505432261 a48.620960698689956,48.620960698689956 0 0,0 -0.07553707010434348,0.8335452741988991 l -27.485764688970008 -2.729507168179731" fill="red" stroke="none" /><path d="M 120.89721153311464 102.0752229133903 l 33.61941566363508 3.3386168106405565 a54.78478165938865,54.78478165938865 0 0,0 -0.10126757794213577,0.937612001577281 l -33.556965784191895 -3.9168251341026292" fill="red" stroke="none" /><path d="M 120.8583938346157 102.4346265915055 l 11.912401779858572 1.3904354463674153 a32.99327423580786,32.99327423580786 0 0,0 -0.0706975021722002,0.5635286522053047 l -11.886702768439523 -1.595281852860115" fill="red" stroke="none" /><path d="M 120.81339534386255 102.79330883721812 l 15.923610760893967 2.1370642282996224 a37.06637554585153,37.06637554585153 0 0,0 -0.09031125143707308,0.6316366822075046 l -15.884465458440292 -2.410846382487536" fill="red" stroke="none" /><path d="M 120.76222939487914 103.15116336523771 l 52.716352144781474 8.0009634065876 a74.3200637554585,74.3200637554585 0 0,0 -0.20285217477238454,1.2631606859451605 l -52.5708182156478 -8.907203322225964" fill="red" stroke="none" /><path d="M 120.70491114924044 103.5080841355445 l 34.88189834662428 5.910126023987196 a56.379039301310044,56.379039301310044 0 0,0 -0.1703547914841344,0.9554401399529143 l -34.77499711280096 -6.509684914673329" fill="red" stroke="none" /><path d="M 120.64145759157962 103.86396538481128 l 36.776046713382044 6.884270205253287 a58.414847161572055,58.414847161572055 0 0,0 -0.19352023010699546,0.9867554840948431 l -36.65209655029938 -7.516289416416075" fill="red" stroke="none" /><path d="M 120.49622156327973 104.57218783832717 l 50.43815816009977 11.251475430007426 a72.67788209606988,72.67788209606988 0 0,0 -0.2828880453285123,1.2186742954072276 l -50.2370095488407 -12.11801838276322" fill="red" stroke="none" /><path d="M 120.41448212921028 104.9243191809786 l 12.879095617372995 3.1066562051819564 a34.24848733624454,34.24848733624454 0 0,0 -0.1431728424110076,0.5719043357891331 l -12.823711460666926 -3.3278883803684853" fill="red" stroke="none" /><path d="M 120.23288151984713 105.62410040840565 l 56.467630962241465 15.696213416013803 a79.60856986899563,79.60856986899563 0 0,0 -0.3783581638044368,1.3171144041311291 l -56.189080161550926 -16.665885295649513" fill="red" stroke="none" /><path d="M 120.13307415673323 105.97154293290107 l 21.047414642453862 6.242739642517545 a42.953711790393015,42.953711790393015 0 0,0 -0.2163501299481548,0.707044742605312 l -20.936837739999575 -6.604111357674914" fill="red" stroke="none" /><path d="M 120.02730092923936 106.31721596034902 l 38.86170934898166 12.258157572666768 a61.749170305676856,61.749170305676856 0 0,0 -0.328469562688646,1.010925365550008 l -38.64494753527677 -12.925281838194572" fill="red" stroke="none" /><path d="M 119.9155931802556 106.66101706037122 l 35.74370653748932 11.954925815775429 a58.68995633187773,58.68995633187773 0 0,0 -0.32868938077001003,0.9553251966063221 l -35.53262632577608 -12.56842371547105" fill="red" stroke="none" /><path d="M 119.79798401119884 107.00284435728193 l 10.71166034492374 3.788875178459522 a32.36200873362446,32.36200873362446 0 0,0 -0.1902820449399803,0.5235744647883683 l -10.644854038978531 -3.9726974402540214" fill="red" stroke="none" /><path d="M 119.67450827220406 107.3425965602758 l 6.147132575627754 2.294131770964318 a27.561271179039302,27.561271179039302 0 0,0 -0.1697061916725903,0.4430493151506933 l -6.106732104361658 -2.3996046529481547" fill="red" stroke="none" /><path d="M 119.54520255179757 107.68017299344265 l 13.005326567828414 5.110366987112738 a34.97334497816594,34.97334497816594 0 0,0 -0.22499083224878907,0.5584087942776382 l -12.915433121322232 -5.33347514923319" fill="red" stroke="none" /><path d="M 119.41010516605496 108.01547362559984 l 44.49914939816094 18.376085822881716 a69.14410480349345,69.14410480349345 0 0,0 -0.46375615799562914,1.096182566147217 l -44.176242258973 -19.139342914695096" fill="red" stroke="none" /><path d="M 119.26925614724726 108.34839909993367 l 32.05933009651183 13.889694572378728 a55.93886462882096,55.93886462882096 0 0,0 -0.3903971105411508,0.880242422443059 l -31.815491901239408 -14.439485331314474" fill="red" stroke="none" /><path d="M 119.12269723197855 108.67885076344098 l 32.66724522772928 14.82605422994809 a56.87423580786026,56.87423580786026 0 0,0 -0.4122715398949196,0.8879962195356735 l -32.40719907099453 -15.386170516762594" fill="red" stroke="none" /><path d="M 118.97047184881838 109.00673069616215 l 14.960992209155448 7.10312473243181 a37.56157205240174,37.56157205240174 0 0,0 -0.2823319916620656,0.581687526797481 l -14.836506960878669 -7.359601215194567" fill="red" stroke="none" /><path d="M 118.81262510543309 109.33194174019688 l 16.61097290968808 8.239819300732789 a39.54235807860262,39.54235807860262 0 0,0 -0.3077173693806148,0.6071555629423503 l -16.466676870521194 -8.524529075377833" fill="red" stroke="none" /><path d="M 118.64920377521936 109.65438752849418 l 38.30823343171697 19.8315453860422 a64.13711790393013,64.13711790393013 0 0,0 -0.5159907237882524,0.976059993226016 l -37.96119019970382 -20.48802039435435" fill="red" stroke="none" /><line stroke="#e1ed5e" stroke-width="0.3" x1="174.80103733775053" x2="179.2010983576182" y1="140.37084112569926" y2="142.7455964860345" /><path d="M 175.68104954172406 140.8457921977663 a86.0,86.0 0 0,1 -30.038265399797805,32.042727171017184" fill="none" id="id17" stroke="none" /><text fill="#e1ed5e" style="font-size:6.75px; font-family:Arial;" text-anchor="middle"><textPath startOffset="22.206326154141568" xlink:href="#id17">May</textPath></text><path d="M 118.48025628344425 109.97397251340804 l 36.750693063233676 19.83470341749356 a62.761572052401746,62.761572052401746 0 0,0 -0.5212904164689383,0.946293524928132 l -36.403826237313226 -20.4643674608195" fill="red" stroke="none" /><path d="M 118.30583269289576 110.29060199501025 l 17.60237711343077 9.895155280791508 a41.19301310043668,41.19301310043668 0 0,0 -0.3527848180277341,0.6151100665521609 l -17.429440299250654 -10.196685193201985" fill="red" stroke="none" /><path d="M 118.12598468904814 110.60418214915192 l 42.50503833196006 24.86657560739994 a70.24454148471617,70.24454148471617 0 0,0 -0.6195539267037466,1.038408017830761 l -42.07070352955808 -25.59454571911681" fill="red" stroke="none" /><path d="M 117.94076556474637 110.91462005526583 l 34.972741258090736 21.276359793321678 a61.93624454148472,61.93624454148472 0 0,0 -0.5619545081583313,0.9060495973619838 l -34.60132211026444 -21.875205722048936" fill="red" stroke="none" /><path d="M 117.75023020441432 111.22182372390056 l 17.068125288262163 10.790592069881665 a41.19301310043668,41.19301310043668 0 0,0 -0.38406626799575977,0.5960793769226347 l -16.87985415688935 -11.082793046725753" fill="red" stroke="none" /><path d="M 117.55443506779139 111.5257021239791 l 30.540117602655396 20.051701861105993 a57.534497816593884,57.534497816593884 0 0,0 -0.5506788282328104,0.8231901311234793 l -30.190435669011862 -20.57442890643528" fill="red" stroke="none" /><path d="M 117.35343817320211 111.8261652097733 l 17.504996585195133 11.929450495448167 a42.18340611353712,42.18340611353712 0 0,0 -0.41407852709789233,0.5965110017203974 l -17.297057150935103 -12.229002759355584" fill="red" stroke="none" /><path d="M 117.14729908036423 112.12312394758627 l 15.095613513543361 10.67258422634669 a39.48733624454148,39.48733624454148 0 0,0 -0.39716777905268746,0.5516313078285716 l -14.90966594211507 -10.930849139626392" fill="red" stroke="none" /><path d="M 116.71984013943494 112.70617746262583 l 28.737681567168515 21.839089298207533 a57.094323144104806,57.094323144104806 0 0,0 -0.6013750026202209,0.7773582570527899 l -28.357499747330223 -22.330525549373576" fill="red" stroke="none" /><path d="M 116.27256486870786 113.27417163493432 l 14.410812905563112 11.755467281941836 a39.597379912663754,39.597379912663754 0 0,0 -0.4353901626461483,0.5244554985950826 l -14.206326743023421 -12.001784037650689" fill="red" stroke="none" /><line stroke="#e1ed5e" stroke-width="0.3" x1="143.8653032363475" x2="146.44561519142675" y1="172.8068346515853" y2="177.08958963109032" /><path d="M 144.38136562736335 173.6633856474863 a86.0,86.0 0 0,1 -40.68145358897372,12.25698825130547" fill="none" id="id18" stroke="none" /><text fill="#e1ed5e" style="font-size:6.75px; font-family:Arial;" text-anchor="middle"><textPath startOffset="21.466115282336833" xlink:href="#id18">June</textPath></text><line stroke="#e1ed5e" stroke-width="0.3" x1="102.19456741930631" x2="102.32365962044197" y1="184.97166512339345" y2="189.96999836594603" /><path d="M 102.22038585953345 185.97133177190398 a86.0,86.0 0 0,1 -42.740103519485714,-10.115201625700543" fill="none" id="id19" stroke="none" /><text fill="#e1ed5e" style="font-size:6.75px; font-family:Arial;" text-anchor="middle"><textPath startOffset="22.20632615414155" xlink:href="#id19">July</textPath></text><line stroke="#e1ed5e" stroke-width="0.3" x1="58.666819895761336" x2="56.23545636021788" y1="174.27360380694188" y2="178.64263932499728" /><path d="M 58.180547188652646 175.14741091055294 a86.0,86.0 0 0,1 -31.652253787137756,-30.449443065178592" fill="none" id="id20" stroke="none" /><text fill="#e1ed5e" style="font-size:6.75px; font-family:Arial;" text-anchor="middle"><textPath startOffset="22.20632615414155" xlink:href="#id20">August</textPath></text><line stroke="#e1ed5e" stroke-width="0.3" x1="26.63291911575756" x2="22.317208475507996" y1="142.92168965132927" y2="145.44649492493687" /><path d="M 25.769776987707644 143.4266507060508 a86.0,86.0 0 0,1 -11.730757126820373,-40.83630448921669" fill="none" id="id21" stroke="none" /><text fill="#e1ed5e" style="font-size:6.75px; font-family:Arial;" text-anchor="middle"><textPath startOffset="21.46611528233685" xlink:href="#id21">September</textPath></text><line stroke="#e1ed5e" stroke-width="0.3" x1="15.007084014347285" x2="10.007500721073583" y1="101.09737516637583" y2="101.16192664675087" /><path d="M 14.007167355692545 101.11028546245083 a86.0,86.0 0 0,1 10.666146001902534,-42.60595125391555" fill="none" id="id22" stroke="none" /><text fill="#e1ed5e" style="font-size:6.75px; font-family:Arial;" text-anchor="middle"><textPath startOffset="22.20632615414155" xlink:href="#id22">October</textPath></text><line stroke="#e1ed5e" stroke-width="0.3" x1="26.266209847984243" x2="21.928928074336255" y1="57.711370442889674" y2="55.22380399835377" /><path d="M 25.398753493254645 57.213857153982495 a86.0,86.0 0 0,1 29.58750427330803,-30.492523968695096" fill="none" id="id23" stroke="none" /><text fill="#e1ed5e" style="font-size:6.75px; font-family:Arial;" text-anchor="middle"><textPath startOffset="21.46611528233685" xlink:href="#id23">November</textPath></text><line stroke="#e1ed5e" stroke-width="0.3" x1="56.762969772571076" x2="54.21961505331055" y1="26.818313649435495" y2="22.513508569990535" /><path d="M 56.25429882871897 25.957352633546506 a86.0,86.0 0 0,1 42.265352541879196,-11.944610805530505" fill="none" id="id24" stroke="none" /><text fill="#e1ed5e" style="font-size:6.75px; font-family:Arial;" text-anchor="middle"><textPath startOffset="22.20632615414155" xlink:href="#id24">December</textPath></text></svg>