<?xml version="1.0" encoding="utf-8" ?>
<svg baseProfile="full" height="200mm" version="1.1" viewBox="0,0,200,200" width="200mm" xmlns="http://www.w3.org/2000/svg" xmlns:ev="http://www.w3.org/2001/xml-events" xmlns:xlink="http://www.w3.org/1999/xlink"><defs /><rect fill="#1a1a1a" height="200" width="200" x="0" y="0" /><rect fill="#1a1a1a" height="200" width="180" x="10" y="0" /><text alignment-baseline="middle" fill="#e1ed5e" style="dominant-baseline: central; font-size:9.0px; font-family:Arial;" text-anchor="middle" x="100.0" y="100.0">2025</text><line stroke="#e1ed5e" stroke-width="0.3" x1="100.0" x2="100.0" y1="15.0" y2="10.0" /><path d="M 100.0 14.0 a86.0,86.0 0 0,1 42.46469731375804,11.215312516191453" fill="none" id="id1" stroke="none" /><text fill="#e1ed5e" style="font-size:6.75px; font-family:Arial;" text-anchor="middle"><textPath startOffset="22.20632615414155" xlink:href="#id1">January</textPath></text><line stroke="#e1ed5e" stroke-width="0.3" x1="143.23703022742887" x2="145.7803849466894" y1="26.81831364943548" y2="22.513508569990506" /><path d="M 143.74570117128098 25.957352633546492 a86.0,86.0 0 0,1 28.547481713284135,27.462654790039103" fill="none" id="id2" stroke="none" /><text fill="#e1ed5e" style="font-size:6.75px; font-family:Arial;" text-anchor="middle"><textPath startOffset="19.985693538727396" xlink:href="#id2">February</textPath></text><line stroke="#e1ed5e" stroke-width="0.3" x1="172.23445277983987" x2="176.4835382374775" y1="55.19839476539836" y2="52.563006222186495" /><path d="M 173.08426987136738 54.67131705675599 a86.0,86.0 0 0,1 12.851231095245387,41.99856678651699" fill="none" id="id3" stroke="none" /><text fill="#e1ed5e" style="font-size:6.75px; font-family:Arial;" text-anchor="middle"><textPath startOffset="22.20632615414155" xlink:href="#id3">March</textPath></text><line stroke="#e1ed5e" stroke-width="0.3" x1="184.98032266829074" x2="189.97916517819016" y1="98.17113171792111" y2="98.06355123074" /><path d="M 185.9800911702706 98.14961562048488 a86.0,86.0 0 0,1 -9.607161424134198,41.387399972396054" fill="none" id="id4" stroke="none" /><text fill="#e1ed5e" style="font-size:6.75px; font-family:Arial;" text-anchor="middle"><textPath startOffset="21.466115282336823" xlink:href="#id4">April</textPath></text><line stroke="#e1ed5e" stroke-width="0.3" x1="174.80103733775053" x2="179.2010983576182" y1="140.37084112569926" y2="142.7455964860345" /><path d="M 175.68104954172406 140.8457921977663 a86.0,86.0 0 0,1 -30.038265399797805,32.042727171017184" fill="none" id="id5" stroke="none" /><text fill="#e1ed5e" style="font-size:6.75px; font-family:Arial;" text-anchor="middle"><textPath startOffset="22.206326154141568" xlink:href="#id5">May</textPath></text><line stroke="#e1ed5e" stroke-width="0.3" x1="143.8653032363475" x2="146.44561519142675" y1="172.8068346515853" y2="177.08958963109032" /><path d="M 144.38136562736335 173.6633856474863 a86.0,86.0 0 0,1 -40.68145358897372,12.25698825130547" fill="none" id="id6" stroke="none" /><text fill="#e1ed5e" style="font-size:6.75px; font-family:Arial;" text-anchor="middle"><textPath startOffset="21.466115282336833" xlink:href="#id6">June</textPath></text><path d="M 104.83641907484287 120.43548508189849 l 5.019212866647951 21.20784987239545 a42.793700787401576,42.793700787401576 0 0,0 -0.7182817743080889,0.16347859330783682 l -4.653410942947 -21.29110519928097" fill="red" stroke="none" /><path d="M 104.13013068566511 120.58985236759428 l 2.9593849794923206 14.753358783079364 a36.04724409448819,36.04724409448819 0 0,0 -0.6094256694753422,0.11679788000026732 l -2.704991695445274 -14.802113861428099" fill="red" stroke="none" /><path d="M 103.7750983002368 120.6578951692458 l 2.449355117633962 13.403232771227197 a34.6251968503937,34.6251968503937 0 0,0 -0.5872285462500215,0.10209720990315989 l -2.21827759991189 -13.443408559651363" fill="red" stroke="none" /><path d="M 103.41894727170886 120.7198165907248 l 6.256404298780623 37.91563287940507 a59.428346456692914,59.428346456692914 0 0,0 -1.0107463828275507,0.15785779794842666 l -5.602822052344555 -38.0177089847006" fill="red" stroke="none" /><path d="M 103.06178313531738 120.77559828337769 l 4.450434384091244 30.1982318355238 a51.5244094488189,51.5244094488189 0 0,0 -0.8785437085526271,0.12175815269689007 l -3.9299620843517857 -30.27036455371329" fill="red" stroke="none" /><path d="M 102.70371172650421 120.8252237178851 l 4.061954310370101 31.287029018680908 a52.5496062992126,52.5496062992126 0 0,0 -0.8980291728682782,0.10873882654396438 l -3.5227977144504425 -31.35231337395022" fill="red" stroke="none" /><path d="M 102.34483914955558 120.86867818915974 l 3.426788552421395 30.497847810299586 a51.68976377952756,51.68976377952756 0 0,0 -0.8850454354416426,0.09173857811598364 l -2.9013105203741496 -30.55231575687133" fill="red" stroke="none" /><path d="M 101.98527174616119 120.90594882070398 l 2.751242734837556 28.972023562550405 a50.102362204724415,50.102362204724415 0 0,0 -0.859269068695377,0.07414135086271643 l -2.2521293484006377 -29.015089165691784" fill="red" stroke="none" /><path d="M 101.62511606390274 120.93702456842531 l 2.316110295798383 29.839381471535297 a50.92913385826772,50.92913385826772 0 0,0 -0.8746162966936177,0.06031866054318245 l -1.8021312383258346 -29.874828476594764" fill="red" stroke="none" /><path d="M 101.26447882468166 120.96189622390904 l 1.397896275474846 23.173623856982896 a44.21574803149606,44.21574803149606 0 0,0 -0.7601148858758705,0.03928925725816704 l -0.998793321185496 -23.194252921003265" fill="red" stroke="none" /><path d="M 100.90346689309514 120.98055641714683 l 1.8382350013841322 42.6879982534704 a63.72755905511811,63.72755905511811 0 0,0 -1.0963557201936143,0.03776070776837366 l -1.1031589295158657 -42.713315759664866" fill="red" stroke="none" /><line stroke="#e1ed5e" stroke-width="0.3" x1="102.19456741930631" x2="102.32365962044197" y1="184.97166512339345" y2="189.96999836594603" /><path d="M 102.22038585953345 185.97133177190398 a86.0,86.0 0 0,1 -42.740103519485714,-10.115201625700543" fill="none" id="id7" stroke="none" /><text fill="#e1ed5e" style="font-size:6.75px; font-family:Arial;" text-anchor="middle"><textPath startOffset="22.20632615414155" xlink:href="#id7">July</textPath></text><path d="M 100.54218724476979 120.99299961872073 l 0.9699601733204517 37.55598042026261 a58.568503937007875,58.568503937007875 0 0,0 -1.0080484869292679,0.01735446887969802 l -0.32335199649851587 -37.56711236642147" fill="red" stroke="none" /><path d="M 100.18074693466247 120.99922214144158 l 0.24706825084569703 28.704448533498095 a49.70551181102363,49.70551181102363 0 0,0 -0.8556303710162851,0.0 l 0.24706825084567724 -28.704448533498095" fill="red" stroke="none" /><path d="M 99.81925306533755 120.99922214144158 l -0.37344878468839693 43.387369211923385 a64.38897637795276,64.38897637795276 0 0,0 -1.1082272185495678,-0.019079136594450617 l 1.1202356931306325 -43.374512598049776" fill="red" stroke="none" /><path d="M 99.45781275523022 120.99299961872073 l -0.7778465826539682 30.117515988432427 a51.12755905511811,51.12755905511811 0 0,0 -0.8795879311984282,-0.030294786824029935 l 1.2961548655270394 -30.099664403182306" fill="red" stroke="none" /><path d="M 99.09653310690486 120.98055641714683 l -1.9492120370713983 45.265137466915206 a66.30708661417323,66.30708661417323 0 0,0 -1.1398880674503225,-0.05891919282170898 l 2.7280881729352098 -45.2248784673313" fill="red" stroke="none" /><path d="M 98.73552117531835 120.96189622390904 l -2.0709574451478967 34.33129460293763 a55.39370078740158,55.39370078740158 0 0,0 -0.9512872058193578,-0.06560633533105883 l 2.6616074117461843 -34.290559923090285" fill="red" stroke="none" /><path d="M 98.37488393609728 120.93702456842531 l -2.5566786580138827 32.93872054150692 a54.037795275590554,54.037795275590554 0 0,0 -0.9267628107249148,-0.0799649949238803 l 3.123285786480339 -32.88983129430437" fill="red" stroke="none" /><path d="M 98.01472825383883 120.90594882070398 l -0.7378332788882483 7.7697699554112445 a28.80472440944882,28.80472440944882 0 0,0 -0.4932019029236665,-0.05112239381894866 l 0.8714677784175082 -7.755918193136535" fill="red" stroke="none" /><path d="M 97.2962882734958 120.8252237178851 l -2.354570999617038 18.135982229906226 a39.28818897637795,39.28818897637795 0 0,0 -0.6699036750709365,-0.09284254518863838 l 2.6664032658748056 -18.092765119224985" fill="red" stroke="none" /><path d="M 96.93821686468263 120.77559828337769 l -7.548862482917895 51.22248294874979 a72.77574803149606,72.77574803149606 0 0,0 -1.2377565331387357,-0.19331211472749457 l 8.429454879665148 -51.084952526675195" fill="red" stroke="none" /><path d="M 96.58105272829116 120.7198165907248 l -5.978581181898429 36.231943846206015 a57.72188976377953,57.72188976377953 0 0,0 -0.9789385908546205,-0.17020102212509577 l 6.601368744225099 -36.123664245559915" fill="red" stroke="none" /><path d="M 96.22490169976321 120.6578951692458 l -9.188054209473965 50.27838895129038 a72.11102362204724,72.11102362204724 0 0,0 -1.2191308920101085,-0.23364933700970902 l 10.052152716055769 -50.1127824159322" fill="red" stroke="none" /><path d="M 95.86986931433489 120.58985236759428 l -3.674840688820129 18.320104862505143 a39.68503937007874,39.68503937007874 0 0,0 -0.6686145610783242,-0.1401146820915757 l 3.98964671132784 -18.254134199687027" fill="red" stroke="none" /><path d="M 95.51606077576429 120.51570834832081 l -6.404618702963453 29.30353932586926 a50.99527559055118,50.99527559055118 0 0,0 -0.8559431962774894,-0.19480988476095595 l 6.908082048633805 -29.188952707530618" fill="red" stroke="none" /><path d="M 95.16358092515715 120.4354850818985 l -8.257709544794675 34.89157941069978 a56.85543307086614,56.85543307086614 0 0,0 -0.9504244297157046,-0.23359120111262946 l 8.857087259253591 -34.74426695127311" fill="red" stroke="none" /><path d="M 94.81253420990036 120.34920634021253 l -10.097994430145143 39.612053475805844 a61.878897637795276,61.878897637795276 0 0,0 -1.029869814890429,-0.27199797845365103 l 10.778354687847061 -39.43236414804861" fill="red" stroke="none" /><path d="M 94.46302465271185 120.25689768951611 l -9.239337130687442 33.801903609151616 a56.04188976377953,56.04188976377953 0 0,0 -0.92834412996838,-0.26235932410793966 l 9.819812428760436 -33.63785549170515" fill="red" stroke="none" /><path d="M 94.11515582081647 120.15858648285463 l -10.842941243535021 37.14259241722822 a59.69291338582677,59.69291338582677 0 0,0 -0.9838671986383563,-0.2964311161640399 l 11.480683416613624 -36.95044593195846" fill="red" stroke="none" /><path d="M 93.76903079525671 120.05430185196036 l -6.191719005028375 19.927975541081874 a41.867716535433075,41.867716535433075 0 0,0 -0.6863886253777473,-0.21975996240757714 l 6.533828975497062 -19.818442732014592" fill="red" stroke="none" /><path d="M 93.42475214034765 119.94407469862007 l -12.403920332405592 37.62363319917634 a60.6155905511811,60.6155905511811 0 0,0 -0.9881214905501713,-0.3352244587628823 l 13.049711555892989 -37.404545753515336" fill="red" stroke="none" /><path d="M 93.08242187328487 119.8279376855182 l -18.05651298429972 51.75560112401008 a75.81496062992126,75.81496062992126 0 0,0 -1.2284927673328372,-0.44049379868645155 l 18.944725312262282 -51.437119784283674" fill="red" stroke="none" /><path d="M 92.7421414339146 119.70592522655815 l -21.773575698256195 59.117775679674445 a84.0,84.0 0 0,0 -1.3525191169588682,-0.5114069995734671 l 22.787965035975347 -58.734220429994345" fill="red" stroke="none" /><path d="M 92.40401165467489 119.57807347666478 l -16.304460023115173 42.023486848337164 a66.07559055118111,66.07559055118111 0 0,0 -1.0568284882966419,-0.420533865947526 l 17.025409587453673 -41.73660613798357" fill="red" stroke="none" /><path d="M 92.06813273071674 119.44442032107085 l -2.997871093902334 7.349072247333864 a28.937007874015748,28.937007874015748 0 0,0 -0.459586571558615,-0.1921072241850763 l 3.123929124958411 -7.2963799801288145" fill="red" stroke="none" /><path d="M 91.7346041902142 119.30500536409082 l -5.492908711385207 12.8294681317265 a34.955905511811025,34.955905511811025 0 0,0 -0.5511036958846699,-0.24158766483112443 l 5.71293308192762 -12.733015913600923" fill="red" stroke="none" /><path d="M 91.40352486487194 119.15986991738527 l -6.159679033831913 13.728725688835121 a36.04724409448819,36.04724409448819 0 0,0 -0.5639368261630123,-0.2588757375367858 l 6.395083855762345 -13.620662880964261" fill="red" stroke="none" /><path d="M 90.7491055286396 118.85261126421891 l -4.3850696628023265 8.936434630755734 a30.954330708661416,30.954330708661416 0 0,0 -0.4763224289904507,-0.23883795418723344 l 4.538245999475538 -8.8596288356592" fill="red" stroke="none" /><path d="M 90.42595943632237 118.69057910512821 l -9.491115802889873 18.528692199493246 a41.81811023622048,41.81811023622048 0 0,0 -0.6378438641814903,-0.3336897633770168 l 9.808650569597859 -18.362573017171513" fill="red" stroke="none" /><line stroke="#e1ed5e" stroke-width="0.3" x1="58.666819895761336" x2="56.23545636021788" y1="174.27360380694188" y2="178.64263932499728" /><path d="M 58.180547188652646 175.14741091055294 a86.0,86.0 0 0,1 -31.652253787137756,-30.449443065178592" fill="none" id="id8" stroke="none" /><text fill="#e1ed5e" style="font-size:6.75px; font-family:Arial;" text-anchor="middle"><textPath startOffset="22.20632615414155" xlink:href="#id8">August</textPath></text><path d="M 87.07902340077011 116.55440617244103 l -8.240937831004883 10.558322046989947 a34.39370078740157,34.39370078740157 0 0,0 -0.46356568121881503,-0.3682846132829356 l 8.421461004941056 -10.41490351970188" fill="red" stroke="none" /><path d="M 83.95833913139862 113.55231037782056 l -9.473421772796096 8.003332900287734 a33.40157480314961,33.40157480314961 0 0,0 -0.3672646300905957,-0.44239390600803347 l 9.609782402780228 -7.83907773716594" fill="red" stroke="none" /><path d="M 83.72743513129214 113.27417163493432 l -5.53523466400141 4.51530877660758 a28.143307086614172,28.143307086614172 0 0,0 -0.3029856013249029,-0.3780211238187418 l 5.612138177381174 -4.419359819210579" fill="red" stroke="none" /><path d="M 83.50135304334701 112.99209946851258 l -12.965078474598174 10.209539582342957 a37.502362204724406,37.502362204724406 0 0,0 -0.39501270751922896,-0.5106071727174353 l 13.138897999335473 -9.98485441551227" fill="red" stroke="none" /><path d="M 83.28015986056508 112.70617746262583 l -14.982029983210188 11.385535395644252 a39.817322834645665,39.817322834645665 0 0,0 -0.41000225968364973,-0.549265028457942 l 15.175793509588923 -11.125957487677002" fill="red" stroke="none" /><path d="M 83.06392112726016 112.41649034213515 l -19.44315196571235 14.254521983333104 a45.108661417322836,45.108661417322836 0 0,0 -0.4537076585821597,-0.6301602553773977 l 19.685639416670117 -13.917728122504569" fill="red" stroke="none" /><path d="M 82.6465618267979 111.8261652097733 l -6.66809277836427 4.544227261708164 a29.069291338582676,29.069291338582676 0 0,0 -0.2782303469983748,-0.41591661797335977 l 6.745326230773375 -4.428773729528983" fill="red" stroke="none" /><path d="M 82.44556493220864 111.52570212397912 l -12.882467309591776 8.458231794920108 a36.411023622047246,36.411023622047246 0 0,0 -0.33948101641239803,-0.5268820763566701 l 13.026153189381219 -8.23522811864199" fill="red" stroke="none" /><line stroke="#e1ed5e" stroke-width="0.3" x1="26.63291911575756" x2="22.317208475507996" y1="142.92168965132927" y2="145.44649492493687" /><path d="M 25.769776987707644 143.4266507060508 a86.0,86.0 0 0,1 -11.730757126820373,-40.83630448921669" fill="none" id="id9" stroke="none" /><text fill="#e1ed5e" style="font-size:6.75px; font-family:Arial;" text-anchor="middle"><textPath startOffset="21.46611528233685" xlink:href="#id9">September</textPath></text><line stroke="#e1ed5e" stroke-width="0.3" x1="15.007084014347285" x2="10.007500721073583" y1="101.09737516637583" y2="101.16192664675087" /><path d="M 14.007167355692545 101.11028546245083 a86.0,86.0 0 0,1 10.666146001902534,-42.60595125391555" fill="none" id="id10" stroke="none" /><text fill="#e1ed5e" style="font-size:6.75px; font-family:Arial;" text-anchor="middle"><textPath startOffset="22.20632615414155" xlink:href="#id10">October</textPath></text><path d="M 79.26566170972629 96.67025291283419 l -18.056833188222623 -2.8997639987443993 a39.28818897637795,39.28818897637795 0 0,0 0.1129781236440552,-0.6668032810721203 l 18.004243203058344 3.2101530681323474" fill="red" stroke="none" /><path d="M 80.38941819471856 92.48833698450439 l -15.1325749363589 -5.796401382035986 a37.204724409448815,37.204724409448815 0 0,0 0.23422402580015353,-0.596074597625616 l 15.030557360677054 6.056024984557366" fill="red" stroke="none" /><path d="M 80.65960295795068 91.81776055985345 l -18.030732360461737 -7.62816653317599 a40.577952755905514,40.577952755905514 0 0,0 0.27768708507563894,-0.64094007809802 l 17.896754565543418 7.93740575586061" fill="red" stroke="none" /><path d="M 81.26839172434947 90.50648371742162 l -20.206538061134818 -10.241037249710535 a43.653543307086615,43.653543307086615 0 0,0 0.3454670050844874,-0.667332293884027 l 20.027261622890215 10.587342265854897" fill="red" stroke="none" /><path d="M 81.43458229118936 90.18545643968196 l -15.086229193301245 -7.975282641140332 a38.06456692913386,38.06456692913386 0 0,0 0.3112084689756519,-0.5766220286367306 l 14.946712625107121 8.233785653109535" fill="red" stroke="none" /><path d="M 81.6062741919709 89.86733742301443 l -17.959228347996923 -9.893308342883548 a41.503937007874015,41.503937007874015 0 0,0 0.35010025224881813,-0.6227892835147171 l 17.786270454455675 10.20098113633305" fill="red" stroke="none" /><line stroke="#e1ed5e" stroke-width="0.3" x1="26.266209847984243" x2="21.928928074336255" y1="57.711370442889674" y2="55.22380399835377" /><path d="M 25.398753493254645 57.213857153982495 a86.0,86.0 0 0,1 29.58750427330803,-30.492523968695096" fill="none" id="id11" stroke="none" /><text fill="#e1ed5e" style="font-size:6.75px; font-family:Arial;" text-anchor="middle"><textPath startOffset="21.46611528233685" xlink:href="#id11">November</textPath></text><path d="M 81.78341655067845 89.55222093294921 l -12.909389845975893 -7.403937921532052 a35.881889763779526,35.881889763779526 0 0,0 0.3118996113381061,-0.5331375395213029 l 12.780030560167463 7.6250548734072465" fill="red" stroke="none" /><path d="M 81.96595687620814 89.24020034530311 l -10.706825602629184 -6.388101527276738 a33.46771653543307,33.46771653543307 0 0,0 0.2994312002115724,-0.4921861630148672 l 10.595278604131396 6.57145546349868" fill="red" stroke="none" /><path d="M 82.15384107792192 88.93136811851018 l -13.630530830248619 -8.453994429169393 a37.03937007874016,37.03937007874016 0 0,0 0.34071353103074303,-0.538926983559179 l 13.482989702971912 8.687369060442787" fill="red" stroke="none" /><path d="M 82.34701348167596 88.62581576622439 l -6.449595074411306 -4.155607468088096 a28.67244094488189,28.67244094488189 0 0,0 0.2708908931412333,-0.41258541501002005 l 6.3771075459121525 4.266010947075783" fill="red" stroke="none" /><path d="M 82.54541684631803 88.32363383020206 l -18.80147224743065 -12.577377102585494 a43.62047244094488,43.62047244094488 0 0,0 0.42286004690225426,-0.6204949406398765 l 18.582187734859655 12.899150066495785" fill="red" stroke="none" /><path d="M 82.7489923806493 88.02491185347247 l -14.126809389074591 -9.806371395581591 a38.196850393700785,38.196850393700785 0 0,0 0.37958098287641046,-0.5368903812862786 l 13.955915786394304 10.048088277199655" fill="red" stroke="none" /><path d="M 82.95767976084542 87.72973835380427 l -26.945652787576698 -19.400539673670107 a54.20314960629921,54.20314960629921 0 0,0 0.5516780757325274,-0.7524882753108825 l 26.607712099330534 19.86149039265249" fill="red" stroke="none" /><path d="M 83.6137871275137 86.86637796730984 l -16.128162276069194 -12.926793339261971 a41.66929133858268,41.66929133858268 0 0,0 0.4534045669035361,-0.5558203878642779 l 15.903259217089264 13.20249789673433" fill="red" stroke="none" /><path d="M 83.84228863543731 86.58626213691792 l -15.954149646583943 -13.244745890003875 a41.73543307086614,41.73543307086614 0 0,0 0.46363969414054995,-0.5488031583748908 l 15.723799338956269 13.517407998007881" fill="red" stroke="none" /><path d="M 84.07557802195018 86.31012108654704 l -15.723799338956269 -13.517407998007881 a41.73543307086614,41.73543307086614 0 0,0 0.4730177451413565,-0.5407410520817099 l 15.488789730237068 13.786064606292534" fill="red" stroke="none" /><path d="M 84.31358615837235 86.03803664274999 l -16.67453439858058 -14.84145711203742 a43.32283464566929,43.32283464566929 0 0,0 0.5005981587291041,-0.5527729900423332 l 16.41659259923543 15.126282889349309" fill="red" stroke="none" /><path d="M 84.80347519578584 85.50635884689758 l -6.629035229554836 -6.322422991195854 a30.16062992125984,30.16062992125984 0 0,0 0.36154801811457643,-0.37260701363509796 l 6.519222947737141 6.435594200381075" fill="red" stroke="none" /><path d="M 87.80319425747018 82.90503203632743 l -4.3024952540577655 -6.030350903720717 a28.407874015748032,28.407874015748032 0 0,0 0.40050889936635564,-0.28058207884373754 l 4.1980552151077495 6.103517825328398" fill="red" stroke="none" /><path d="M 88.09926311788651 82.69761687909137 l -6.372048094359978 -9.264268127730604 a32.24409448818898,32.24409448818898 0 0,0 0.4600085400844472,-0.31059981969889955 l 6.211634859868991 9.37257985972817" fill="red" stroke="none" /><line stroke="#e1ed5e" stroke-width="0.3" x1="56.762969772571076" x2="54.21961505331055" y1="26.818313649435495" y2="22.513508569990535" /><path d="M 56.25429882871897 25.957352633546506 a86.0,86.0 0 0,1 42.265352541879196,-11.944610805530505" fill="none" id="id12" stroke="none" /><text fill="#e1ed5e" style="font-size:6.75px; font-family:Arial;" text-anchor="middle"><textPath startOffset="22.20632615414155" xlink:href="#id12">December</textPath></text><path d="M 89.3179101791058 81.91981866633112 l -8.07465057327436 -13.666908724663088 a36.874015748031496,36.874015748031496 0 0,0 0.5492529815766426,-0.31816277875605886 l 7.838200859232397 13.803875660809194" fill="red" stroke="none" /><path d="M 89.63071344664047 81.73862282372117 l -7.250335794789966 -12.768584986248502 a35.68346456692913,35.68346456692913 0 0,0 0.5367403273878154,-0.29869541107489894 l 7.029471378330105 12.891495794883586" fill="red" stroke="none" /><path d="M 89.94658935756843 81.56283822128135 l -9.261803505232233 -16.985416756772295 a40.346456692913385,40.346456692913385 0 0,0 0.6126032176936496,-0.32723142309900105 l 8.968055241010278 17.142326906373043" fill="red" stroke="none" /><path d="M 90.26544431104013 81.39251694778311 l -3.173311854511329 -6.065746443793537 a27.84566929133858,27.84566929133858 0 0,0 0.4266215266933243,-0.21853211604231593 l 3.0684298402292405 6.1194710851483585" fill="red" stroke="none" /><path d="M 90.58718382345135 81.22770947309562 l -6.8780263085331805 -13.7170752826514 a36.34488188976378,36.34488188976378 0 0,0 0.5616646890638455,-0.27560642364066495 l 6.64089035245891 13.833436866426895" fill="red" stroke="none" /><path d="M 90.91171255644093 81.06846463323043 l -6.726763934602775 -14.012317515561726 a36.54330708661418,36.54330708661418 0 0,0 0.5694174433290279,-0.26734912469730965 l 6.484568279974138 14.126031622899042" fill="red" stroke="none" /><path d="M 91.23893434514133 80.91482961587045 l -11.382486874422685 -24.795693806152567 a48.28346456692913,48.28346456692913 0 0,0 0.7583214284071014,-0.3402367203871933 l 10.95398332754881 24.98795085705629" fill="red" stroke="none" /><path d="M 91.56875222667455 80.76684994638697 l -4.009821775660292 -9.147104434946668 a30.98740157480315,30.98740157480315 0 0,0 0.49036270700863177,-0.2099477201556998 l 3.8517753108613526 9.214771683065154" fill="red" stroke="none" /><path d="M 91.90106846888425 80.62456947434976 l -2.5635987996130183 -6.133010292371176 a27.647244094488187,27.647244094488187 0 0,0 0.44066564570726596,-0.17975858133941677 l 2.457649284317372 6.176229759894169" fill="red" stroke="none" /><path d="M 92.23578459929587 80.48803036053334 l -5.465518557661022 -13.735197525734797 a35.78267716535433,35.78267716535433 0 0,0 0.5742554574336223,-0.2228021958904304 l 5.228279935227723 13.827242425515779" fill="red" stroke="none" /><path d="M 93.25333710446033 80.11325718540243 l -7.830378825216906 -23.081148747021125 a45.37322834645669,45.37322834645669 0 0,0 0.7417813667455345,-0.2445536540414663 l 7.431914636228962 23.212516125321823" fill="red" stroke="none" /><path d="M 95.33964822691252 79.52364482259891 l -2.869602430357806 -12.608275392698943 a33.93070866141733,33.93070866141733 0 0,0 0.5706131732574607,-0.12471393850966807 l 2.652146532946824 12.655802829304479" fill="red" stroke="none" /><path d="M 96.04723909329186 79.375362276772 l -2.8447428887647566 -14.843243211834963 a36.113385826771655,36.113385826771655 0 0,0 0.6115283901663631,-0.11175290451180483 l 2.5888193774955 14.890011597697503" fill="red" stroke="none" /><path d="M 96.40284397218896 79.31037775812273 l -1.9600251742088473 -11.273400465652815 a32.44251968503937,32.44251968503937 0 0,0 0.5510142500437057,-0.09092207252948964 l 1.7656817180262558 11.305468801121933" fill="red" stroke="none" /><path d="M 96.75951476605007 79.25152402106235 l -1.8014036024949944 -11.53419215837006 a32.67401574803149,32.67401574803149 0 0,0 0.5564400745456614,-0.0820048025967916 l 1.6025945475206842 11.56349144512782" fill="red" stroke="none" /><path d="M 97.11714578562143 79.19881850522333 l -3.6682617405006037 -26.468275035873315 a47.721259842519686,47.721259842519686 0 0,0 0.8146366090758445,-0.10576321208527675 l 3.2121104029169016 26.52749657112273" fill="red" stroke="none" /><path d="M 97.47563105711357 79.15227682838746 l -2.409082802187676 -19.895622428342048 a41.040944881889764,41.040944881889764 0 0,0 0.7020606629046299,-0.07888469565824767 l 2.0662554357733285 19.934143077470893" fill="red" stroke="none" /><path d="M 97.83486435360386 79.11191278185805 l -1.7218795298111065 -16.611785897892407 a37.7007874015748,37.7007874015748 0 0,0 0.6460745749876071,-0.06135256575227429 l 1.435679827733263 16.638964008159864" fill="red" stroke="none" /><path d="M 98.19473922651362 79.07773832637324 l -1.435679827733263 -16.638964008159864 a37.7007874015748,37.7007874015748 0 0,0 0.6470349356329748,-0.05022236394512299 l 1.149054702737954 16.661211634293448" fill="red" stroke="none" /><path d="M 98.55514903715128 79.0497635885617 l -1.4243727602256622 -20.653303926866734 a41.70236220472441,41.70236220472441 0 0,0 0.7165616636428904,-0.04322495639595844 l 1.0686490477431487 20.674762152642998" fill="red" stroke="none" /><path d="M 98.91598698831166 79.02799685794201 l -1.0345069056427287 -20.014226620609676 a41.040944881889764,41.040944881889764 0 0,0 0.7058244519761399,-0.030394285643271162 l 0.6898416212772648 20.02906863277714" fill="red" stroke="none" /><path d="M 99.27714615592234 79.0124445844662 l -0.7478975993055492 -21.714683319694025 a42.72755905511811,42.72755905511811 0 0,0 0.7352667516979784,-0.018989770948143844 l 0.3740042124126919 21.724339882784527" fill="red" stroke="none" /><path d="M 99.63851952072746 79.00311137660856 l -0.19468712426962045 -11.308560486928933 a32.31023622047244,32.31023622047244 0 0,0 0.5561676035421534,-0.004787110152066165 l 2.7702089170004064e-15 11.31023622047244" fill="red" stroke="none" /></svg>