<?xml version="1.0" encoding="utf-8" ?>
<svg baseProfile="full" height="200mm" version="1.1" viewBox="0,0,200,200" width="200mm" xmlns="http://www.w3.org/2000/svg" xmlns:ev="http://www.w3.org/2001/xml-events" xmlns:xlink="http://www.w3.org/1999/xlink"><defs /><rect fill="#1a1a1a" height="200" width="200" x="0" y="0" /><rect fill="#1a1a1a" height="200" width="180" x="10" y="0" /><text alignment-baseline="middle" fill="#e1ed5e" style="dominant-baseline: central; font-size:9.0px; font-family:Arial;" text-anchor="middle" x="100.0" y="100.0">2026</text><line stroke="#e1ed5e" stroke-width="0.3" x1="100.0" x2="100.0" y1="15.0" y2="10.0" /><path d="M 100.0 14.0 a86.0,86.0 0 0,1 42.46469731375804,11.215312516191453" fill="none" id="id13" stroke="none" /><text fill="#e1ed5e" style="font-size:6.75px; font-family:Arial;" text-anchor="middle"><textPath startOffset="22.20632615414155" xlink:href="#id13">January</textPath></text><path d="M 100.0 79.0 l 0.0 -62.078313253012055 a83.07831325301206,83.07831325301206 0 0,0 1.4300565948500974,0.012308948596854666 l -1.068576115577569 62.06911568102376" fill="red" stroke="none" /><path d="M 100.36148047927253 79.00311137660856 l 0.5730181091394124 -33.28422447873238 a54.28915662650602,54.28915662650602 0 0,0 0.9342216763120629,0.024128189676722575 l -1.1458664206463431 33.269429496913304" fill="red" stroke="none" /><path d="M 100.72285384407766 79.0124445844662 l 1.2559741060178975 -36.466329073978265 a57.48795180722892,57.48795180722892 0 0,0 0.9886809915400485,0.042574683241425514 l -1.8834959299472775 36.439306664212644" fill="red" stroke="none" /><path d="M 101.08401301168833 79.027996857942 l 2.381656814836751 -46.077043047912284 a67.13855421686748,67.13855421686748 0 0,0 1.1536256355945282,0.06958984875401923 l -3.174444499270891 46.02921992977796" fill="red" stroke="none" /><path d="M 101.44485096284872 79.0497635885617 l 2.3575192991059963 -34.18386250954132 a55.265060240963855,55.265060240963855 0 0,0 0.9484795188725995,0.07362026525617511 l -2.945589007340937 34.13821698209668" fill="red" stroke="none" /><path d="M 101.80526077348638 79.07773832637324 l 2.9409282652407143 -34.084200815985774 a55.21084337349398,55.21084337349398 0 0,0 0.946142630584599,0.08984764329271133 l -3.5271960229155574 34.02852762817788" fill="red" stroke="none" /><path d="M 102.16513564639614 79.11191278185805 l 3.583094533579829 -34.567806988370876 a55.75301204819277,55.75301204819277 0 0,0 0.9537303955873473,0.10716272249844791 l -4.177591632676902 34.50100831240183" fill="red" stroke="none" /><path d="M 102.52436894288641 79.15227682838746 l 4.1384878108421725 -34.178065956903524 a55.4277108433735,55.4277108433735 0 0,0 0.9461913318988262,0.12284279075352215 l -4.726193871248845 34.101764842985865" fill="red" stroke="none" /><path d="M 102.88285421437855 79.19881850522331 l 5.0090212210243665 -36.142500376896834 a57.48795180722892,57.48795180722892 0 0,0 0.9790226103755989,0.14428248354901702 l -5.630412811828621 36.050923409186844" fill="red" stroke="none" /><path d="M 103.2404852339499 79.25152402106235 l 2.534940686454787 -16.230950658222305 a37.42771084337349,37.42771084337349 0 0,0 0.6356843494719359,0.10489336441655533 l -2.813954242065598 16.184911030866125" fill="red" stroke="none" /><path d="M 103.59715602781102 79.31037775812273 l 5.618621506434612 -32.316406513775604 a53.80120481927711,53.80120481927711 0 0,0 0.9110462344893839,0.16648787609195473 l -6.174062862026896 32.21490315633291" fill="red" stroke="none" /><path d="M 103.95276090670814 79.375362276772 l 6.174062862026896 -32.21490315633291 a53.80120481927711,53.80120481927711 0 0,0 0.9080454380519517,0.18214537242525888 l -6.7276747095459735 32.10385382783045" fill="red" stroke="none" /><path d="M 104.307194497241 79.44645832069477 l 7.027918043691 -33.536587800312134 a55.265060240963855,55.265060240963855 0 0,0 0.9293932440090461,0.20312936559623743 l -7.604154011853574 33.410644936620024" fill="red" stroke="none" /><path d="M 104.66035177308747 79.52364482259891 l 7.291324891112762 -32.036156379100845 a53.855421686746986,53.855421686746986 0 0,0 0.9021457941924955,0.21350876232376198 l -7.841694372267781 31.905901704636214" fill="red" stroke="none" /><path d="M 105.01212808612495 79.60689891045804 l 4.334930057276745 -17.637750942331905 a39.16265060240964,39.16265060240964 0 0,0 0.6532537334075308,0.16652892194669827 l -4.6378926793693 17.560519024216337" fill="red" stroke="none" /><path d="M 105.36241919743992 79.69619591428918 l 9.358852093294466 -35.43555480707535 a57.65060240963855,57.65060240963855 0 0,0 0.9572803213221707,0.2616608732909839 l -9.967430303840349 35.26920739295807" fill="red" stroke="none" /><path d="M 105.71112130821622 79.79150937346287 l 8.979534105086943 -31.773590683892703 a54.01807228915663,54.01807228915663 0 0,0 0.8926095001933531,0.2605771900705639 l -9.525133823003722 31.614315164903434" fill="red" stroke="none" /><path d="M 106.0581310904928 79.89281104454417 l 4.864230901402558 -16.144584591600935 a37.86144578313253,37.86144578313253 0 0,0 0.6223964235551165,0.19338159846912167 l -5.141412697668392 16.058462858249293" fill="red" stroke="none" /><path d="M 106.40334571778207 80.00007090966166 l 10.11750665907735 -31.600576428451976 a54.18072289156626,54.18072289156626 0 0,0 0.8857701367618178,0.292024487668511 l -10.659959618081585 31.42173821652423" fill="red" stroke="none" /><path d="M 106.74666289553966 80.11325718540242 l 5.486743921071405 -16.172953493799238 a38.07831325301205,38.07831325301205 0 0,0 0.6188958841985219,0.2159206216576238 l -5.7643218093332 16.076112018969408" fill="red" stroke="none" /><path d="M 107.08798089147638 80.2323363322302 l 11.180954366674873 -31.18255378917558 a54.126506024096386,54.126506024096386 0 0,0 0.8743174994071717,0.32201851370056583 l -11.716054191854623 30.98547200766869" fill="red" stroke="none" /><path d="M 107.4271985657038 80.35727306442388 l 11.39007559731857 -30.123355765229462 a53.204819277108435,53.204819277108435 0 0,0 0.8538533237874185,0.33128182422222907 l -11.906912086105654 29.922831237116686" fill="red" stroke="none" /><path d="M 107.76421540070413 80.48803036053334 l 11.646323101056204 -29.26795445919999 a52.5,52.5 0 0,0 0.8367903260290313,0.34134778454105175 l -12.148397296673622 29.06314578847536" fill="red" stroke="none" /><path d="M 108.09893153111575 80.62456947434976 l 12.566586532359462 -30.063598311314443 a53.58433734939759,53.58433734939759 0 0,0 0.847949791868946,0.36304784818444513 l -13.082220082018724 29.84283093516721" fill="red" stroke="none" /><path d="M 108.43124777332544 80.76684994638697 l 6.639063435966241 -15.144864284901828 a37.536144578313255,37.536144578313255 0 0,0 0.5895281755116157,0.26450410801821395 l -6.8987737299446374 15.028339846367084" fill="red" stroke="none" /><path d="M 108.76106565485865 80.91482961587045 l 13.955879971724068 -30.401592410519637 a54.45180722891566,54.45180722891566 0 0,0 0.8484675123531078,0.398366873757032 l -14.477125695376774 30.156860554122602" fill="red" stroke="none" /><path d="M 109.08828744355905 81.06846463323043 l 14.312879536758235 -29.81472437279544 a54.0722891566265,54.0722891566265 0 0,0 0.8356195947545507,0.4100349060900023 l -14.823970398523217 29.563934306570605" fill="red" stroke="none" /><line stroke="#e1ed5e" stroke-width="0.3" x1="143.23703022742887" x2="145.7803849466894" y1="26.81831364943548" y2="22.513508569990506" /><path d="M 143.74570117128098 25.957352633546492 a86.0,86.0 0 0,1 28.547481713284135,27.462654790039103" fill="none" id="id14" stroke="none" /><text fill="#e1ed5e" style="font-size:6.75px; font-family:Arial;" text-anchor="middle"><textPath startOffset="19.985693538727396" xlink:href="#id14">February</textPath></text><path d="M 110.68208982089419 81.91981866633111 l 8.1908279091366 -13.863546960670377 a37.10240963855422,37.10240963855422 0 0,0 0.5470625456585114,0.3295990626346509 l -8.428252521012748 13.720501288577111" fill="red" stroke="none" /><path d="M 110.99172775467656 82.1063720568725 l 8.399874566396543 -13.674304314541494 a37.04819277108434,37.04819277108434 0 0,0 0.5405169859181242,0.33847168699480584 l -8.63401070468693 13.527688286223745" fill="red" stroke="none" /><path d="M 111.2981086023043 82.29822771554956 l 17.705555735624884 -27.7409013166818 a53.90963855421687,53.90963855421687 0 0,0 0.7779237195227989,0.5059832265336729 l -18.180446480931966 27.4320191659886" fill="red" stroke="none" /><path d="M 111.60114157652 82.49532879139004 l 9.254955457344279 -13.964569888452187 a37.75301204819277,37.75301204819277 0 0,0 0.5386011991262772,0.36366593391400875 l -9.493961350877099 13.803192042239509" fill="red" stroke="none" /><path d="M 111.90073688211348 82.69761687909136 l 13.5803589549763 -19.744371788575602 a44.963855421686745,44.963855421686745 0 0,0 0.6339236873630606,0.44410405439184875 l -13.918213781923011 19.50768289141982" fill="red" stroke="none" /><path d="M 112.19680574252982 82.90503203632743 l 19.743710500601196 -27.672663287149835 a54.993975903614455,54.993975903614455 0 0,0 0.7658688488256634,0.5564362895463497 l -20.21712466578065 27.32870776278681" fill="red" stroke="none" /><path d="M 112.77801427241765 83.33499621200491 l 15.505163617993874 -20.221734372696286 a46.48192771084337,46.48192771084337 0 0,0 0.6307541033820526,0.4923135825454971 l -15.850950276535357 19.951842400927564" fill="red" stroke="none" /><path d="M 113.06298171725822 83.55741782278167 l 14.50193323172384 -18.25381326042309 a44.31325301204819,44.31325301204819 0 0,0 0.593157372392313,0.479625343810976 l -14.813994002680642 18.001481819347987" fill="red" stroke="none" /><path d="M 113.34407831869373 83.78471172551755 l 15.330761235332293 -18.629440487464777 a45.126506024096386,45.126506024096386 0 0,0 0.5955462394260619,0.49875284852636237 l -15.649165011717473 18.362786481544596" fill="red" stroke="none" /><path d="M 113.6212207817346 84.01681056812373 l 11.956665402211101 -14.02999416567452 a39.433734939759034,39.433734939759034 0 0,0 0.5128379787889505,0.44472804161641766 l -12.196397179646816 13.822101130638432" fill="red" stroke="none" /><line stroke="#e1ed5e" stroke-width="0.3" x1="172.23445277983987" x2="176.4835382374775" y1="55.19839476539836" y2="52.563006222186495" /><path d="M 173.08426987136738 54.67131705675599 a86.0,86.0 0 0,1 12.851231095245387,41.99856678651699" fill="none" id="id15" stroke="none" /><text fill="#e1ed5e" style="font-size:6.75px; font-family:Arial;" text-anchor="middle"><textPath startOffset="22.20632615414155" xlink:href="#id15">March</textPath></text><path d="M 118.21658344932153 89.55222093294921 l 13.403768372779613 -7.687479434017581 a36.45180722891566,36.45180722891566 0 0,0 0.30748376722303156,0.5469793119290195 l -13.534109781295077 7.455616612153767" fill="red" stroke="none" /><path d="M 118.73160827565052 90.50648371742162 l 30.757236308038888 -15.588321056075362 a55.48192771084337,55.48192771084337 0 0,0 0.42441029279951553,0.8555852524167159 l -31.021006613791812 15.056576215159696" fill="red" stroke="none" /><path d="M 118.89224826269711 90.83032412892265 l 34.87424485669992 -16.926811311067897 a59.765060240963855,59.765060240963855 0 0,0 0.44124204213882295,0.9293682714946068 l -35.1604450926805 16.32400062393275" fill="red" stroke="none" /><path d="M 119.04729006885535 91.15688171328212 l 14.457581618528764 -6.71224641040032 a36.93975903614458,36.93975903614458 0 0,0 0.262795924377727,0.579035984446492 l -14.570979859869839 6.462388417111765" fill="red" stroke="none" /><path d="M 119.196687751892 91.48605970444005 l 13.431073272192947 -5.9568274184941785 a35.69277108433735,35.69277108433735 0 0,0 0.24425632363227673,0.5637772714642509 l -13.531620305667905 5.724751002443325" fill="red" stroke="none" /><path d="M 119.85752413597 93.16781622104841 l 15.072578561037467 -5.185874434625901 a36.93975903614458,36.93975903614458 0 0,0 0.20169584469062135,0.603044903293279 l -15.159611699499857 4.925656428410307" fill="red" stroke="none" /><path d="M 120.08093135843002 93.85539295169968 l 31.313810345503608 -9.58177966568001 a53.74698795180723,53.74698795180723 0 0,0 0.2630892099740081,0.8870060273802238 l -31.474105452589317 9.041344251553257" fill="red" stroke="none" /><path d="M 120.18372546131832 94.20196356495316 l 15.632833834067542 -4.490733899778108 a37.265060240963855,37.265060240963855 0 0,0 0.17179765842698735,0.6180475837780733 l -15.707818263060892 4.220975012581082" fill="red" stroke="none" /><path d="M 120.28053869075195 94.5502522615342 l 32.358105621905445 -8.69520852591703 a54.506024096385545,54.506024096385545 0 0,0 0.235683186815118,0.9081834600212282 l -32.502985140590866 8.136928640346952" fill="red" stroke="none" /><path d="M 120.45610955862082 95.25157060432595 l 15.738177233568866 -3.6532666779110192 a37.1566265060241,37.1566265060241 0 0,0 0.13925881267109358,0.6242699512954167 l -15.798730433241998 3.3818185570656385" fill="red" stroke="none" /><path d="M 120.6074358757038 95.95851677861258 l 34.05015222147271 -6.677838025011932 a55.69879518072289,55.69879518072289 0 0,0 0.17641738288280007,0.9424287136492095 l -34.160055328265365 6.09073123390016" fill="red" stroke="none" /><path d="M 120.67395015179393 96.31383870115 l 17.987404133789727 -3.207150665350552 a39.27108433734939,39.27108433734939 0 0,0 0.11292893710546932,0.6665129793370776 l -18.03994493241542 2.8970518976976365" fill="red" stroke="none" /><path d="M 120.96714384426684 98.82574320788733 l 19.054478398920644 -1.0671387026428378 a40.084337349397586,40.084337349397586 0 0,0 0.03265230373330879,0.6892385245354444 l -19.07002431088745 0.7389890714843937" fill="red" stroke="none" /><path d="M 120.98425023603335 99.18683210126433 l 17.6072667643137 -0.6823052506603068 a38.62048192771084,38.62048192771084 0 0,0 0.020024362261864458,0.6645110972054878 l -17.61640282103121 0.37912400602981977" fill="red" stroke="none" /><line stroke="#e1ed5e" stroke-width="0.3" x1="184.98032266829074" x2="189.97916517819016" y1="98.17113171792111" y2="98.06355123074" /><path d="M 185.9800911702706 98.14961562048488 a86.0,86.0 0 0,1 -9.607161424134198,41.387399972396054" fill="none" id="id16" stroke="none" /><text fill="#e1ed5e" style="font-size:6.75px; font-family:Arial;" text-anchor="middle"><textPath startOffset="21.466115282336823" xlink:href="#id16">April</textPath></text><path d="M 120.95626037817324 101.35467743843564 l 33.43623643815248 2.1614216616692583 a54.506024096385545,54.506024096385545 0 0,0 -0.06858270143576382,0.9357564718810163 l -33.39407717805238 -2.736651270047045" fill="red" stroke="none" /><path d="M 120.92983693683757 101.71520430193887 l 27.12593324171892 2.222975627125593 a48.21686746987952,48.21686746987952 0 0,0 -0.07490927464093201,0.8266176035735058 l -27.083649370800913 -2.6895746192476695" fill="red" stroke="none" /><path d="M 120.89721153311464 102.0752229133903 l 33.12756534841839 3.2897730190907377 a54.290512048192774,54.290512048192774 0 0,0 -0.10035393943048844,0.9291528436608824 l -33.06602910748685 -3.8595221846364116" fill="red" stroke="none" /><path d="M 120.8583938346157 102.4346265915055 l 11.73812395691744 1.37009344758235 a32.81781325301205,32.81781325301205 0 0,0 -0.07032152696211084,0.5605317598555836 l -11.71280092070848 -1.5719429617253284" fill="red" stroke="none" /><path d="M 120.81339534386255 102.79330883721812 l 15.690649157679513 2.1057990889871494 a36.83132530120482,36.83132530120482 0 0,0 -0.0897385576834479,0.6276312634285076 l -15.652076548979464 -2.3755758243960665" fill="red" stroke="none" /><path d="M 120.76222939487914 103.15116336523771 l 51.94511463491807 7.883909725079864 a73.53999397590361,73.53999397590361 0 0,0 -0.20072302090381966,1.2499024427731709 l -51.80170985965296 -8.77689139754624" fill="red" stroke="none" /><path d="M 120.70491114924044 103.5080841355445 l 34.3715779749439 5.823661185426282 a55.86144578313253,55.86144578313253 0 0,0 -0.16879083195315636,0.9466686243404665 l -34.26624070065155 -6.414448560499967" fill="red" stroke="none" /><path d="M 120.64145759157962 103.86396538481128 l 36.23801504890055 6.7835536876204925 a57.86746987951807,57.86746987951807 0 0,0 -0.19170684562127666,0.9775090756699142 l -36.115878270303604 -7.406326490358352" fill="red" stroke="none" /><path d="M 120.49622156327973 104.57218783832717 l 49.70025051059744 11.086866925437608 a71.92183734939759,71.92183734939759 0 0,0 -0.2799452515321232,1.2059968167524526 l -49.50204469313476 -11.940732399538627" fill="red" stroke="none" /><path d="M 120.41448212921028 104.9243191809786 l 12.690675113504376 3.061205985312686 a34.05466265060241,34.05466265060241 0 0,0 -0.142362575058165,0.5686677204895024 l -12.63610122415115 -3.279201545199584" fill="red" stroke="none" /><path d="M 120.23288151984713 105.62410040840565 l 55.64151243697631 15.466578624213257 a78.75112951807229,78.75112951807229 0 0,0 -0.37428297997333604,1.3029281546011746 l -55.36703682011688 -16.422064254319015" fill="red" stroke="none" /><path d="M 120.13307415673323 105.97154293290107 l 20.739492053020374 6.151408683892074 a42.63253012048193,42.63253012048193 0 0,0 -0.21473239557489932,0.7017578930720286 l -20.630532884939342 -6.507493549516159" fill="red" stroke="none" /><path d="M 120.02730092923936 106.31721596034902 l 38.29316454783477 12.078821360329991 a61.15301204819277,61.15301204819277 0 0,0 -0.3252983485466639,1.001165371992372 l -38.07957394827186 -12.73618563230016" fill="red" stroke="none" /><path d="M 119.9155931802556 106.66101706037122 l 35.220777956476134 11.780025868384564 a58.13855421686747,58.13855421686747 0 0,0 -0.3256012881717957,0.9463497540118079 l -35.01278583736111 -12.384548325485673" fill="red" stroke="none" /><path d="M 119.79798401119884 107.00284435728193 l 10.554949307175287 3.733444130237653 a32.195783132530124,32.195783132530124 0 0,0 -0.189304672133553,0.5208851545899978 l -10.489120374036506 -3.914577081833782" fill="red" stroke="none" /><path d="M 119.67450827220406 107.3425965602758 l 6.057200343454198 2.26056874161286 a27.46528012048193,27.46528012048193 0 0,0 -0.16911513486405017,0.4415062523333738 l -6.017390928996642 -2.364498560779378" fill="red" stroke="none" /><path d="M 119.54520255179757 107.68017299344265 l 12.815059311672572 5.035602581965648 a34.7689156626506,34.7689156626506 0 0,0 -0.22367569576806176,0.5551447333860309 l -12.726481001647118 -5.255446683194493" fill="red" stroke="none" /><path d="M 119.41010516605496 108.01547362559984 l 43.8481291401844 18.107244636144205 a68.43975903614458,68.43975903614458 0 0,0 -0.45903204322265584,1.0850161543048527 l -43.529946115769434 -18.85933531611522" fill="red" stroke="none" /><path d="M 119.26925614724726 108.34839909993367 l 31.590303752586966 13.686489057980761 a55.4277108433735,55.4277108433735 0 0,0 -0.38682977033492777,0.8721990120283364 l -31.350032897520762 -14.228236406501786" fill="red" stroke="none" /><path d="M 119.12269723197855 108.67885076344098 l 32.18932511682447 14.60914982210892 a56.34939759036145,56.34939759036145 0 0,0 -0.40846707804940263,0.8798017471812446 l -31.933083421935233 -15.161071636568995" fill="red" stroke="none" /><path d="M 118.97047184881838 109.00673069616215 l 14.742113665648017 6.999206384366976 a37.31927710843374,37.31927710843374 0 0,0 -0.2805107789075861,0.577935289097854 l -14.619449630125716 -7.251930629430105" fill="red" stroke="none" /><path d="M 118.81262510543309 109.33194174019688 l 16.367955233728786 8.119271169827057 a39.27108433734939,39.27108433734939 0 0,0 -0.30560632577834534,0.6029902736403143 l -16.22577023816417 -8.399815655170066" fill="red" stroke="none" /><path d="M 118.64920377521936 109.65438752849418 l 37.74778595466087 19.54141090104847 a63.506024096385545,63.506024096385545 0 0,0 -0.5109134992235161,0.9664557977515698 l -37.405819947212464 -20.188281713886173" fill="red" stroke="none" /><line stroke="#e1ed5e" stroke-width="0.3" x1="174.80103733775053" x2="179.2010983576182" y1="140.37084112569926" y2="142.7455964860345" /><path d="M 175.68104954172406 140.8457921977663 a86.0,86.0 0 0,1 -30.038265399797805,32.042727171017184" fill="none" id="id17" stroke="none" /><text fill="#e1ed5e" style="font-size:6.75px; font-family:Arial;" text-anchor="middle"><textPath startOffset="22.206326154141568" xlink:href="#id17">May</textPath></text><path d="M 118.48025628344425 109.97397251340804 l 36.21303232134471 19.54452273066276 a62.15060240963855,62.15060240963855 0 0,0 -0.5162157727162294,0.9370815724870468 l -35.871240139176976 -20.16497482154761" fill="red" stroke="none" /><path d="M 118.30583269289576 110.29060199501025 l 17.344855245161988 9.750389669970978 a40.89759036144578,40.89759036144578 0 0,0 -0.35025476136589073,0.6106986995031264 l -17.174448487643716 -10.04750821533242" fill="red" stroke="none" /><path d="M 118.12598468904814 110.60418214915192 l 41.88319181591588 24.502778890252088 a69.52409638554217,69.52409638554217 0 0,0 -0.6131996309715317,1.0277578526851612 l -41.455211309246124 -25.220098836823354" fill="red" stroke="none" /><path d="M 117.94076556474637 110.91462005526583 l 34.46109185930627 20.965087748152598 a61.33734939759036,61.33734939759036 0 0,0 -0.5565206652039019,0.8972885123461803 l -34.09510655443441 -21.555172591864054" fill="red" stroke="none" /><path d="M 117.75023020441432 111.22182372390056 l 16.818419496609444 10.632726265072723 a40.89759036144578,40.89759036144578 0 0,0 -0.3813118710651765,0.5918044917192358 l -16.632902762167216 -10.920652356713411" fill="red" stroke="none" /><path d="M 117.55443506779139 111.5257021239791 l 30.093317259070936 19.75834649824988 a57.0,57.0 0 0,0 -0.5455629995994714,0.8155426614413813 l -29.748751154060745 -20.27342607389707" fill="red" stroke="none" /><path d="M 117.35343817320211 111.8261652097733 l 17.248899389026185 11.75492325067827 a41.873493975903614,41.873493975903614 0 0,0 -0.4110363839116441,0.5921285675668465 l -17.044002097952404 -12.050093080432138" fill="red" stroke="none" /><path d="M 117.14729908036423 112.12312394758627 l 14.874765467303916 10.51644487019532 a39.21686746987952,39.21686746987952 0 0,0 -0.39444737568411525,0.5478529054828273 l -14.691538299244199 -10.770931381129278" fill="red" stroke="none" /><path d="M 116.71984013943494 112.70617746262583 l 28.317250769714242 21.519584549438576 a56.566265060240966,56.566265060240966 0 0,0 -0.5958129622267175,0.7701685700735965 l -27.942630990269457 -22.003831113625427" fill="red" stroke="none" /><path d="M 116.27256486870786 113.27417163493432 l 14.19998345685866 11.583485402601895 a39.325301204819276,39.325301204819276 0 0,0 -0.4323985406468585,0.5208518971776552 l -13.998488916318259 -11.82619855689332" fill="red" stroke="none" /><path d="M 116.0416608686014 113.55231037782055 l 13.749995030229769 11.616266038131903 a39.0,39.0 0 0,0 -0.43764962508283944,0.509085387271448 l -13.548002895576152 -11.851228524564878" fill="red" stroke="none" /><path d="M 115.80600337817218 113.82643327865902 l 26.15743932549492 22.881438205560503 a55.75301204819277,55.75301204819277 0 0,0 -0.6380830024396527,0.7168930175124156 l -25.75969747340693 -23.328305392813785" fill="red" stroke="none" /><path d="M 115.56566222782051 114.09645910891815 l 13.462556401858537 12.191860072687392 a39.16265060240964,39.16265060240964 0 0,0 -0.4568110446413688,0.4957781676811597 l -13.250698949221446 -12.421789495169888" fill="red" stroke="none" /><path d="M 115.32070863581623 114.36230785411682 l 13.013372997892104 12.199309683316095 a38.83734939759036,38.83734939759036 0 0,0 -0.4614125826907102,0.4837892482480139 l -12.801453863822427 -12.421506048146616" fill="red" stroke="none" /><path d="M 114.81725581225074 114.88116024355365 l 24.980210099999304 25.087945711808608 a56.403614457831324,56.403614457831324 0 0,0 -0.6938988800646697,0.6791261004979801 l -24.54466126755884 -25.514221915229157" fill="red" stroke="none" /><path d="M 114.55890576462653 115.13401014063108 l 23.980848221596542 24.928137185170296 a55.59036144578313,55.59036144578313 0 0,0 -0.6953140907176211,0.657462872090831 l -23.548198296488113 -25.337234694007048" fill="red" stroke="none" /><path d="M 114.29624159901734 115.38237550388516 l 24.175658125704878 26.01236477206053 a56.51204819277108,56.51204819277108 0 0,0 -0.7182424344381381,0.6560974344954863 l -23.72431614179988 -26.424654973142598" fill="red" stroke="none" /><path d="M 114.0293411484842 115.62618273729858 l 10.974759986206658 12.223924361621687 a37.42771084337349,37.42771084337349 0 0,0 -0.48309843987130535,0.4262782042939671 l -10.762719193428765 -12.411025707687942" fill="red" stroke="none" /><path d="M 113.75828350139079 115.86535959552629 l 11.828334955154386 13.6398401341917 a39.054216867469876,39.054216867469876 0 0,0 -0.5116744450232366,0.4360600625888226 l -11.591795033554103 -13.84142458700347" fill="red" stroke="none" /><path d="M 113.48314897796784 116.09983520530334 l 28.196258189726194 33.668330076494925 a64.9156626506024,64.9156626506024 0 0,0 -0.8628524081475639,0.7100687892125775 l -27.61253565303394 -34.14869398456468" fill="red" stroke="none" /><path d="M 113.20401910651253 116.32954008644616 l 23.760416481684764 29.3847403793106 a58.78915662650602,58.78915662650602 0 0,0 -0.7923728710761246,0.6295089309305724 l -23.251086117891287 -29.7893832242463" fill="red" stroke="none" /><path d="M 112.92097659922987 116.55440617244103 l 10.341229119865565 13.249223528717867 a37.80722891566265,37.80722891566265 0 0,0 -0.5164670395796997,0.3960049026653519 l -10.111633351792372 -13.425267773210589" fill="red" stroke="none" /><path d="M 112.04921762599082 117.19931262002967 l 19.038178624198924 27.175505998601103 a54.18072289156626,54.18072289156626 0 0,0 -0.7684454904480171,0.5285438153902304 l -18.567576249128024 -27.499190603356425" fill="red" stroke="none" /><path d="M 111.7513745106137 117.40417183066458 l 18.08214941908546 26.78025751568698 a53.31325301204819,53.31325301204819 0 0,0 -0.7649824773813303,0.5069886727888215 l -17.618492242964166 -27.08754420956712" fill="red" stroke="none" /><path d="M 111.45004920935366 117.60387380957326 l 16.46560432773665 25.315037122028336 a51.1987951807229,51.1987951807229 0 0,0 -0.7429145049922944,0.47416318686931974 l -16.027408020697425 -25.594714737721464" fill="red" stroke="none" /><path d="M 111.1453310114006 117.79835938074945 l 8.948875932561757 14.290765320343581 a37.86144578313253,37.86144578313253 0 0,0 -0.5553387058019047,0.3411343907009878 l -8.701558026827543 -14.442688177872947" fill="red" stroke="none" /><line stroke="#e1ed5e" stroke-width="0.3" x1="143.8653032363475" x2="146.44561519142675" y1="172.8068346515853" y2="177.08958963109032" /><path d="M 144.38136562736335 173.6633856474863 a86.0,86.0 0 0,1 -40.68145358897372,12.25698825130547" fill="none" id="id18" stroke="none" /><text fill="#e1ed5e" style="font-size:6.75px; font-family:Arial;" text-anchor="middle"><textPath startOffset="21.466115282336833" xlink:href="#id18">June</textPath></text><path d="M 110.8373102113329 117.98757091392108 l 16.563737465858217 27.492191000967154 a53.096385542168676,53.096385542168676 0 0,0 -0.7869191006184281,0.4649256752159759 l -16.088050494211405 -27.773235248476876" fill="red" stroke="none" /><path d="M 110.21172684928248 118.3499491758327 l 8.700180362125359 15.633777697138013 a38.89156626506024,38.89156626506024 0 0,0 -0.5877759972966162,0.320502338565382 l -8.429781552960094 -15.781220687463165" fill="red" stroke="none" /><path d="M 109.89434966115114 118.52300852407294 l 15.914405780285266 29.79303178269561 a54.77710843373494,54.77710843373494 0 0,0 -0.8355050554579964,0.437096756608058 l -15.399209822300774 -30.062557958248384" fill="red" stroke="none" /><path d="M 109.57404056367764 118.69057910512821 l 14.756546170005716 28.807940772189863 a53.36746987951807,53.36746987951807 0 0,0 -0.8212137784963927,0.411773636656481 l -14.258478483826563 -29.057682249755647" fill="red" stroke="none" /><path d="M 109.2508944713604 118.85261126421891 l 7.714386181366801 15.721325572313356 a38.51204819277108,38.51204819277108 0 0,0 -0.5976470778756489,0.28690691633342297 l -7.442626435490919 -15.85178676514634" fill="red" stroke="none" /><path d="M 108.92500713936063 119.00905698771935 l 15.829982542359943 33.715719837942835 a58.24698795180723,58.24698795180723 0 0,0 -0.911238080586581,0.41830470939180575 l -15.247276466005943 -33.983211617668715" fill="red" stroke="none" /><path d="M 108.59647513512805 119.15986991738527 l 14.33732255755435 31.95510146290246 a56.024096385542165,56.024096385542165 0 0,0 -0.8832580968682988,0.3871943931042951 l -13.785143786028298 -32.197160409301205" fill="red" stroke="none" /><path d="M 107.93186726928326 119.44442032107085 l 7.331175083657681 17.97186525372641 a40.40963855421687,40.40963855421687 0 0,0 -0.6463212340536894,0.2571845575800602 l -7.020732773562124 -18.09539665571254" fill="red" stroke="none" /><path d="M 107.59598834532513 119.57807347666477 l 13.825744707713122 35.634789503567994 a59.22289156626506,59.22289156626506 0 0,0 -0.9535725357733043,0.36055953907105903 l -13.210301951179543 -35.86749729274568" fill="red" stroke="none" /><path d="M 107.2578585660854 119.70592522655815 l 13.22903996813157 35.918373175430425 a59.27710843373494,59.27710843373494 0 0,0 -0.960516214401437,0.3444069409543294 l -12.608804193100397 -36.14076765742471" fill="red" stroke="none" /><path d="M 106.91757812671514 119.82793768551818 l 16.787926262768234 48.11943569118871 a71.96385542168674,71.96385542168674 0 0,0 -1.173114564065372,0.3979841533319054 l -15.957141965765636 -48.40128283141874" fill="red" stroke="none" /><path d="M 106.57524785965236 119.94407469862006 l 12.035759206093443 36.50692502922967 a59.43975903614458,59.43975903614458 0 0,0 -0.9744685851944037,0.31199406827558096 l -11.4055692758081 -36.708691944164954" fill="red" stroke="none" /><path d="M 106.2309692047433 120.05430185196036 l 12.177737576568026 39.19390663149911 a62.04216867469879,62.04216867469879 0 0,0 -1.022587962776795,0.3080973647676799 l -11.501274639350985 -39.39771936537252" fill="red" stroke="none" /><path d="M 105.53697534728816 120.25689768951611 l 4.917520274011513 17.990635469518608 a39.65060240963855,39.65060240963855 0 0,0 -0.659917356688102,0.17429017179684747 l -4.607112474511913 -18.072616990619043" fill="red" stroke="none" /><path d="M 105.18746579009965 120.34920634021253 l 4.674076318618192 18.3353003771106 a39.92168674698795,39.92168674698795 0 0,0 -0.6673512857162192,0.16401870945293273 l -4.357771748158761 -18.41304034487756" fill="red" stroke="none" /><path d="M 104.83641907484287 120.43548508189849 l 2.0228052240736947 8.547027323410216 a29.783132530120483,29.783132530120483 0 0,0 -0.4999025764204504,0.1137761988502376 l -1.8753824982603822 -8.580580255838138" fill="red" stroke="none" /><path d="M 104.48393922423573 120.51570834832081 l 5.568265318908912 25.47690804356879 a47.07831325301205,47.07831325301205 0 0,0 -0.7931766290675303,0.16621787453301223 l -5.128897228412003 -25.568981898828344" fill="red" stroke="none" /><path d="M 104.13013068566511 120.58985236759428 l 8.94624693271865 44.59953391500411 a66.48795180722891,66.48795180722891 0 0,0 -1.124065530112478,0.21542983414456604 l -8.177213788034466 -44.746920947497145" fill="red" stroke="none" /><path d="M 103.7750983002368 120.6578951692458 l 6.958916143810025 38.08021639632058 a59.71084337349398,59.71084337349398 0 0,0 -1.012670394368629,0.17606572854268124 l -6.302396777969346 -38.19436070338427" fill="red" stroke="none" /><path d="M 103.41894727170886 120.7198165907248 l 1.827165452436491 11.073154993838298 a32.22289156626506,32.22289156626506 0 0,0 -0.5480410113476885,0.08559273493985406 l -1.6362885774802853 -11.102966036125258" fill="red" stroke="none" /><path d="M 102.34483914955558 120.86867818915974 l 6.889226210484319 61.31296672787552 a82.6987951807229,82.6987951807229 0 0,0 -1.4159900498560778,0.14677315830159168 l -5.8328035640226386 -61.42246925463287" fill="red" stroke="none" /><path d="M 101.98527174616119 120.90594882070398 l 2.7626371889351513 29.09201311796759 a50.22289156626506,50.22289156626506 0 0,0 -0.8613361798590841,0.07431970991187124 l -2.2614566913345255 -29.135257080158123" fill="red" stroke="none" /><path d="M 101.62511606390274 120.93702456842531 l 2.2488697338688413 28.973094239266704 a50.06024096385542,50.06024096385542 0 0,0 -0.8596946236164913,0.05928957460403623 l -1.7498123494734197 -29.007512158387023" fill="red" stroke="none" /><path d="M 100.90346689309514 120.98055641714683 l 1.2782268263755714 29.683334552314445 a50.71084337349397,50.71084337349397 0 0,0 -0.8724188409646519,0.03004786886091294 l -0.7670876337362671 -29.70093921960145" fill="red" stroke="none" /><line stroke="#e1ed5e" stroke-width="0.3" x1="102.19456741930631" x2="102.32365962044197" y1="184.97166512339345" y2="189.96999836594603" /><path d="M 102.22038585953345 185.97133177190398 a86.0,86.0 0 0,1 -42.740103519485714,-10.115201625700543" fill="none" id="id19" stroke="none" /><text fill="#e1ed5e" style="font-size:6.75px; font-family:Arial;" text-anchor="middle"><textPath startOffset="22.20632615414155" xlink:href="#id19">July</textPath></text><path d="M 100.54218724476979 120.99299961872073 l 0.8272788166754268 32.03148737004463 a53.04216867469879,53.04216867469879 0 0,0 -0.9129322806927879,0.015716957130521857 l -0.27578684608997095 -32.04098180445431" fill="red" stroke="none" /><path d="M 100.18074693466247 120.99922214144158 l 0.5058425400364274 58.76890740444752 a79.77108433734941,79.77108433734941 0 0,0 -1.3731789493977253,0.0 l 0.505842540036387 -58.76890740444752" fill="red" stroke="none" /><path d="M 99.81925306533755 120.99922214144158 l -0.25758771411447 29.9266022945157 a50.92771084337349,50.92771084337349 0 0,0 -0.8765394095374024,-0.015090420849679927 l 0.7726868135445404 -29.917734396386862" fill="red" stroke="none" /><path d="M 99.45781275523022 120.99299961872073 l -0.7222941952698966 27.96657780531816 a48.975903614457835,48.975903614457835 0 0,0 -0.8425712968689478,-0.029019859092328612 l 1.2035858438134874 -27.95000114779974" fill="red" stroke="none" /><path d="M 99.09653310690486 120.98055641714683 l -2.351190950705417 54.600002242213435 a75.65060240963855,75.65060240963855 0 0,0 -1.300512861980323,-0.06722165997712812 l 3.290691881099229 -54.551440775474106" fill="red" stroke="none" /><path d="M 98.01472825383883 120.90594882070398 l -4.228526309594588 44.52859150709324 a65.72891566265059,65.72891566265059 0 0,0 -1.1254274063213914,-0.1166551522602394 l 4.994386312521573 -44.449206986377234" fill="red" stroke="none" /><path d="M 97.65516085044442 120.86867818915974 l -3.1842996368319367 28.33973681798113 a49.51807228915663,49.51807228915663 0 0,0 -0.8462227718065346,-0.10246579285072707 l 3.6716498316898605 -28.280725496405054" fill="red" stroke="none" /><path d="M 96.93821686468263 120.77559828337769 l -3.8021971293140746 25.79964571679347 a47.07831325301205,47.07831325301205 0 0,0 -0.8006992902752262,-0.12505276192839027 l 4.2457322831978175 -25.730374647517976" fill="red" stroke="none" /><path d="M 96.58105272829116 120.7198165907248 l -4.3251742593907085 26.211816168989206 a47.566265060240966,47.566265060240966 0 0,0 -0.8067035344970436,-0.1402557498560342 l 4.775726765359802 -26.133481840612166" fill="red" stroke="none" /><path d="M 96.22490169976321 120.6578951692458 l -9.726888391487922 53.22696913659375 a75.10843373493975,75.10843373493975 0 0,0 -1.2698060187952112,-0.24336134566589193 l 10.641662024854828 -53.051650592579385" fill="red" stroke="none" /><path d="M 95.86986931433489 120.58985236759428 l -11.153485448895946 55.603232985809676 a77.71084337349399,77.71084337349399 0 0,0 -1.309274282145987,-0.2743711556590989 l 12.10895119247132 -55.40300584942404" fill="red" stroke="none" /><path d="M 95.51606077576429 120.51570834832081 l -6.008169855537871 27.489636745555515 a49.13855421686747,49.13855421686747 0 0,0 -0.8247785833053412,-0.18771692031176399 l 6.480468588236075 -27.382143091666066" fill="red" stroke="none" /><path d="M 95.16358092515715 120.4354850818985 l -7.1422505442601825 30.178392771547184 a52.01204819277108,52.01204819277108 0 0,0 -0.8694599367547676,-0.21369209859915816 l 7.660663765758161 -30.050979414633996" fill="red" stroke="none" /><path d="M 94.81253420990036 120.34920634021253 l -15.080257692733722 59.15629863789839 a82.04819277108433,82.04819277108433 0 0,0 -1.3655536915971072,-0.3606551412751629 l 16.09630182714232 -58.887952147319645" fill="red" stroke="none" /><path d="M 94.46302465271185 120.25689768951611 l -7.9909704452687 29.234782637967747 a51.30722891566265,51.30722891566265 0 0,0 -0.8499136090800353,-0.24019407548359537 l 8.49301522245335 -29.092899769145628" fill="red" stroke="none" /><path d="M 93.08242187328487 119.8279376855182 l -11.287201487307984 32.35264186896944 a55.265060240963855,55.265060240963855 0 0,0 -0.8955056657438003,-0.32109647117023155 l 11.842426713681512 -32.15355785675925" fill="red" stroke="none" /><path d="M 92.7421414339146 119.70592522655815 l -21.773575698256195 59.117775679674445 a84.0,84.0 0 0,0 -1.3525191169588682,-0.5114069995734671 l 22.787965035975347 -58.734220429994345" fill="red" stroke="none" /><path d="M 92.40401165467489 119.57807347666478 l -6.197071386719631 15.972473025712752 a38.13253012048193,38.13253012048193 0 0,0 -0.6099006278413764,-0.24269204673252973 l 6.471093090602865 -15.863434134574154" fill="red" stroke="none" /><line stroke="#e1ed5e" stroke-width="0.3" x1="58.666819895761336" x2="56.23545636021788" y1="174.27360380694188" y2="178.64263932499728" /><path d="M 58.180547188652646 175.14741091055294 a86.0,86.0 0 0,1 -31.652253787137756,-30.449443065178592" fill="none" id="id20" stroke="none" /><text fill="#e1ed5e" style="font-size:6.75px; font-family:Arial;" text-anchor="middle"><textPath startOffset="22.20632615414155" xlink:href="#id20">August</textPath></text><line stroke="#e1ed5e" stroke-width="0.3" x1="26.63291911575756" x2="22.317208475507996" y1="142.92168965132927" y2="145.44649492493687" /><path d="M 25.769776987707644 143.4266507060508 a86.0,86.0 0 0,1 -11.730757126820373,-40.83630448921669" fill="none" id="id21" stroke="none" /><text fill="#e1ed5e" style="font-size:6.75px; font-family:Arial;" text-anchor="middle"><textPath startOffset="21.46611528233685" xlink:href="#id21">September</textPath></text><line stroke="#e1ed5e" stroke-width="0.3" x1="15.007084014347285" x2="10.007500721073583" y1="101.09737516637583" y2="101.16192664675087" /><path d="M 14.007167355692545 101.11028546245083 a86.0,86.0 0 0,1 10.666146001902534,-42.60595125391555" fill="none" id="id22" stroke="none" /><text fill="#e1ed5e" style="font-size:6.75px; font-family:Arial;" text-anchor="middle"><textPath startOffset="22.20632615414155" xlink:href="#id22">October</textPath></text><line stroke="#e1ed5e" stroke-width="0.3" x1="26.266209847984243" x2="21.928928074336255" y1="57.711370442889674" y2="55.22380399835377" /><path d="M 25.398753493254645 57.213857153982495 a86.0,86.0 0 0,1 29.58750427330803,-30.492523968695096" fill="none" id="id23" stroke="none" /><text fill="#e1ed5e" style="font-size:6.75px; font-family:Arial;" text-anchor="middle"><textPath startOffset="21.46611528233685" xlink:href="#id23">November</textPath></text><line stroke="#e1ed5e" stroke-width="0.3" x1="56.762969772571076" x2="54.21961505331055" y1="26.818313649435495" y2="22.513508569990535" /><path d="M 56.25429882871897 25.957352633546506 a86.0,86.0 0 0,1 42.265352541879196,-11.944610805530505" fill="none" id="id24" stroke="none" /><text fill="#e1ed5e" style="font-size:6.75px; font-family:Arial;" text-anchor="middle"><textPath startOffset="22.20632615414155" xlink:href="#id24">December</textPath></text></svg>