<?xml version="1.0" encoding="utf-8" ?>
<svg baseProfile="full" height="200mm" version="1.1" viewBox="0,0,200,200" width="200mm" xmlns="http://www.w3.org/2000/svg" xmlns:ev="http://www.w3.org/2001/xml-events" xmlns:xlink="http://www.w3.org/1999/xlink"><defs /><rect fill="#1a1a1a" height="200" width="200" x="0" y="0" /><rect fill="#1a1a1a" height="200" width="180" x="10" y="0" /><text alignment-baseline="middle" fill="#e1ed5e" style="dominant-baseline: central; font-size:9.0px; font-family:Arial;" text-anchor="middle" x="100.0" y="100.0">2026</text><line stroke="#e1ed5e" stroke-width="0.3" x1="100.0" x2="100.0" y1="15.0" y2="10.0" /><path d="M 100.0 14.0 a86.0,86.0 0 0,1 42.46469731375804,11.215312516191453" fill="none" id="id13" stroke="none" /><text fill="#e1ed5e" style="font-size:6.75px; font-family:Arial;" text-anchor="middle"><textPath startOffset="22.20632615414155" xlink:href="#id13">January</textPath></text><path d="M 100.0 79.0 l 0.0 -48.02596537949401 a69.02596537949401,69.02596537949401 0 0,0 1.188168526077545,0.01022694162214057 l -0.8266880468050166 48.018849814480426" fill="red" stroke="none" /><path d="M 100.36148047927253 79.00311137660856 l 0.4433069526098517 -25.7498461013895 a46.753661784287615,46.753661784287615 0 0,0 0.8045489559975779,0.020779125882789184 l -0.8864825438022974 25.738400183364355" fill="red" stroke="none" /><path d="M 100.72285384407766 79.0124445844662 l 0.9716657198354174 -28.211634077205556 a49.228362183754996,49.228362183754996 0 0,0 0.846632109958165,0.03645775959274982 l -1.4571386621829139 28.190728591088615" fill="red" stroke="none" /><path d="M 101.08401301168833 79.027996857942 l 1.8425334346473397 -35.646820254110565 a56.69440745672437,56.69440745672437 0 0,0 0.9741663728065072,0.05876437594065709 l -2.455861856293459 35.6098226087896" fill="red" stroke="none" /><path d="M 101.44485096284872 79.0497635885617 l 1.8238598039688199 -26.445837707115185 a47.508655126498,47.508655126498 0 0,0 0.8153612094186182,0.06328772242583058 l -2.2788112027497793 26.41052472250089" fill="red" stroke="none" /><path d="M 101.80526077348638 79.07773832637324 l 2.2752054888213777 -26.36873591756023 a47.46671105193076,47.46671105193076 0 0,0 0.813432219393223,0.07724519065976695 l -2.728762835304845 26.325665182385283" fill="red" stroke="none" /><path d="M 102.16513564639614 79.11191278185805 l 2.7720078881622907 -26.74287065278758 a47.88615179760319,47.88615179760319 0 0,0 0.8191571507850804,0.0920418504415394 l -3.231931742457096 26.691192848875442" fill="red" stroke="none" /><path d="M 102.52436894288641 79.15227682838746 l 3.201679651264051 -26.441353290227628 a47.634487350199734,47.634487350199734 0 0,0 0.8131553395298058,0.10557090078547687 l -3.6563497193017027 26.382324066278013" fill="red" stroke="none" /><path d="M 102.88285421437855 79.19881850522331 l 3.8751548993544036 -27.961108813551345 a49.228362183754996,49.228362183754996 0 0,0 0.8383613980763669,0.12355267727645028 l -4.355885277859426 27.890261652113924" fill="red" stroke="none" /><path d="M 103.2404852339499 79.25152402106235 l 1.9611192261387902 -12.556833997905672 a33.70905459387483,33.70905459387483 0 0,0 0.5725254886812063,0.09447161122008317 l -2.1769739209588717 12.521216123745965" fill="red" stroke="none" /><path d="M 103.59715602781102 79.31037775812273 l 4.346763109505338 -25.001108101869008 a46.376165113182424,46.376165113182424 0 0,0 0.7853138370850052,0.14351108412756344 l -4.776472067693245 24.92258153639071" fill="red" stroke="none" /><path d="M 103.95276090670814 79.375362276772 l 4.776472067693245 -24.92258153639071 a46.376165113182424,46.376165113182424 0 0,0 0.7827271769624136,0.1570077081836884 l -5.204765654122784 24.83666987212981" fill="red" stroke="none" /><path d="M 104.307194497241 79.44645832069477 l 5.43704445191008 -25.94508323832403 a47.508655126498,47.508655126498 0 0,0 0.7989536773144553,0.17462032854209844 l -5.882840853378064 25.84764941168606" fill="red" stroke="none" /><path d="M 104.66035177308747 79.52364482259891 l 5.6408252486504855 -24.784296746015432 a46.418109187749664,46.418109187749664 0 0,0 0.7775614908684566,0.1840236828843649 l -6.066610426481465 24.683527150990198" fill="red" stroke="none" /><path d="M 105.01212808612495 79.60689891045804 l 3.3536542786654966 -13.645184151124946 a35.05126498002663,35.05126498002663 0 0,0 0.5846736458499615,0.14904633062892697 l -3.588036813200483 13.58543482432715" fill="red" stroke="none" /><path d="M 105.36241919743992 79.69619591428918 l 7.240336972309035 -27.41419086938852 a49.354194407456724,49.354194407456724 0 0,0 0.8195196078830231,0.22400566636696637 l -7.711154469415769 27.28549866219526" fill="red" stroke="none" /><path d="M 105.71112130821622 79.79150937346287 l 6.946883242417461 -24.581166694196618 a46.5439414114514,46.5439414114514 0 0,0 0.7691049035943482,0.224522811604285 l -7.368978363735237 24.457945553673632" fill="red" stroke="none" /><path d="M 106.0581310904928 79.89281104454417 l 3.763140018262165 -12.490018172729883 a34.04460719041278,34.04460719041278 0 0,0 0.5596522086880167,0.17388666548672596 l -3.9775775996609 12.423391372360637" fill="red" stroke="none" /><path d="M 106.40334571778207 80.00007090966166 l 7.827258813480613 -24.447316784195205 a46.66977363515313,46.66977363515313 0 0,0 0.7629778557621907,0.2515418032108319 l -8.24691949148522 24.308961256725137" fill="red" stroke="none" /><path d="M 106.74666289553966 80.11325718540242 l 4.24473797355857 -12.511965352726175 a34.21238348868176,34.21238348868176 0 0,0 0.5560620080274097,0.19399911603702286 l -4.459481985649254 12.437045383516946" fill="red" stroke="none" /><path d="M 107.08798089147638 80.2323363322302 l 8.64997934359268 -24.123919775647153 a46.62782956058589,46.62782956058589 0 0,0 0.7531897094197454,0.2774061264087264 l -9.063951378785001 23.971450381432103" fill="red" stroke="none" /><path d="M 107.4271985657038 80.35727306442388 l 8.811762878884272 -23.304486950197493 a45.914780292942744,45.914780292942744 0 0,0 0.7368597111458678,0.28589012012213333 l -9.211605755029808 23.149354126184814" fill="red" stroke="none" /><path d="M 107.76421540070413 80.48803036053334 l 9.010004955677303 -22.6427184298205 a45.36950732356858,45.36950732356858 0 0,0 0.7231383776202948,0.2949863011546506 l -9.398427202885985 22.48427124248227" fill="red" stroke="none" /><path d="M 108.09893153111575 80.62456947434976 l 9.721953096272765 -23.25825648318734 a46.20838881491345,46.20838881491345 0 0,0 0.7312284823588603,0.3130738748887991 l -10.120865336421941 23.08746308033575" fill="red" stroke="none" /><path d="M 108.43124777332544 80.76684994638697 l 5.136212857917957 -11.716599400170388 a33.79294274300932,33.79294274300932 0 0,0 0.5307388945844156,0.23812707133258584 l -5.3371338709691525 11.62645199832127" fill="red" stroke="none" /><path d="M 108.76106565485865 80.91482961587045 l 10.796759338976942 -23.519740599882706 a46.87949400798935,46.87949400798935 0 0,0 0.7304758039363836,0.34296818455930106 l -11.200013354212924 23.3304074326834" fill="red" stroke="none" /><path d="M 109.08828744355905 81.06846463323043 l 11.072946752139194 -23.065718855651333 a46.58588548601864,46.58588548601864 0 0,0 0.7199265900940354,0.35326485115229017 l -11.468344609243662 22.87169884436421" fill="red" stroke="none" /><line stroke="#e1ed5e" stroke-width="0.3" x1="143.23703022742887" x2="145.7803849466894" y1="26.81831364943548" y2="22.513508569990506" /><path d="M 143.74570117128098 25.957352633546492 a86.0,86.0 0 0,1 28.547481713284135,27.462654790039103" fill="none" id="id14" stroke="none" /><text fill="#e1ed5e" style="font-size:6.75px; font-family:Arial;" text-anchor="middle"><textPath startOffset="19.985693538727396" xlink:href="#id14">February</textPath></text><path d="M 110.68208982089419 81.91981866633111 l 6.336712403739496 -10.725327275831537 a33.45739014647137,33.45739014647137 0 0,0 0.4933179597477985,0.29721855097572253 l -6.520392429704932 10.6146621153972" fill="red" stroke="none" /><path d="M 110.99172775467656 82.1063720568725 l 6.498438246439934 -10.578922512315058 a33.41544607190413,33.41544607190413 0 0,0 0.48751679482709115,0.30528297219584777 l -6.679574193639289 10.465495198796265" fill="red" stroke="none" /><path d="M 111.2981086023043 82.29822771554956 l 13.697640322767056 -21.46133643807207 a46.46005326231691,46.46005326231691 0 0,0 0.6704251486809834,0.4360631657908711 l -14.065032497232318 21.222374348121672" fill="red" stroke="none" /><path d="M 111.60114157652 82.49532879139004 l 7.159958882446106 -10.803482164035579 a33.960719041278296,33.960719041278296 0 0,0 0.48449866663549257,0.3271356624677299 l -7.344862243488141 10.67863458926918" fill="red" stroke="none" /><path d="M 111.90073688211348 82.69761687909136 l 10.506243079682065 -15.274940092093777 a39.539280958721704,39.539280958721704 0 0,0 0.5574452311966945,0.39052600843115187 l -10.76761945046241 15.09182924089869" fill="red" stroke="none" /><path d="M 112.19680574252982 82.90503203632743 l 15.274428496470431 -21.408545099645877 a47.29893475366178,47.29893475366178 0 0,0 0.6587045238183308,0.4785768499435346 l -15.640678336642551 21.142449014885667" fill="red" stroke="none" /><path d="M 112.77801427241765 83.33499621200491 l 11.995339629899389 -15.644244567958111 a40.71371504660453,40.71371504660453 0 0,0 0.5524801593713309,0.43121952768440175 l -12.26285234443015 15.435446651050485" fill="red" stroke="none" /><path d="M 113.06298171725822 83.55741782278167 l 11.219205336393541 -14.121791616918529 a39.03595206391478,39.03595206391478 0 0,0 0.52251778376028,0.42250637579131156 l -11.460626518718312 13.926579143863087" fill="red" stroke="none" /><path d="M 113.34407831869373 83.78471172551755 l 11.86041581588291 -14.41239004423041 a39.66511318242344,39.66511318242344 0 0,0 0.523470817341534,0.4383917553087447 l -12.10674417018356 14.206097131527844" fill="red" stroke="none" /><path d="M 113.6212207817346 84.01681056812373 l 9.250096669353727 -10.854096684762842 a35.260985352862846,35.260985352862846 0 0,0 0.4585711316996409,0.3976683665749594 l -9.435561599700131 10.693263324768212" fill="red" stroke="none" /><line stroke="#e1ed5e" stroke-width="0.3" x1="172.23445277983987" x2="176.4835382374775" y1="55.19839476539836" y2="52.563006222186495" /><path d="M 173.08426987136738 54.67131705675599 a86.0,86.0 0 0,1 12.851231095245387,41.99856678651699" fill="none" id="id15" stroke="none" /><text fill="#e1ed5e" style="font-size:6.75px; font-family:Arial;" text-anchor="middle"><textPath startOffset="22.20632615414155" xlink:href="#id15">March</textPath></text><path d="M 118.21658344932153 89.55222093294921 l 10.369626397583165 -5.947304329113469 a32.95406125166445,32.95406125166445 0 0,0 0.27797905424349895,0.49449371976277684 l -10.470463093119095 5.767927099415898" fill="red" stroke="none" /><path d="M 118.73160827565052 90.50648371742162 l 23.79487922099946 -12.059673147243387 a47.676431424766974,47.676431424766974 0 0,0 0.3647019679286806,0.7352169129284827 l -23.998941201881546 11.648296645815956" fill="red" stroke="none" /><path d="M 118.89224826269711 90.83032412892265 l 26.9799417599769 -13.09517626062643 a50.990013315579226,50.990013315579226 0 0,0 0.3764563695466812,0.792913122609154 l -27.201356323365335 12.628820722376734" fill="red" stroke="none" /><path d="M 119.04729006885535 91.15688171328212 l 11.184893369327845 -5.1928297795507135 a33.33155792276964,33.33155792276964 0 0,0 0.23712654884113235,0.5224769180562732 l -11.272622235132324 4.999530852652377" fill="red" stroke="none" /><path d="M 119.196687751892 91.48605970444005 l 10.39075042762197 -4.608411092070728 a32.366844207723034,32.366844207723034 0 0,0 0.22149600979640083,0.5112433290825663 l -10.468537147261053 4.428868618401559" fill="red" stroke="none" /><path d="M 119.85752413597 93.16781622104841 l 11.66067662311953 -4.01197476234041 a33.33155792276964,33.33155792276964 0 0,0 0.1819946016298936,0.5441406941632513 l -11.728008518521195 3.8106609652548444" fill="red" stroke="none" /><path d="M 120.08093135843002 93.85539295169968 l 24.225464461701197 -7.412801578908238 a46.33422103861518,46.33422103861518 0 0,0 0.22680403260440654,0.7646704476178429 l -24.349474391417306 6.994701744543865" fill="red" stroke="none" /><path d="M 120.18372546131832 94.20196356495316 l 12.094109797061575 -3.4741896082171513 a33.583222370173104,33.583222370173104 0 0,0 0.1548238196402103,0.5569836545856708 l -12.152120387268148 3.2654946502125286" fill="red" stroke="none" /><path d="M 120.28053869075195 94.5502522615342 l 25.033367997772384 -6.726918979437809 a46.92143808255659,46.92143808255659 0 0,0 0.20288755675317188,0.7818085192130879 l -25.145451886395858 6.29501403467587" fill="red" stroke="none" /><path d="M 120.45610955862082 95.25157060432595 l 12.175607154065927 -2.826295525787353 a33.499334221038616,33.499334221038616 0 0,0 0.1255516968995459,0.5628236389868753 l -12.222453237967512 2.6162937172505143" fill="red" stroke="none" /><path d="M 120.6074358757038 95.95851677861258 l 26.342394727930284 -5.16621024305184 a47.84420772303595,47.84420772303595 0 0,0 0.15153918294305027,0.8095283747823636 l -26.427419634783192 4.712003790806914" fill="red" stroke="none" /><path d="M 120.67395015179393 96.31383870115 l 13.915688151440525 -2.4811644960967656 a35.13515312916112,35.13515312916112 0 0,0 0.1010355472700929,0.5963175192824897 l -13.956335560230842 2.2412611884984384" fill="red" stroke="none" /><path d="M 120.96714384426684 98.82574320788733 l 14.741214313945267 -0.8255760136291465 a35.76431424766977,35.76431424766977 0 0,0 0.02913325575147538,0.614956983527541 l -14.75324117793024 0.5717079234786057" fill="red" stroke="none" /><path d="M 120.98425023603335 99.18683210126433 l 13.621600519395823 -0.5278553270754173 a34.6318242343542,34.6318242343542 0 0,0 0.01795628018200212,0.5958815211905975 l -13.62866849403347 0.29330365845982076" fill="red" stroke="none" /><line stroke="#e1ed5e" stroke-width="0.3" x1="184.98032266829074" x2="189.97916517819016" y1="98.17113171792111" y2="98.06355123074" /><path d="M 185.9800911702706 98.14961562048488 a86.0,86.0 0 0,1 -9.607161424134198,41.387399972396054" fill="none" id="id16" stroke="none" /><text fill="#e1ed5e" style="font-size:6.75px; font-family:Arial;" text-anchor="middle"><textPath startOffset="21.466115282336823" xlink:href="#id16">April</textPath></text><path d="M 120.95626037817324 101.35467743843564 l 25.86744789689293 1.6721517782021826 a46.92143808255659,46.92143808255659 0 0,0 -0.05903932697901648,0.805544709665006 l -25.834832011249574 -2.117169624363959" fill="red" stroke="none" /><path d="M 120.92983693683757 101.71520430193887 l 20.985575517228618 1.7197720896937012 a42.055925432756325,42.055925432756325 0 0,0 -0.06533769267547096,0.7209959941717042 l -20.952863228276073 -2.080749472413976" fill="red" stroke="none" /><path d="M 120.89721153311464 102.0752229133903 l 25.628649091119954 2.5450840533844454 a46.7547103861518,46.7547103861518 0 0,0 -0.08642429767501326,0.8001816610473477 l -25.581042491943887 -2.985862036316585" fill="red" stroke="none" /><path d="M 120.8583938346157 102.4346265915055 l 9.081025324858897 1.0599524541216316 a30.142675765645805,30.142675765645805 0 0,0 -0.06458928174836513,0.514840125495655 l -9.061434533863684 -1.2161103339046815" fill="red" stroke="none" /><path d="M 120.81339534386255 102.79330883721812 l 12.138837763797332 1.6291202006678212 a33.24766977363515,33.24766977363515 0 0,0 -0.08100707502165247,0.5665632940283533 l -12.108996637759077 -1.837828966676584" fill="red" stroke="none" /><path d="M 120.76222939487914 103.15116336523771 l 40.18656671489667 6.099269707418643 a61.64678628495339,61.64678628495339 0 0,0 -0.1682612209103864,1.047762783226854 l -40.075623739624994 -6.790111720338702" fill="red" stroke="none" /><path d="M 120.70491114924044 103.5080841355445 l 26.591060989936626 4.505389012959614 a47.970039946737685,47.970039946737685 0 0,0 -0.14494617598817813,0.812935130648687 l -26.50956837160926 -4.962442894341519" fill="red" stroke="none" /><path d="M 120.64145759157962 103.86396538481128 l 28.03500232145302 5.247995595882166 a49.5219707057257,49.5219707057257 0 0,0 -0.16405937243688262,0.8365352055428356 l -27.940513016040477 -5.729794528492946" fill="red" stroke="none" /><path d="M 120.49622156327973 104.57218783832717 l 38.44986091432372 8.577189991583555 a60.39492343541944,60.39492343541944 0 0,0 -0.2350784220132751,1.0127116894592796 l -38.296521926379896 -9.237770338391401" fill="red" stroke="none" /><path d="M 120.41448212921028 104.9243191809786 l 9.817952384748391 2.3682565612072843 a31.099545938748335,31.099545938748335 0 0,0 -0.1300089649515759,0.5193211889571818 l -9.775732105501755 -2.536905589561862" fill="red" stroke="none" /><path d="M 120.23288151984713 105.62410040840565 l 43.04622999451829 11.965488922327435 a65.67830392809587,65.67830392809587 0 0,0 -0.3121513489931709,1.086639796254998 l -42.83388600863903 -12.704686194087014" fill="red" stroke="none" /><path d="M 120.13307415673323 105.97154293290107 l 16.044800110259434 4.758945999122895 a37.73568575233023,37.73568575233023 0 0,0 -0.1900678701770625,0.6211527969920092 l -15.960505467576239 -5.034425768666961" fill="red" stroke="none" /><path d="M 120.02730092923936 106.31721596034902 l 29.624938218764314 9.344600812718674 a52.06378162450066,52.06378162450066 0 0,0 -0.2769489451835549,0.8523612092294847 l -29.459697022564512 -9.853160921925955" fill="red" stroke="none" /><path d="M 119.9155931802556 106.66101706037122 l 27.248031947686595 9.113442116553172 a49.731691078561916,49.731691078561916 0 0,0 -0.2785191839779814,0.8095071205801322 l -27.08712193276538 -9.581121940222605" fill="red" stroke="none" /><path d="M 119.79798401119884 107.00284435728193 l 8.165679823527082 2.888323621395573 a29.661451398135817,29.661451398135817 0 0,0 -0.17440331576392243,0.479883021738677 l -8.114752246757932 -3.028454440140381" fill="red" stroke="none" /><path d="M 119.67450827220406 107.3425965602758 l 4.686063115242195 1.7488554445766598 a26.001767976031957,26.001767976031957 0 0,0 -0.16010368285634752,0.4179801947324311 l -4.6552651527923405 -1.8292592061422348" fill="red" stroke="none" /><path d="M 119.54520255179757 107.68017299344265 l 9.914180372945093 3.8957191745965942 a31.652117177097203,31.652117177097203 0 0,0 -0.20362468018307214,0.5053797570759063 l -9.845653078504629 -4.065798299515314" fill="red" stroke="none" /><path d="M 119.41010516605496 108.01547362559984 l 33.92245410179379 14.008400976830604 a57.70106524633822,57.70106524633822 0 0,0 -0.387006591624062,0.9147692627002286 l -33.67629652897742 -14.590244765196996" fill="red" stroke="none" /><path d="M 119.26925614724726 108.34839909993367 l 24.439369481029328 10.588349058171534 a47.634487350199734,47.634487350199734 0 0,0 -0.33244089502034174,0.7495664564376918 l -24.253487501277714 -11.007463851101914" fill="red" stroke="none" /><path d="M 119.12269723197855 108.67885076344098 l 24.902793465878847 11.30215185971409 a48.34753661784288,48.34753661784288 0 0,0 -0.35046296602387694,0.7548660501663141 l -24.70455588301514 -11.729137977159235" fill="red" stroke="none" /><path d="M 118.97047184881838 109.00673069616215 l 11.405017363171098 5.414832102952346 a33.625166444740344,33.625166444740344 0 0,0 -0.25274395329002136,0.5207274040635902 l -11.310120153266363 -5.610348462981211" fill="red" stroke="none" /><path d="M 118.81262510543309 109.33194174019688 l 12.662825553657026 6.28135359476634 a35.13515312916112,35.13515312916112 0 0,0 -0.27342064103003055,0.5394848641751859 l -12.552826242840725 -6.49839267064422" fill="red" stroke="none" /><path d="M 118.64920377521936 109.65438752849418 l 29.203014167320855 15.117922414792488 a53.88415446071904,53.88415446071904 0 0,0 -0.4335044163124248,0.8200269852583477 l -28.93845724278354 -15.61836441513697" fill="red" stroke="none" /><line stroke="#e1ed5e" stroke-width="0.3" x1="174.80103733775053" x2="179.2010983576182" y1="140.37084112569926" y2="142.7455964860345" /><path d="M 175.68104954172406 140.8457921977663 a86.0,86.0 0 0,1 -30.038265399797805,32.042727171017184" fill="none" id="id17" stroke="none" /><text fill="#e1ed5e" style="font-size:6.75px; font-family:Arial;" text-anchor="middle"><textPath startOffset="22.206326154141568" xlink:href="#id17">May</textPath></text><path d="M 118.48025628344425 109.97397251340804 l 28.01567480519478 15.120329835572656 a52.83555259653795,52.83555259653795 0 0,0 -0.4388460377381794,0.7966330299432056 l -27.751252358005093 -15.600333383913666" fill="red" stroke="none" /><path d="M 118.30583269289576 110.29060199501025 l 13.41858974359403 7.54324420539699 a36.39347536617843,36.39347536617843 0 0,0 -0.3116806617945113,0.5434415054798973 l -13.286757085647139 -7.773105556735202" fill="red" stroke="none" /><path d="M 118.12598468904814 110.60418214915192 l 32.40230951404411 18.95621109885015 a58.53994673768309,58.53994673768309 0 0,0 -0.5163198891155277,0.8653818328221585 l -32.07120874923036 -19.511155025558416" fill="red" stroke="none" /><path d="M 117.94076556474637 110.91462005526583 l 26.66031207757249 16.219328870408333 a52.20639147802929,52.20639147802929 0 0,0 -0.47367445770960487,0.7637140470586342 l -26.377172980194924 -16.67583924883224" fill="red" stroke="none" /><path d="M 117.75023020441432 111.22182372390056 l 13.011320542649917 8.22585081225999 a36.39347536617843,36.39347536617843 0 0,0 -0.33931740388118375,0.5266281460748722 l -12.867798275391683 -8.448600558256317" fill="red" stroke="none" /><path d="M 117.55443506779139 111.5257021239791 l 23.281248105885776 15.285751418752575 a48.850865512649804,48.850865512649804 0 0,0 -0.4675653460019578,0.6989467521737089 l -23.014679654473095 -15.68423508513209" fill="red" stroke="none" /><path d="M 117.35343817320211 111.8261652097733 l 13.34435492013877 9.094021849060024 a37.14846870838882,37.14846870838882 0 0,0 -0.36465483999347814,0.5253124942537211 l -13.185839172983155 -9.322375605500763" fill="red" stroke="none" /><path d="M 117.14729908036423 112.12312394758627 l 11.50764146005802 8.135891437527935 a35.09320905459387,35.09320905459387 0 0,0 -0.3529711858436997,0.49024610540456764 l -11.365890481838717 -8.332771148383634" fill="red" stroke="none" /><path d="M 116.71984013943494 112.70617746262583 l 21.907220635424732 16.648307088180843 a48.51531291611185,48.51531291611185 0 0,0 -0.5110122132179111,0.6605521707237105 l -21.617401604988753 -17.022937253017805" fill="red" stroke="none" /><path d="M 116.27256486870786 113.27417163493432 l 10.985606376078408 8.961391503211322 a35.177097203728366,35.177097203728366 0 0,0 -0.3867872598321204,0.4659101711729385 l -10.829723116352744 -9.149162931498031" fill="red" stroke="none" /><path d="M 116.0416608686014 113.55231037782055 l 10.637479510737014 8.986751755199249 a34.9254327563249,34.9254327563249 0 0,0 -0.3919257064528593,0.4558981400096559 l -10.481211294713376 -9.168526994370433" fill="red" stroke="none" /><path d="M 115.80600337817218 113.82643327865902 l 20.236314578046 17.701884949974232 a47.88615179760319,47.88615179760319 0 0,0 -0.5480482289976306,0.6157379950982238 l -19.92860749940003 -18.047597114813325" fill="red" stroke="none" /><path d="M 115.56566222782051 114.09645910891815 l 10.415106883461796 9.432051534262815 a35.05126498002663,35.05126498002663 0 0,0 -0.4088539648167277,0.4437302291698093 l -10.251206510649347 -9.609933018233958" fill="red" stroke="none" /><path d="M 115.32070863581623 114.36230785411682 l 10.067602811951147 9.437814814922305 a34.79960053262317,34.79960053262317 0 0,0 -0.41344154035802755,0.43349180214789595 l -9.903654720214156 -9.609713733652708" fill="red" stroke="none" /><path d="M 114.81725581225074 114.88116024355365 l 19.32556866591158 19.40891672245113 a48.38948069241012,48.38948069241012 0 0,0 -0.5953059353045114,0.5826321529860041 l -18.988612778231275 -19.738698978359707" fill="red" stroke="none" /><path d="M 114.55890576462653 115.13401014063108 l 18.552427186082014 19.28528322847396 a47.76031957390147,47.76031957390147 0 0,0 -0.5973773566717718,0.5648575771477579 l -18.217713995019434 -19.60177544236764" fill="red" stroke="none" /><path d="M 114.29624159901734 115.38237550388516 l 18.70313897607795 20.124079803684648 a48.47336884154461,48.47336884154461 0 0,0 -0.6160744753651017,0.5627694262611964 l -18.35396495124598 -20.443041996532425" fill="red" stroke="none" /><path d="M 114.0293411484842 115.62618273729858 l 8.49046012248478 9.456857595342479 a33.70905459387483,33.70905459387483 0 0,0 -0.4350998582837663,0.3839250367423513 l -8.326417911294426 -9.601605773857118" fill="red" stroke="none" /><path d="M 113.75828350139079 115.86535959552629 l 9.150815724293874 10.552259810872675 a34.96737683089214,34.96737683089214 0 0,0 -0.45813012189134805,0.3904284287965446 l -8.967820125825478 -10.708212629892166" fill="red" stroke="none" /><path d="M 113.48314897796784 116.09983520530334 l 21.813616522278192 26.047003694332297 a54.97470039946737,54.97470039946737 0 0,0 -0.730718145514164,0.6013312867200896 l -21.362028248219335 -26.418630099909564" fill="red" stroke="none" /><path d="M 113.20401910651253 116.32954008644616 l 18.38189344322084 22.733068123008604 a50.23501997336884,50.23501997336884 0 0,0 -0.6770783812693459,0.5379120152993224 l -17.98785756923414 -23.04611405231305" fill="red" stroke="none" /><path d="M 112.92097659922987 116.55440617244103 l 8.000338373690935 10.25006507348213 a34.002663115845536,34.002663115845536 0 0,0 -0.4644946286976186,0.356154674218264 l -7.822715016499823 -10.386259089527766" fill="red" stroke="none" /><path d="M 112.04921762599082 117.19931262002967 l 14.728604235232456 21.0239267445902 a46.66977363515313,46.66977363515313 0 0,0 -0.6619176558780396,0.4552729994003434 l -14.364529694731534 -21.274340533355637" fill="red" stroke="none" /><path d="M 111.7513745106137 117.40417183066458 l 13.988986434738553 20.718148623986867 a45.99866844207723,45.99866844207723 0 0,0 -0.660026791708068,0.43742976738319733 l -13.630284944290521 -20.955876412461382" fill="red" stroke="none" /><path d="M 111.45004920935366 117.60387380957326 l 12.73837032545272 19.584602620370788 a44.36284953395473,44.36284953395473 0 0,0 -0.6437222650499932,0.4108540062197434 l -12.399366258355796 -19.80097105541434" fill="red" stroke="none" /><path d="M 111.1453310114006 117.79835938074945 l 6.923165002421279 11.055838416936911 a34.04460719041278,34.04460719041278 0 0,0 -0.4993546259419629,0.3067443963201726 l -6.731831176547007 -11.173371280085462" fill="red" stroke="none" /><line stroke="#e1ed5e" stroke-width="0.3" x1="143.8653032363475" x2="146.44561519142675" y1="172.8068346515853" y2="177.08958963109032" /><path d="M 144.38136562736335 173.6633856474863 a86.0,86.0 0 0,1 -40.68145358897372,12.25698825130547" fill="none" id="id18" stroke="none" /><text fill="#e1ed5e" style="font-size:6.75px; font-family:Arial;" text-anchor="middle"><textPath startOffset="21.466115282336833" xlink:href="#id18">June</textPath></text><path d="M 110.8373102113329 117.98757091392108 l 12.814289570790445 21.26892539488937 a45.830892143808256,45.830892143808256 0 0,0 -0.6792402921231447,0.4013071371645067 l -12.446281407638917 -21.486351104347623" fill="red" stroke="none" /><path d="M 110.21172684928248 118.3499491758327 l 6.730765366704173 12.094840002712631 a34.841544607190414,34.841544607190414 0 0,0 -0.5265672122658638,0.2871264286382503 l -6.52157534256966 -12.208907083110653" fill="red" stroke="none" /><path d="M 109.89434966115114 118.52300852407294 l 12.311943752790597 23.048936705387682 a47.13115845539281,47.13115845539281 0 0,0 -0.7188828013203616,0.3760855051513713 l -11.91337004894374 -23.257451629483768" fill="red" stroke="none" /><path d="M 109.57404056367764 118.69057910512821 l 11.41618285588991 22.28683567062891 a46.04061251664447,46.04061251664447 0 0,0 -0.7084687629831355,0.35524094533000544 l -11.030860185224013 -22.480044456868217" fill="red" stroke="none" /><path d="M 109.2508944713604 118.85261126421891 l 5.968120334719188 12.162570116530038 a34.5479360852197,34.5479360852197 0 0,0 -0.5361302246147969,0.2573750883951978 l -5.757877442104158 -12.263499481424796" fill="red" stroke="none" /><path d="M 108.92500713936063 119.00905698771935 l 12.246630968190582 26.0836660796868 a49.815579227696404,49.815579227696404 0 0,0 -0.7793339088420004,0.35775397363494876 l -11.795829063581161 -26.290607123655825" fill="red" stroke="none" /><path d="M 108.59647513512805 119.15986991738527 l 11.091856732275737 24.721589813510427 a48.095872170439414,48.095872170439414 0 0,0 -0.758264233806476,0.33240075676902553 l -10.664671823811506 -24.908855123573908" fill="red" stroke="none" /><path d="M 107.93186726928326 119.44442032107085 l 5.6716547584622 13.903666727583282 a36.01597869507324,36.01597869507324 0 0,0 -0.5760480080666794,0.22922139068573003 l -5.431485674353654 -13.99923496267508" fill="red" stroke="none" /><path d="M 107.59598834532513 119.57807347666477 l 10.696082124076328 27.56832583431824 a50.57057256990679,50.57057256990679 0 0,0 -0.8142579304328136,0.3078826760081998 l -10.21995397288324 -27.748356760433072" fill="red" stroke="none" /><path d="M 107.2578585660854 119.70592522655815 l 10.23445036149726 27.78771613172447 a50.612516644474034,50.612516644474034 0 0,0 -0.8201166381626898,0.29406464809277255 l -9.754614162704835 -27.9597683208572" fill="red" stroke="none" /><path d="M 106.91757812671514 119.82793768551818 l 12.987729905017769 37.226886999441604 a60.427430093209054,60.427430093209054 0 0,0 -0.9850542038916811,0.3341838685927512 l -12.345005968188861 -37.44493385493247" fill="red" stroke="none" /><path d="M 106.57524785965236 119.94407469862006 l 9.31128641643181 28.243040535262896 a50.73834886817576,50.73834886817576 0 0,0 -0.8318157381258171,0.266321131472653 l -8.823749333215053 -28.399134513395257" fill="red" stroke="none" /><path d="M 106.2309692047433 120.05430185196036 l 9.421125874814946 30.32178395858986 a52.75166444740346,52.75166444740346 0 0,0 -0.8694605335798619,0.2619613264740995 l -8.897790366794837 -30.479460654169685" fill="red" stroke="none" /><path d="M 105.53697534728816 120.25689768951611 l 3.8043665502006507 13.918188026351947 a35.42876165113182,35.42876165113182 0 0,0 -0.5896519426868612,0.15573243732670985 l -3.564224164702292 -13.98161181298224" fill="red" stroke="none" /><path d="M 105.18746579009965 120.34920634021253 l 3.6160297484915707 14.184832914915127 a35.638482023968045,35.638482023968045 0 0,0 -0.5957510500596238,0.14642111355362028 l -3.371325413688736 -14.244975286782777" fill="red" stroke="none" /><path d="M 104.83641907484287 120.43548508189849 l 1.5649132292767196 6.612280792145586 a27.794940079893475,27.794940079893475 0 0,0 -0.4665312536664382,0.10618099443912343 l -1.4508618262174193 -6.6382385201623935" fill="red" stroke="none" /><path d="M 104.48393922423573 120.51570834832081 l 4.307805792657893 19.709831655543898 a41.17509986684421,41.17509986684421 0 0,0 -0.6937191385422647,0.14537559038637562 l -3.96789519268625 -19.781063226656812" fill="red" stroke="none" /><path d="M 104.13013068566511 120.58985236759428 l 6.921131115725081 34.503767249823426 a56.19107856191744,56.19107856191744 0 0,0 -0.9499834600774435,0.18206659110353302 l -6.326180041075933 -34.617791039275424" fill="red" stroke="none" /><path d="M 103.7750983002368 120.6578951692458 l 5.38366215652946 29.460194042959063 a50.948069241011986,50.948069241011986 0 0,0 -0.8640574886523635,0.15022746995303163 l -4.875755696405046 -29.5485000914331" fill="red" stroke="none" /><path d="M 103.41894727170886 120.7198165907248 l 1.4135594245880174 8.566581959281026 a29.68242343541944,29.68242343541944 0 0,0 -0.5048331967770427,0.0788445629175063 l -1.2658903642024577 -8.589644829545637" fill="red" stroke="none" /><path d="M 102.34483914955558 120.86867818915974 l 5.329747574289466 47.43386640332313 a68.7323568575233,68.7323568575233 0 0,0 -1.176853099258893,0.1219856356001942 l -4.51246187842497 -47.51858140737908" fill="red" stroke="none" /><path d="M 101.98527174616119 120.90594882070398 l 2.1372732447021607 22.506604023354416 a43.60785619174434,43.60785619174434 0 0,0 -0.7478865332650675,0.06453079703252251 l -1.7495423936955514 -22.540059072665603" fill="red" stroke="none" /><path d="M 101.62511606390274 120.93702456842531 l 1.7398046809291572 22.414604198420715 a43.48202396804261,43.48202396804261 0 0,0 -0.7467255752180604,0.05149856761275176 l -1.3537163449321663 -22.44123111054975" fill="red" stroke="none" /><path d="M 100.90346689309514 120.98055641714683 l 0.9888812065568671 22.96407107176391 a43.98535286284954,43.98535286284954 0 0,0 -0.7567148958931718,0.0260627910462776 l -0.5934459589890431 -22.97769066123628" fill="red" stroke="none" /><line stroke="#e1ed5e" stroke-width="0.3" x1="102.19456741930631" x2="102.32365962044197" y1="184.97166512339345" y2="189.96999836594603" /><path d="M 102.22038585953345 185.97133177190398 a86.0,86.0 0 0,1 -42.740103519485714,-10.115201625700543" fill="none" id="id19" stroke="none" /><text fill="#e1ed5e" style="font-size:6.75px; font-family:Arial;" text-anchor="middle"><textPath startOffset="22.20632615414155" xlink:href="#id19">July</textPath></text><path d="M 100.54218724476979 120.99299961872073 l 0.6400119740192052 24.780684636479275 a45.788948069241016,45.788948069241016 0 0,0 -0.7880938852207141,0.013567750939249078 l -0.21335839890582312 -24.788029864697684" fill="red" stroke="none" /><path d="M 100.18074693466247 120.99922214144158 l 0.3913375709203252 45.46569267907323 a66.46737683089214,66.46737683089214 0 0,0 -1.14416901116553,0.0 l 0.39133757092029386 -45.46569267907323" fill="red" stroke="none" /><path d="M 99.81925306533755 120.99922214144158 l -0.19927891065313866 23.152271548753166 a44.153129161118514,44.153129161118514 0 0,0 -0.7599390807716077,-0.013083040447678959 l 0.5977776813174143 -23.14541103102633" fill="red" stroke="none" /><path d="M 99.45781275523022 120.99299961872073 l -0.5587921803619305 21.635927702915907 a42.64314247669773,42.64314247669773 0 0,0 -0.7336237865461642,-0.025267486551540583 l 0.9311363185827377 -21.623103417938275" fill="red" stroke="none" /><path d="M 99.09653310690486 120.98055641714683 l -1.8189639711848835 42.240481095507334 a63.279627163781626,63.279627163781626 0 0,0 -1.087842877736717,-0.056229050994856346 l 2.5457949173350896 -42.202912237750276" fill="red" stroke="none" /><path d="M 98.01472825383883 120.90594882070398 l -3.2713365990338956 34.44888370921594 a55.60386151797603,55.60386151797603 0 0,0 -0.9520636240343244,-0.0986852873844471 l 3.8638328196738136 -34.38746905337573" fill="red" stroke="none" /><path d="M 97.65516085044442 120.86867818915974 l -2.4634861371496073 21.924616632818953 a43.06258322237017,43.06258322237017 0 0,0 -0.7359038195750471,-0.08910770407851287 l 2.8405173797760437 -21.878963400015092" fill="red" stroke="none" /><path d="M 96.93821686468263 120.77559828337769 l -2.941513358364151 19.95951286478962 a41.17509986684421,41.17509986684421 0 0,0 -0.7002985230844987,-0.10937222693926332 l 3.2846477450571663 -19.90592233050325" fill="red" stroke="none" /><path d="M 96.58105272829116 120.7198165907248 l -3.3461068504740363 20.278382415689382 a41.5525965379494,41.5525965379494 0 0,0 -0.7047142854760768,-0.12252361160823544 l 3.694670107422163 -20.21778022556014" fill="red" stroke="none" /><path d="M 96.22490169976321 120.6578951692458 l -7.525062790219018 41.178254418589844 a62.86018641810919,62.86018641810919 0 0,0 -1.0627334253566305,-0.2036753902964629 l 8.232763830147345 -41.04262182994491" fill="red" stroke="none" /><path d="M 95.86986931433489 120.58985236759428 l -8.628728423180483 43.01661566545329 a64.87350199733689,64.87350199733689 0 0,0 -1.0929904254112153,-0.22904677059177692 l 9.367910310021086 -42.86171291413497" fill="red" stroke="none" /><path d="M 95.51606077576429 120.51570834832081 l -4.648131406215051 21.26694933311286 a42.76897470039947,42.76897470039947 0 0,0 -0.717866753000821,-0.16338413580949152 l 5.0135183086087345 -21.18378846372568" fill="red" stroke="none" /><path d="M 95.16358092515715 120.4354850818985 l -5.52549609349556 23.347065513007873 a44.99201065246338,44.99201065246338 0 0,0 -0.7521094072545595,-0.18485019357220478 l 5.92655878549333 -23.248494061121637" fill="red" stroke="none" /><path d="M 94.81253420990036 120.34920634021253 l -11.666617469345262 45.76539215528491 a68.22902796271637,68.22902796271637 0 0,0 -1.1355570166976912,-0.2999109290269784 l 12.452664928854443 -45.557789876954345" fill="red" stroke="none" /><path d="M 94.46302465271185 120.25689768951611 l -6.182095644076051 22.617055542821916 a44.44673768308921,44.44673768308921 0 0,0 -0.7362683199703277,-0.20807678160908158 l 6.570495132150993 -22.507289967874314" fill="red" stroke="none" /><path d="M 93.08242187328487 119.8279376855182 l -8.732175851033206 25.02914104643308 a47.508655126498,47.508655126498 0 0,0 -0.76982219239693,-0.2760308492318398 l 9.161717604059863 -24.87512265616128" fill="red" stroke="none" /><path d="M 92.7421414339146 119.70592522655815 l -16.844803569489816 45.73558944060034 a69.73901464713715,69.73901464713715 0 0,0 -1.122897029858661,-0.42458357421312487 l 17.62957082010876 -45.43885761628058" fill="red" stroke="none" /><path d="M 92.40401165467489 119.57807347666478 l -10.741597367157487 27.68563785914514 a50.69640479360852,50.69640479360852 0 0,0 -0.8108501852677913,-0.32265402275872346 l 11.216568628467137 -27.49663699198035" fill="red" stroke="none" /><path d="M 92.06813273071674 119.44442032107085 l -14.004868174526765 34.331959182077156 a58.07856191744341,58.07856191744341 0 0,0 -0.9224218090862462,-0.385572391008676 l 14.593761443110473 -34.08580174804851" fill="red" stroke="none" /><path d="M 91.7346041902142 119.30500536409082 l -13.669269767981303 31.926520189348604 a55.729693741677764,55.729693741677764 0 0,0 -0.8786166383583457,-0.38515971409341776 l 14.216807080997391 -31.686495921960734" fill="red" stroke="none" /><path d="M 91.07499286063937 119.00905698771935 l -21.248885173337968 45.257248860242605 a70.99733688415446,70.99733688415446 0 0,0 -1.1017682236316717,-0.5289157016878976 l 22.02476606496988 -44.884778882055144" fill="red" stroke="none" /><path d="M 90.7491055286396 118.85261126421891 l -5.543145821720607 11.296504752195087 a33.583222370173104,33.583222370173104 0 0,0 -0.516775575063921,-0.25912200142200825 l 5.736775304467289 -11.199414909863776" fill="red" stroke="none" /><path d="M 90.42595943632237 118.69057910512821 l -15.604028828151023 30.46240855482947 a55.22636484687084,55.22636484687084 0 0,0 -0.8423574800401746,-0.4406816212838673 l 16.126077210717693 -30.189297514600884" fill="red" stroke="none" /><path d="M 90.10565033884886 118.52300852407294 l -19.92044831912186 37.29266163568345 a63.279627163781626,63.279627163781626 0 0,0 -0.956357625487705,-0.5214824301832889 l 20.559428756478205 -36.94423855374039" fill="red" stroke="none" /><line stroke="#e1ed5e" stroke-width="0.3" x1="58.666819895761336" x2="56.23545636021788" y1="174.27360380694188" y2="178.64263932499728" /><path d="M 58.180547188652646 175.14741091055294 a86.0,86.0 0 0,1 -31.652253787137756,-30.449443065178592" fill="none" id="id20" stroke="none" /><text fill="#e1ed5e" style="font-size:6.75px; font-family:Arial;" text-anchor="middle"><textPath startOffset="22.20632615414155" xlink:href="#id20">August</textPath></text><path d="M 89.4739219176387 118.17145234162733 l -30.12756969112595 52.01003569684147 a81.10585885486019,81.10585885486019 0 0,0 -1.2020356725461754,-0.7101838629320634 l 31.018373234700505 -51.483733261615654" fill="red" stroke="none" /><path d="M 89.1626897886671 117.98757091392108 l -28.226070270795155 46.849119450904965 a75.69507323568575,75.69507323568575 0 0,0 -1.1102693818684957,-0.6820181362124905 l 29.028318852595962 -46.356312847864096" fill="red" stroke="none" /><path d="M 88.8546689885994 117.79835938074946 l -19.92357774008695 31.816641103403654 a58.53994673768309,58.53994673768309 0 0,0 -0.8494374799131368,-0.5421511894239226 l 20.46829702204701 -31.468975485155926" fill="red" stroke="none" /><path d="M 88.54995079064634 117.60387380957326 l -22.89247521683694 35.19602733032524 a62.98601864181092,62.98601864181092 0 0,0 -0.9037752877340027,-0.5989729793499404 l 23.494925203310903 -34.796756329883976" fill="red" stroke="none" /><path d="M 88.24862548938628 117.40417183066458 l -18.824105907148194 27.879119457109837 a54.63914780292943,54.63914780292943 0 0,0 -0.7749473334845172,-0.5330158423176996 l 19.301210125255604 -27.55096282542704" fill="red" stroke="none" /><path d="M 87.95078237400918 117.19931262002967 l -27.724431501614028 39.574450342758034 a69.31957390146471,69.31957390146471 0 0,0 -0.9713741068743132,-0.6930496336726769 l 28.40153293633723 -39.09135644724114" fill="red" stroke="none" /><path d="M 87.65650970185807 116.9893568818739 l -36.70996748455394 50.5269355468247 a83.45472703062583,83.45472703062583 0 0,0 -1.1549141887959984,-0.854377906772525 l 37.5742666437685 -49.88754769131241" fill="red" stroke="none" /><path d="M 87.36589467227662 116.77436683061367 l -37.17051361065883 49.35148270604646 a82.78362183754993,82.78362183754993 0 0,0 -1.1308687074501098,-0.8671019021572312 l 38.01451104660243 -48.70434146206186" fill="red" stroke="none" /><path d="M 87.07902340077011 116.55440617244103 l -5.9357349224158575 7.60488699000287 a30.647137150466044,30.647137150466044 0 0,0 -0.41306869238585286,-0.32816675133205964 l 6.0657611075190685 -7.50158632466568" fill="red" stroke="none" /><path d="M 86.79598089348748 116.32954008644616 l -17.69619870932737 21.88506271239422 a49.1444740346205,49.1444740346205 0 0,0 -0.653223367620119,-0.5375583603308987 l 18.070292205492176 -21.57720923320614" fill="red" stroke="none" /><path d="M 86.51685102203217 116.09983520530335 l -35.090299171022814 41.90030347372221 a75.6531291611185,75.6531291611185 0 0,0 -0.9911803636761296,-0.8447054091235748 l 35.806345011275994 -41.290073674375684" fill="red" stroke="none" /><path d="M 86.24171649860922 115.8653595955263 l -41.274850504172335 47.596078786578886 a84.0,84.0 0 0,0 -1.0842305883736492,-0.9567074329108447 l 42.08802344545257 -46.878548211895755" fill="red" stroke="none" /><path d="M 85.97065885151581 115.62618273729859 l -28.077363177325886 31.273172642023663 a63.02796271637816,63.02796271637816 0 0,0 -0.8010567450089343,-0.7317463436935523 l 28.611519471801675 -30.785233531743536" fill="red" stroke="none" /><path d="M 85.70375840098266 115.38237550388516 l -14.876847948910852 16.007092485068245 a42.852862849533956,42.852862849533956 0 0,0 -0.535995784016076,-0.5068174689572051 l 15.150179567317744 -15.74864037936511" fill="red" stroke="none" /><path d="M 85.44109423537348 115.13401014063109 l -17.476502725447148 18.16685771208912 a46.20838881491345,46.20838881491345 0 0,0 -0.5684733071890813,-0.5563707788554642 l 17.786625985012023 -17.863336830311084" fill="red" stroke="none" /><path d="M 85.18274418774928 114.88116024355367 l -29.654241658871957 29.78213561392963 a63.02796271637816,63.02796271637816 0 0,0 -0.7622162864511691,-0.7721210739914539 l 30.16249857037866 -29.26727404595751" fill="red" stroke="none" /><path d="M 84.9287848128048 114.62390073753433 l -14.117975877752084 13.698953620313443 a40.67177097203728,40.67177097203728 0 0,0 -0.48320668577803766,-0.5066402782034002 l 14.35168911490908 -13.453906225527543" fill="red" stroke="none" /><path d="M 84.43433777217949 114.09645910891817 l -31.3075003929732 28.352465358216904 a63.23768308921438,63.23768308921438 0 0,0 -0.7237436904397908,-0.8131337085632966 l 31.79090293306133 -27.80935747991274" fill="red" stroke="none" /><path d="M 84.19399662182784 113.82643327865904 l -12.533255674702431 10.963569930015252 a37.65179760319574,37.65179760319574 0 0,0 -0.4225203873008607,-0.4914866657509979 l 12.720118571574071 -10.746206165102723" fill="red" stroke="none" /><path d="M 83.95833913139862 113.55231037782056 l -44.50439470004126 37.59818731316796 a79.26031957390146,79.26031957390146 0 0,0 -0.871501182825261,-1.0497793165260239 l 45.14499188276006 -36.826546739528176" fill="red" stroke="none" /><path d="M 83.72743513129214 113.27417163493432 l -32.63180118811455 26.619044583503452 a63.11185086551265,63.11185086551265 0 0,0 -0.6794504294170158,-0.8477188809771878 l 33.08516952958642 -26.053397868948007" fill="red" stroke="none" /><path d="M 83.50135304334701 112.99209946851258 l -27.417192279497915 21.59006675992504 a55.89747003994674,55.89747003994674 0 0,0 -0.5887685384568325,-0.7610627027531397 l 27.784767635172816 -21.11492606305865" fill="red" stroke="none" /><path d="M 83.28015986056508 112.70617746262583 l -24.345066834183875 18.500938822079032 a51.57723035952064,51.57723035952064 0 0,0 -0.531094998110407,-0.7114885402730778 l 24.659923098989367 -18.07913740229665" fill="red" stroke="none" /><path d="M 83.06392112726016 112.41649034213515 l -6.8330651111054195 5.009582654683021 a29.47270306258322,29.47270306258322 0 0,0 -0.29643954572051895,-0.4117286016704399 l 6.918284449201546 -4.891220447561443" fill="red" stroke="none" /><path d="M 82.85270091963577 112.12312394758628 l -26.91966127263572 19.032174612788584 a53.968042609853526,53.968042609853526 0 0,0 -0.5297582545633577,-0.7631562769361727 l 27.243280434361214 -18.5659770736654" fill="red" stroke="none" /><path d="M 82.44556493220864 111.52570212397912 l -28.154882875039547 18.48563010430472 a54.68109187749667,54.68109187749667 0 0,0 -0.5098234216593704,-0.7912572721086656 l 28.46891116007596 -17.998251232274608" fill="red" stroke="none" /><line stroke="#e1ed5e" stroke-width="0.3" x1="26.63291911575756" x2="22.317208475507996" y1="142.92168965132927" y2="145.44649492493687" /><path d="M 25.769776987707644 143.4266507060508 a86.0,86.0 0 0,1 -11.730757126820373,-40.83630448921669" fill="none" id="id21" stroke="none" /><text fill="#e1ed5e" style="font-size:6.75px; font-family:Arial;" text-anchor="middle"><textPath startOffset="21.46611528233685" xlink:href="#id21">September</textPath></text><line stroke="#e1ed5e" stroke-width="0.3" x1="15.007084014347285" x2="10.007500721073583" y1="101.09737516637583" y2="101.16192664675087" /><path d="M 14.007167355692545 101.11028546245083 a86.0,86.0 0 0,1 10.666146001902534,-42.60595125391555" fill="none" id="id22" stroke="none" /><text fill="#e1ed5e" style="font-size:6.75px; font-family:Arial;" text-anchor="middle"><textPath startOffset="22.20632615414155" xlink:href="#id22">October</textPath></text><line stroke="#e1ed5e" stroke-width="0.3" x1="26.266209847984243" x2="21.928928074336255" y1="57.711370442889674" y2="55.22380399835377" /><path d="M 25.398753493254645 57.213857153982495 a86.0,86.0 0 0,1 29.58750427330803,-30.492523968695096" fill="none" id="id23" stroke="none" /><text fill="#e1ed5e" style="font-size:6.75px; font-family:Arial;" text-anchor="middle"><textPath startOffset="21.46611528233685" xlink:href="#id23">November</textPath></text><line stroke="#e1ed5e" stroke-width="0.3" x1="56.762969772571076" x2="54.21961505331055" y1="26.818313649435495" y2="22.513508569990535" /><path d="M 56.25429882871897 25.957352633546506 a86.0,86.0 0 0,1 42.265352541879196,-11.944610805530505" fill="none" id="id24" stroke="none" /><text fill="#e1ed5e" style="font-size:6.75px; font-family:Arial;" text-anchor="middle"><textPath startOffset="22.20632615414155" xlink:href="#id24">December</textPath></text></svg>